<svg width="162" height="120" viewBox="0 0 162 120" fill="none" xmlns="http://www.w3.org/2000/svg">
<g clip-path="url(#clip0)">
<path d="M151.668 8.4379H12.4961V97.7804H151.668V8.4379Z" fill="#3F3D56"/>
<path d="M147.711 24.5692H85.0505V97.6977H147.711V24.5692Z" fill="#F2F2F2"/>
<path d="M6.88002 92.7809C8.78456 96.3248 12.8267 97.8461 12.8267 97.8461C12.8267 97.8461 13.7809 93.6216 11.8764 90.0778C9.97184 86.5339 5.92973 85.0125 5.92973 85.0125C5.92973 85.0125 4.97548 89.237 6.88002 92.7809Z" fill="#3F3D56"/>
<path d="M8.18908 91.615C11.6276 93.6906 12.9518 97.8134 12.9518 97.8134C12.9518 97.8134 8.70123 98.571 5.26275 96.4953C1.82427 94.4197 0.5 90.2969 0.5 90.2969C0.5 90.2969 4.75061 89.5393 8.18908 91.615Z" fill="#73B9FF"/>
<path d="M144.248 31.3736H106.245V32.9112H144.248V31.3736Z" fill="white"/>
<path d="M144.248 34.7562H106.245V36.2938H144.248V34.7562Z" fill="white"/>
<path d="M119.117 38.1388H106.245V39.6764H119.117V38.1388Z" fill="white"/>
<path d="M66.2088 77.5339H28.2051V79.0715H66.2088V77.5339Z" fill="white"/>
<path d="M66.2088 80.9165H28.2051V82.4541H66.2088V80.9165Z" fill="white"/>
<path d="M41.0773 84.2991H28.2051V85.8367H41.0773V84.2991Z" fill="white"/>
<path d="M135.344 50.2348H97.3401V51.7724H135.344V50.2348Z" fill="white"/>
<path d="M135.344 53.6174H97.3401V55.155H135.344V53.6174Z" fill="white"/>
<path d="M135.344 56.9264H97.3401V58.464H135.344V56.9264Z" fill="white"/>
<path d="M135.344 60.2354H97.3401V61.7729H135.344V60.2354Z" fill="white"/>
<path d="M135.344 63.5444H97.3401V65.0819H135.344V63.5444Z" fill="white"/>
<path d="M135.344 66.8533H97.3401V68.3909H135.344V66.8533Z" fill="white"/>
<path d="M135.344 70.1623H97.3401V71.6999H135.344V70.1623Z" fill="white"/>
<path d="M135.344 73.4713H97.3401V75.0089H135.344V73.4713Z" fill="white"/>
<path d="M135.344 76.7803H97.3401V78.3178H135.344V76.7803Z" fill="white"/>
<path d="M135.344 80.0893H97.3401V81.6269H135.344V80.0893Z" fill="white"/>
<path d="M135.344 83.3983H97.3401V84.9358H135.344V83.3983Z" fill="white"/>
<path d="M61.055 53.086C61.0572 55.1575 60.5967 57.2032 59.7072 59.0725C58.8178 60.9419 57.522 62.5875 55.9152 63.8882C55.3209 64.3725 54.6871 64.8059 54.0205 65.1837C53.6182 65.4129 53.2043 65.6211 52.7805 65.8074C51.3758 66.4294 49.8769 66.8103 48.3464 66.9341C47.9705 66.9655 47.5907 66.981 47.207 66.9804C46.4479 66.9813 45.6901 66.9187 44.9413 66.7935C44.6775 66.7521 44.4169 66.7008 44.1597 66.6413C43.7101 66.5409 43.2659 66.4172 42.829 66.2707C41.0326 65.6695 39.3785 64.7043 37.9695 63.4349C37.6065 63.112 37.2624 62.7684 36.9389 62.4058C35.4311 60.7331 34.3519 58.7174 33.7943 56.5326C33.2368 54.3478 33.2177 52.0597 33.7387 49.8658C34.2598 47.672 35.3053 45.6384 36.7849 43.9407C38.2646 42.243 40.1339 40.9323 42.2314 40.1217C44.329 39.3111 46.5916 39.025 48.824 39.2881C51.0564 39.5513 53.1914 40.3558 55.0445 41.6321C56.8977 42.9085 58.4133 44.6182 59.4605 46.6138C60.5077 48.6094 61.0549 50.8307 61.055 53.086Z" fill="#73B9FF"/>
<path d="M102.252 37.5863C102.272 42.0334 99.6441 43.5977 96.394 43.6122C96.3185 43.6125 96.2434 43.612 96.1686 43.6107C96.018 43.6081 95.8689 43.6018 95.7214 43.592C92.7871 43.3967 90.5008 41.7745 90.4825 37.6387C90.4635 33.3587 95.8916 27.9331 96.2987 27.5319L96.2994 27.5315C96.3149 27.5162 96.3228 27.5086 96.3228 27.5086C96.3228 27.5086 102.233 33.1396 102.252 37.5863Z" fill="#73B9FF"/>
<path d="M96.1767 42.9329L98.3158 39.9059L96.1728 43.2642L96.1685 43.6107C96.0179 43.6081 95.8688 43.6019 95.7213 43.592L95.9335 39.142L95.9315 39.1076L95.9355 39.1011L95.9557 38.6806L93.7776 35.3332L95.9608 38.3656L95.9666 38.4547L96.1269 35.0926L94.2597 31.6319L96.147 34.5018L96.2986 27.5319L96.2992 27.5087L96.2993 27.5315L96.2933 33.0276L98.1269 30.8406L96.2874 33.5009L96.252 36.5109L97.9611 33.6149L96.2471 36.9535L96.2274 38.6272L98.7084 34.5955L96.2202 39.2111L96.1767 42.9329Z" fill="#3F3D56"/>
<path d="M151.586 47.5666C145.463 47.5666 139.592 50.007 135.262 54.3509C130.933 58.6947 128.501 64.5863 128.501 70.7295V70.7295C128.501 72.5286 127.788 74.254 126.521 75.5261C125.253 76.7982 123.533 77.5129 121.74 77.5129H110.527C107.885 77.5129 105.269 78.035 102.828 79.0494C100.388 80.0638 98.17 81.5506 96.3019 83.4249C94.4338 85.2992 92.952 87.5244 91.941 89.9733C90.93 92.4222 90.4097 95.047 90.4097 97.6977V97.6977H151.586V47.5666H151.586Z" fill="#3F3D56"/>
<path d="M83.484 8.4379H80.5159V97.7804H83.484V8.4379Z" fill="#2F2E41"/>
<path d="M53.2256 7.11432V4.79802C53.2248 3.52601 52.7206 2.30636 51.8239 1.40718C50.9272 0.508 49.7113 0.00289154 48.4436 0.00289154C47.1758 0.00289154 45.9599 0.508 45.0632 1.40718C44.1665 2.30636 43.6623 3.52601 43.6616 4.79802V7.11432H34.5923V12.2432H62.2948V7.11432H53.2256ZM48.4436 1.3236C48.998 1.3236 49.54 1.48855 50.001 1.79761C50.462 2.10667 50.8213 2.54594 51.0334 3.05988C51.2456 3.57382 51.3011 4.13935 51.1929 4.68495C51.0848 5.23055 50.8178 5.73171 50.4258 6.12506C50.0337 6.51842 49.5342 6.7863 48.9905 6.89482C48.4467 7.00335 47.883 6.94765 47.3708 6.73477C46.8586 6.52189 46.4208 6.16138 46.1128 5.69885C45.8047 5.23631 45.6403 4.69252 45.6403 4.13623C45.6403 3.76687 45.7128 3.40113 45.8537 3.05988C45.9946 2.71864 46.2011 2.40858 46.4614 2.1474C46.7217 1.88622 47.0307 1.67904 47.3708 1.5377C47.7109 1.39635 48.0754 1.3236 48.4436 1.3236Z" fill="#73B9FF"/>
<path d="M49.6656 52.1692C49.6656 52.1692 48.2883 56.1025 49.1359 56.7077C49.9835 57.3128 46.2752 62.2547 46.2752 62.2547L41.8252 61.0445L44.2621 56.9094C44.2621 56.9094 44.5799 52.7743 44.5799 52.1692C44.5799 51.564 49.6656 52.1692 49.6656 52.1692Z" fill="#FFB8B8"/>
<path opacity="0.1" d="M49.6656 52.1692C49.6656 52.1692 48.2883 56.1025 49.1359 56.7077C49.9835 57.3128 46.2752 62.2547 46.2752 62.2547L41.8252 61.0445L44.2621 56.9094C44.2621 56.9094 44.5799 52.7743 44.5799 52.1692C44.5799 51.564 49.6656 52.1692 49.6656 52.1692Z" fill="black"/>
<path d="M46.8513 55.094C48.8499 55.094 50.47 53.4684 50.47 51.4632C50.47 49.4579 48.8499 47.8324 46.8513 47.8324C44.8528 47.8324 43.2327 49.4579 43.2327 51.4632C43.2327 53.4684 44.8528 55.094 46.8513 55.094Z" fill="#FFB8B8"/>
<path d="M44.1596 66.6412C43.7099 66.5409 43.2657 66.4172 42.8289 66.2706L43.5214 61.5057L43.7358 60.0365L44.834 60.4502C44.9824 60.5048 45.1506 60.5693 45.3435 60.6404C45.491 60.6983 45.6487 60.7252 45.807 60.7195C45.9653 60.7139 46.1207 60.6757 46.2636 60.6073C47.3256 60.1193 47.9571 58.2199 47.9571 58.2199C47.9571 58.2199 48 58.7527 48.0561 59.6543C48.1567 61.2377 48.3018 63.961 48.3463 66.9341C47.9703 66.9655 47.5905 66.981 47.2069 66.9804C46.4478 66.9813 45.6899 66.9187 44.9412 66.7935C44.6773 66.7521 44.4168 66.7008 44.1596 66.6412Z" fill="#D0CDE1"/>
<path d="M45.1423 57.616L44.834 60.4502L44.6839 61.8217L44.1596 66.6413C43.7099 66.5409 43.2657 66.4172 42.8288 66.2706C41.0324 65.6695 39.3784 64.7043 37.9693 63.4348L37.3015 61.0441C37.3051 60.9015 37.3194 60.7594 37.3444 60.6189C37.3443 60.618 37.3444 60.6171 37.3447 60.6162C37.3449 60.6154 37.3454 60.6146 37.346 60.6139C37.3657 60.4888 37.3932 60.365 37.4285 60.2433C37.4294 60.2418 37.4299 60.2401 37.4301 60.2384C37.5484 59.7832 37.7812 59.3662 38.1062 59.0273C38.9109 58.2199 44.237 55.6984 44.237 55.6984L44.3376 55.9102L45.1423 57.616Z" fill="#D0CDE1"/>
<path d="M46.7743 46.3318C47.5765 46.3031 48.435 46.2888 49.1114 46.7226C49.4226 46.9403 49.6955 47.2084 49.9191 47.5159C50.5778 48.3515 51.147 49.4028 50.9023 50.4395L50.6181 50.3283C50.6181 50.605 50.6795 50.8783 50.7976 51.1283C50.7576 51.0116 50.6236 51.2003 50.6595 51.3184L50.9725 52.349C50.8432 52.309 50.7069 52.2967 50.5725 52.3129C50.4381 52.3291 50.3086 52.3734 50.1923 52.443C50.0761 52.5126 49.9757 52.6059 49.8977 52.7169C49.8197 52.8279 49.7657 52.9541 49.7394 53.0873C49.7036 51.8903 49.5798 50.5178 48.6121 49.8169C48.1241 49.4634 47.5064 49.3556 46.9122 49.2597C46.364 49.1713 45.7893 49.0871 45.2642 49.2681C44.7391 49.4492 44.2919 49.988 44.411 50.5322C44.2858 50.5039 44.1547 50.5195 44.0396 50.5764C43.9245 50.6334 43.8323 50.7281 43.7784 50.845C43.677 51.082 43.6326 51.3396 43.6489 51.597C43.3908 51.78 43.0971 51.4166 42.9919 51.1176C42.745 50.4157 42.5256 49.6686 42.6586 48.9363C42.7916 48.2041 43.3863 47.5043 44.1281 47.5018C44.0381 47.4026 43.99 47.2721 43.9941 47.138L44.6056 47.0861C44.4503 47.0641 44.3076 46.9886 44.2018 46.8725C44.4472 47.1436 46.3773 46.3461 46.7743 46.3318Z" fill="#2F2E41"/>
<path d="M55.1944 60.2384C55.1004 60.9945 54.5628 63.1304 54.0203 65.1836C53.618 65.4129 53.2041 65.6211 52.7803 65.8074C51.3756 66.4294 49.8767 66.8102 48.3463 66.9341C47.9703 66.9655 47.5905 66.981 47.2068 66.9804C46.4477 66.9812 45.6899 66.9187 44.9412 66.7934C45.2215 65.7081 45.5991 63.9196 45.952 62.1675C46.0591 61.6381 46.1647 61.1103 46.2636 60.6073C46.6511 58.6252 46.9512 57.0105 46.9512 57.0105C46.9512 57.0105 48.155 55.8258 48.869 55.5512C48.9657 55.5079 49.0719 55.4903 49.1773 55.4999C49.766 55.5975 50.5707 57.0105 50.5707 57.0105C50.5707 57.0105 54.1819 58.2182 55.0262 59.5898C55.1547 59.7803 55.2141 60.0092 55.1944 60.2384Z" fill="#D0CDE1"/>
<path d="M39.9151 60.2384L39.704 64.765C39.0915 64.3686 38.5114 63.9238 37.9693 63.4348C37.6063 63.112 37.2622 62.7684 36.9387 62.4058C37.1119 61.643 37.257 61.0011 37.3444 60.6189C37.3443 60.618 37.3443 60.6171 37.3446 60.6162C37.3449 60.6154 37.3454 60.6146 37.346 60.6139C37.3922 60.4022 37.4219 60.2715 37.4285 60.2433C37.4294 60.2418 37.4299 60.2401 37.4301 60.2384H39.9151Z" fill="#D0CDE1"/>
<path d="M55.915 63.8882C55.3208 64.3725 54.687 64.8059 54.0204 65.1836C53.618 65.4129 53.2041 65.6211 52.7803 65.8074L52.3796 63.4646L52.782 59.0273L55.0262 59.5898L55.1944 59.6328L55.915 63.8882Z" fill="#D0CDE1"/>
<path d="M151.06 71.6697C151.06 71.6697 149.494 79.3516 152.104 78.6532C154.714 77.9549 153.67 71.3205 153.67 71.3205L151.06 71.6697Z" fill="#A0616A"/>
<path d="M158.368 39.8942H156.628C156.628 39.8942 154.714 41.2909 154.888 42.8622C155.062 44.4335 151.755 58.0516 151.755 59.7975C151.755 61.5434 151.059 62.0672 151.059 63.1147C151.059 64.1623 151.407 64.8606 151.059 65.3844C150.711 65.9082 150.015 69.0508 150.189 70.2729C150.291 71.0845 150.291 71.9056 150.189 72.7172H154.54C154.54 72.7172 157.672 62.0672 158.368 61.5434C159.064 61.0196 159.412 60.1467 159.412 59.6229C159.412 59.0991 159.064 59.0991 159.934 58.4008C160.804 57.7024 160.282 54.5598 160.282 54.5598L161.5 51.4172L158.368 39.8942Z" fill="#D0CDE1"/>
<path opacity="0.1" d="M158.368 39.8942H156.628C156.628 39.8942 154.714 41.2909 154.888 42.8622C155.062 44.4335 151.755 58.0516 151.755 59.7975C151.755 61.5434 151.059 62.0672 151.059 63.1147C151.059 64.1623 151.407 64.8606 151.059 65.3844C150.711 65.9082 150.015 69.0508 150.189 70.2729C150.291 71.0845 150.291 71.9056 150.189 72.7172H154.54C154.54 72.7172 157.672 62.0672 158.368 61.5434C159.064 61.0196 159.412 60.1467 159.412 59.6229C159.412 59.0991 159.064 59.0991 159.934 58.4008C160.804 57.7024 160.282 54.5598 160.282 54.5598L161.5 51.4172L158.368 39.8942Z" fill="black"/>
<path d="M134.007 67.3922C134.007 67.3922 132.441 75.0742 135.051 74.3758C137.661 73.6774 136.617 67.043 136.617 67.043L134.007 67.3922Z" fill="#A0616A"/>
<path d="M134.529 103.183L133.485 107.548L137.313 109.992L138.357 104.754L134.529 103.183Z" fill="#A0616A"/>
<path d="M152.626 108.595L150.711 111.214L152.974 113.833H156.106V108.595H152.626Z" fill="#A0616A"/>
<path d="M156.628 111.564H155.584C155.067 111.458 154.534 111.458 154.018 111.564C152.974 111.738 151.557 110.058 151.557 110.058L150.19 111.214C150.19 111.214 147.405 111.913 148.797 115.23L151.93 117.15C151.93 117.15 153.496 120.468 156.628 119.944C159.76 119.42 157.498 115.928 157.498 115.928L156.628 111.564Z" fill="#2F2E41"/>
<path d="M134.529 105.453L134.264 104.29L131.919 104.929C131.919 104.929 127.047 101.787 127.047 105.977C127.047 110.167 130.875 111.564 130.875 111.564C130.875 111.564 132.267 111.389 132.267 112.611C132.267 113.833 135.921 115.754 137.313 115.055C138.705 114.357 138.705 112.611 138.705 112.611L138.357 107.723L136.791 108.072C136.791 108.072 133.833 107.897 134.355 107.199C134.877 106.5 134.529 105.453 134.529 105.453Z" fill="#2F2E41"/>
<path d="M139.575 65.2971C139.575 65.2971 137.487 68.0905 137.487 69.6619C137.487 71.2332 136.791 85.2004 136.791 85.2004C136.791 85.2004 132.963 103.009 134.007 104.056C135.051 105.104 138.183 106.675 138.705 106.151C139.227 105.627 142.881 86.5971 142.881 86.5971L147.232 74.8996L151.234 91.6603C151.234 91.6603 151.06 106.151 151.756 106.326C152.452 106.5 152.8 106.675 152.452 107.373C152.104 108.072 151.582 109.468 151.582 109.468C151.582 109.468 155.932 110.516 156.802 109.818C157.672 109.119 157.846 92.184 156.802 86.2479C155.758 80.3119 156.976 66.6938 156.976 66.6938L139.575 65.2971Z" fill="#2F2E41"/>
<path d="M145.926 31.5138C148.809 31.5138 151.146 29.1688 151.146 26.2761C151.146 23.3834 148.809 21.0384 145.926 21.0384C143.043 21.0384 140.706 23.3834 140.706 26.2761C140.706 29.1688 143.043 31.5138 145.926 31.5138Z" fill="#A0616A"/>
<path d="M144.36 29.5933C144.36 29.5933 145.056 33.2598 144.36 34.3073C143.664 35.3548 153.757 34.6565 153.757 34.6565C153.757 34.6565 148.885 29.0696 149.407 28.022C149.929 26.9745 144.36 29.5933 144.36 29.5933Z" fill="#A0616A"/>
<path d="M139.923 35.6167C139.923 35.6167 143.403 31.0774 147.753 31.9503C148.928 32.186 150.001 32.4217 150.941 32.6402C154.256 33.4101 157.012 35.7803 158.145 38.9994C158.438 39.8341 158.585 40.6362 158.455 41.2909C157.933 43.9097 158.194 64.5987 158.194 64.5987C158.194 64.5987 156.802 65.1225 156.976 65.8208C157.15 66.5192 158.368 67.3922 157.15 67.3922C155.932 67.3922 137.487 66.6938 137.835 66.17C138.183 65.6462 139.923 35.6167 139.923 35.6167Z" fill="#D0CDE1"/>
<path d="M141.663 35.6167H139.923C139.923 35.6167 138.009 37.0134 138.183 38.5847C138.357 40.1561 135.051 53.7741 135.051 55.52C135.051 57.2659 134.355 57.7897 134.355 58.8373C134.355 59.8848 134.703 60.5832 134.355 61.1069C134.007 61.6307 133.311 64.7733 133.485 65.9955C133.586 66.8071 133.586 67.6282 133.485 68.4397H137.835C137.835 68.4397 140.967 57.7897 141.663 57.2659C142.359 56.7422 142.707 55.8692 142.707 55.3454C142.707 54.8217 142.359 54.8217 143.229 54.1233C144.099 53.4249 143.577 50.2823 143.577 50.2823L144.795 47.1397L141.663 35.6167Z" fill="#D0CDE1"/>
<path opacity="0.1" d="M139.126 65.9397L144.36 54.3851L141.744 66.6735L139.126 65.9397Z" fill="black"/>
<path d="M144.105 18.3554L144.108 17.9232C144.468 17.8773 144.832 17.8901 145.188 17.9612C145.192 17.7003 145.138 17.4418 145.03 17.2044C145.388 17.2517 145.737 17.3558 146.063 17.5128L146.183 16.71L149.299 17.8059C150.418 18.1993 151.6 18.6373 152.327 19.5776C153.136 20.6258 153.195 22.0925 152.884 23.3814C152.573 24.6703 151.941 25.8545 151.469 27.0932C151.297 27.6221 151.076 28.1334 150.807 28.6202C149.865 30.1438 147.739 30.6875 146.072 30.0402C145.457 29.8013 144.876 29.403 144.565 28.8199C144.405 28.4582 144.269 28.0863 144.158 27.7068C143.869 26.937 143.446 25.3266 142.743 24.9029C142.434 24.7165 141.962 25.5169 141.695 25.2735C141.008 24.6479 141.004 23.5546 141.276 22.6649C141.532 21.7734 141.852 20.9017 142.233 20.0564C142.397 19.7154 144.106 18.3036 144.105 18.3554Z" fill="#2F2E41"/>
</g>
<defs>
<clipPath id="clip0">
<rect width="161" height="120" fill="white" transform="translate(0.5)"/>
</clipPath>
</defs>
</svg>
