<svg width="161" height="98" viewBox="0 0 161 98" fill="none" xmlns="http://www.w3.org/2000/svg">
<path d="M134.947 98C147.986 98 158.556 96.0569 158.556 93.66C158.556 91.2631 147.986 89.32 134.947 89.32C121.908 89.32 111.338 91.2631 111.338 93.66C111.338 96.0569 121.908 98 134.947 98Z" fill="#3F3D56"/>
<path d="M83.8181 73.22C102.335 73.22 117.345 58.1768 117.345 39.62C117.345 21.0632 102.335 6.01999 83.8181 6.01999C65.3014 6.01999 50.2908 21.0632 50.2908 39.62C50.2908 58.1768 65.3014 73.22 83.8181 73.22Z" fill="#F2F2F2"/>
<path d="M86.1929 73.64C85.8054 73.64 85.4138 73.6338 85.0295 73.6218L85.0383 73.3421C85.5901 73.3593 86.1532 73.3641 86.7077 73.3564L86.7115 73.6364C86.5389 73.6387 86.3661 73.6399 86.1929 73.64ZM88.3925 73.575L88.3761 73.2956C88.9288 73.2629 89.4885 73.217 90.0398 73.1591L90.069 73.4375C89.5135 73.4959 88.9495 73.5422 88.3925 73.575ZM83.35 73.5314C82.7927 73.4886 82.2296 73.4326 81.6761 73.3645L81.7102 73.0867C82.2595 73.1541 82.8183 73.2099 83.3713 73.2522L83.35 73.5314ZM91.7373 73.2235L91.6954 72.9468C92.2445 72.8633 92.7979 72.7663 93.3396 72.6585L93.394 72.933C92.8481 73.0417 92.2906 73.1395 91.7373 73.2235ZM80.0118 73.1211C79.4613 73.0276 78.9056 72.9202 78.3602 72.8015L78.4194 72.5278C78.9607 72.6456 79.5121 72.7523 80.0585 72.845L80.0118 73.1211ZM95.036 72.5665L94.9689 72.2947C95.5079 72.1611 96.0499 72.0134 96.5799 71.8559L96.6593 72.1245C96.1252 72.2832 95.5791 72.4319 95.036 72.5665ZM76.7251 72.406C76.185 72.262 75.6416 72.1037 75.1098 71.9351L75.194 71.6682C75.7217 71.8354 76.261 71.9925 76.7968 72.1352L76.7251 72.406ZM98.2605 71.6078L98.1688 71.3434C98.6919 71.1611 99.2179 70.9641 99.7326 70.7577L99.8363 71.0177C99.3178 71.2257 98.7876 71.4242 98.2605 71.6078ZM73.5138 71.3885C72.9893 71.1953 72.4616 70.9868 71.9454 70.7689L72.0538 70.5108C72.5661 70.7271 73.0897 70.9339 73.6103 71.1257L73.5138 71.3885ZM101.38 70.3569L101.264 70.1021C101.766 69.8734 102.271 69.6292 102.765 69.3764L102.892 69.6258C102.395 69.8805 101.886 70.1264 101.38 70.3569ZM70.4075 70.0778C69.9034 69.837 69.3973 69.5809 68.9036 69.3165L69.0352 69.0696C69.5253 69.332 70.0274 69.5861 70.5277 69.8251L70.4075 70.0778ZM104.369 68.8256L104.231 68.5825C104.712 68.307 105.193 68.0174 105.66 67.7217L105.809 67.9582C105.339 68.2563 104.855 68.5482 104.369 68.8256V68.8256ZM67.4366 68.487C66.957 68.2012 66.4768 67.8997 66.0094 67.5911L66.1631 67.3573C66.627 67.6636 67.1035 67.9627 67.5794 68.2464L67.4366 68.487ZM107.208 67.0255L107.048 66.7961C107.502 66.4785 107.955 66.1459 108.394 65.8076L108.564 66.0297C108.122 66.3705 107.665 66.7056 107.208 67.0255H107.208ZM64.625 66.6312C64.174 66.303 63.7236 65.9591 63.286 65.609L63.4603 65.3902C63.8946 65.7376 64.3416 66.0789 64.7891 66.4045L64.625 66.6312ZM109.873 64.9728L109.693 64.7587C110.116 64.4012 110.537 64.0286 110.944 63.6513L111.133 63.8569C110.723 64.2371 110.299 64.6126 109.873 64.9728ZM61.9952 64.5269C61.5752 64.1583 61.1579 63.7749 60.7551 63.3873L60.9485 63.1852C61.3484 63.57 61.7624 63.9504 62.1792 64.3163L61.9952 64.5269ZM112.342 62.6843L112.143 62.4877C112.533 62.0919 112.918 61.6823 113.289 61.2704L113.496 61.4577C113.123 61.8729 112.735 62.2855 112.342 62.6843ZM59.5683 62.1927C59.183 61.7866 58.8024 61.3669 58.4372 60.9452L58.6483 60.7618C59.0107 61.1803 59.3883 61.5967 59.7708 61.9996L59.5683 62.1927ZM114.594 60.1795L114.378 60.0017C114.73 59.5723 115.077 59.1292 115.409 58.6845L115.633 58.8521C115.298 59.3002 114.949 59.7469 114.594 60.1795ZM57.3642 59.6479C57.0182 59.2097 56.6775 58.7573 56.3515 58.3033L56.5782 58.1398C56.9017 58.5903 57.2399 59.0392 57.5833 59.4743L57.3642 59.6479ZM116.61 57.4783L116.379 57.3211C116.69 56.8613 116.995 56.3881 117.285 55.9144L117.524 56.061C117.231 56.5382 116.924 57.0151 116.61 57.4783ZM55.4013 56.9142C55.0969 56.4465 54.7989 55.9653 54.5156 55.4835L54.7563 55.3413C55.0374 55.8194 55.3331 56.2971 55.6353 56.7611L55.4013 56.9142ZM118.372 54.6027L118.127 54.4674C118.396 53.9809 118.656 53.4813 118.902 52.9825L119.153 53.1066C118.905 53.6092 118.642 54.1126 118.372 54.6027ZM53.6963 54.014C53.4358 53.5205 53.1831 53.014 52.9454 52.509L53.1981 52.3895C53.434 52.8907 53.6847 53.3933 53.9433 53.883L53.6963 54.014ZM119.864 51.5758L119.608 51.4634C119.831 50.9538 120.044 50.432 120.244 49.9124L120.504 50.0128C120.304 50.5364 120.088 51.0622 119.864 51.5758H119.864ZM52.2643 50.9716C52.0501 50.4564 51.845 49.9294 51.6547 49.4049L51.9173 49.3092C52.1061 49.8297 52.3097 50.3527 52.5222 50.8639L52.2643 50.9716ZM121.072 48.4214L120.807 48.3333C120.981 47.8068 121.146 47.2687 121.296 46.7337L121.565 46.8095C121.414 47.3486 121.248 47.8909 121.072 48.4214ZM51.1165 47.8078C50.9503 47.2742 50.7941 46.7291 50.6523 46.1874L50.9225 46.1163C51.0632 46.6539 51.2183 47.1949 51.3832 47.7244L51.1165 47.8078ZM121.983 45.1765L121.711 45.1131C121.836 44.5734 121.95 44.0223 122.051 43.4753L122.325 43.5259C122.224 44.0773 122.109 44.6325 121.983 45.1765ZM50.2632 44.5473C50.1467 44.0005 50.0412 43.4433 49.9498 42.8911L50.2254 42.8452C50.3162 43.3933 50.4208 43.9462 50.5365 44.4888L50.2632 44.5473ZM122.592 41.8616L122.315 41.8236C122.39 41.2752 122.453 40.7161 122.503 40.1615L122.782 40.1867C122.731 40.7456 122.667 41.309 122.592 41.8616ZM49.7126 41.2223C49.6467 40.6681 49.5926 40.1036 49.5518 39.5445L49.8305 39.524C49.8709 40.0789 49.9247 40.6391 49.9901 41.1892L49.7126 41.2223ZM122.895 38.505L122.616 38.4925C122.641 37.9377 122.654 37.3749 122.654 36.82H122.933C122.933 37.3792 122.921 37.9461 122.895 38.505ZM49.4671 37.8608C49.4575 37.5175 49.4527 37.1672 49.4526 36.82C49.4526 36.6045 49.4545 36.3895 49.4582 36.1748L49.7376 36.1797C49.7339 36.3927 49.732 36.6062 49.732 36.82C49.7321 37.1646 49.7369 37.5123 49.7464 37.8532L49.4671 37.8608ZM122.652 36.4294C122.646 35.8742 122.628 35.3116 122.597 34.7569L122.876 34.7413C122.907 35.3002 122.925 35.8671 122.931 36.4264L122.652 36.4294ZM49.8039 34.5081L49.525 34.4906C49.5599 33.9312 49.608 33.3661 49.668 32.8111L49.9457 32.8413C49.8862 33.3921 49.8385 33.9529 49.8039 34.5081ZM122.466 33.0893C122.41 32.5373 122.341 31.9788 122.26 31.4292L122.536 31.3883C122.618 31.9421 122.688 32.5048 122.744 33.061L122.466 33.0893ZM50.1633 31.1827L49.8871 31.1399C49.9728 30.586 50.0722 30.0277 50.1828 29.4804L50.4566 29.5359C50.3469 30.0791 50.2482 30.6331 50.1633 31.1827ZM121.978 29.7805C121.871 29.2344 121.751 28.6845 121.62 28.1464L121.892 28.0802C122.024 28.6225 122.145 29.1765 122.252 29.7268L121.978 29.7805ZM50.8251 27.9044L50.5541 27.8363C50.6897 27.294 50.84 26.7472 51.0007 26.211L51.2682 26.2915C51.1088 26.8236 50.9597 27.3662 50.8251 27.9044ZM121.188 26.5305C121.032 25.9973 120.862 25.4611 120.682 24.9363L120.946 24.8453C121.128 25.374 121.299 25.9145 121.456 26.4517L121.188 26.5305ZM51.7868 24.6965L51.5233 24.6036C51.7089 24.0743 51.9094 23.5425 52.1191 23.0229L52.3782 23.1279C52.17 23.6434 51.9711 24.1712 51.7868 24.6965H51.7868ZM120.103 23.3672C119.899 22.8519 119.681 22.3348 119.454 21.8301L119.709 21.7151C119.938 22.2237 120.158 22.7448 120.363 23.264L120.103 23.3672ZM53.0408 21.5888L52.787 21.4719C53.0203 20.9627 53.2687 20.4519 53.5251 19.954L53.7734 20.0824C53.5189 20.5766 53.2724 21.0834 53.0408 21.5888ZM118.736 20.3238C118.486 19.8295 118.221 19.3342 117.948 18.8518L118.192 18.7138C118.466 19.2 118.733 19.6991 118.985 20.1972L118.736 20.3238ZM54.5743 18.6117L54.3321 18.472C54.6109 17.987 54.9048 17.5015 55.2058 17.0291L55.4413 17.1798C55.1426 17.6486 54.8508 18.1304 54.5743 18.6117ZM117.094 17.4168C116.799 16.9458 116.49 16.4766 116.176 16.0221L116.405 15.8626C116.722 16.3205 117.034 16.7933 117.331 17.2679L117.094 17.4168ZM56.3726 15.7895L56.1442 15.6282C56.4663 15.1704 56.8031 14.7141 57.1454 14.2719L57.3661 14.4435C57.0265 14.8824 56.6922 15.3352 56.3726 15.7895ZM115.194 14.6706C114.857 14.2287 114.507 13.7893 114.152 13.3648L114.366 13.1849C114.723 13.6127 115.077 14.0554 115.416 14.5007L115.194 14.6706ZM58.4196 13.1447L58.207 12.9632C58.5684 12.5377 58.9451 12.1142 59.3267 11.7045L59.5309 11.8955C59.1523 12.3021 58.7784 12.7225 58.4196 13.1447ZM113.051 12.1076C112.676 11.6982 112.286 11.2924 111.894 10.9017L112.091 10.703C112.486 11.0968 112.878 11.5056 113.257 11.9181L113.051 12.1076ZM60.6974 10.6987L60.502 10.4985C60.9015 10.1068 61.3149 9.71953 61.7307 9.34753L61.9168 9.55643C61.5042 9.92557 61.0939 10.3099 60.6974 10.6987ZM110.683 9.74948C110.272 9.37562 109.847 9.00689 109.421 8.65354L109.599 8.4378C110.029 8.79382 110.457 9.16535 110.871 9.54208L110.683 9.74948ZM63.1865 8.47102L63.0101 8.25391C63.4423 7.90125 63.8888 7.55344 64.3375 7.22012L64.504 7.44502C64.0586 7.77587 63.6154 8.12102 63.1865 8.47102V8.47102ZM108.111 7.61605C107.667 7.28116 107.21 6.95256 106.753 6.6394L106.911 6.40835C107.371 6.72383 107.831 7.05489 108.279 7.39238L108.111 7.61605ZM65.8662 6.48059L65.7103 6.24831C66.1728 5.93645 66.6489 5.63109 67.1255 5.34049L67.2706 5.57975C66.7977 5.86809 66.3252 6.1712 65.8662 6.48059ZM105.353 5.72584C104.881 5.43298 104.396 5.14752 103.912 4.87722L104.048 4.63263C104.536 4.90497 105.024 5.1927 105.5 5.48767L105.353 5.72584ZM68.7143 4.7444L68.5802 4.49872C69.0695 4.23041 69.5712 3.97009 70.0713 3.72489L70.1941 3.97645C69.6978 4.21975 69.1999 4.47808 68.7143 4.74441V4.7444ZM102.433 4.09567C101.936 3.84745 101.427 3.60765 100.919 3.38295L101.032 3.12688C101.544 3.35329 102.057 3.59494 102.558 3.84506L102.433 4.09567ZM71.7069 3.27748L71.5958 3.02058C72.1072 2.79848 72.6302 2.58547 73.1504 2.38743L73.2496 2.64925C72.7333 2.84572 72.2143 3.05709 71.7069 3.27748V3.27748ZM99.3741 2.74065C98.8568 2.53961 98.3273 2.34779 97.8003 2.1706L97.8893 1.90509C98.4202 2.08372 98.9538 2.27697 99.4751 2.47965L99.3741 2.74065ZM74.8233 2.09151L74.7363 1.82545C75.2673 1.651 75.809 1.48673 76.3464 1.33737L76.421 1.60711C75.8878 1.75539 75.3502 1.91836 74.8233 2.09152V2.09151ZM96.2058 1.6752C95.673 1.52297 95.1295 1.38119 94.5905 1.25383L94.6546 0.981354C95.1978 1.10966 95.7454 1.25253 96.2825 1.40586L96.2058 1.6752ZM78.0394 1.19703L77.9772 0.924075C78.5215 0.799456 79.076 0.68591 79.6252 0.586653L79.6749 0.862141C79.1298 0.960715 78.5796 1.07337 78.0394 1.19703ZM92.9573 0.907668C92.4133 0.805328 91.8591 0.71428 91.3102 0.637033L91.3489 0.359767C91.9021 0.437629 92.4606 0.529367 93.0089 0.632453L92.9573 0.907668ZM81.324 0.60299L81.287 0.325451C81.8401 0.251487 82.4026 0.18928 82.9588 0.140744L82.9831 0.419651C82.4311 0.467913 81.873 0.529572 81.324 0.60299ZM89.6522 0.442346C89.1019 0.390392 88.5417 0.350334 87.9872 0.323469L88.0008 0.0437425C88.5595 0.0708815 89.1239 0.111213 89.6784 0.163583L89.6522 0.442346ZM84.649 0.312258L84.6373 0.032538C85.1508 0.0110732 85.6741 0.0001372 86.1929 0L86.3194 0.00020401L86.3186 0.280204L86.1929 0.279992C85.6781 0.280132 85.1586 0.290998 84.649 0.312258Z" fill="#3F3D56"/>
<path d="M43.3852 18.689C42.2142 23.027 38.2034 25.7136 38.2034 25.7136C38.2034 25.7136 36.0911 21.3669 37.2621 17.029C38.433 12.691 42.4439 10.0044 42.4439 10.0044C42.4439 10.0044 44.5562 14.351 43.3852 18.689Z" fill="#73B9FF"/>
<path d="M32.7328 18.689C33.9037 23.027 37.9145 25.7136 37.9145 25.7136C37.9145 25.7136 40.0268 21.3669 38.8559 17.029C37.6849 12.691 33.6741 10.0044 33.6741 10.0044C33.6741 10.0044 31.5618 14.351 32.7328 18.689Z" fill="#73B9FF"/>
<path d="M34.4533 17.7567C37.6665 20.8914 38.0589 25.7101 38.0589 25.7101C38.0589 25.7101 33.2418 25.4465 30.0287 22.3118C26.8156 19.1772 26.4231 14.3585 26.4231 14.3585C26.4231 14.3585 31.2402 14.6221 34.4533 17.7567Z" fill="#3F3D56"/>
<path d="M41.6647 17.7567C38.4515 20.8914 38.0591 25.7101 38.0591 25.7101C38.0591 25.7101 42.8762 25.4465 46.0893 22.3118C49.3025 19.1772 49.6949 14.3585 49.6949 14.3585C49.6949 14.3585 44.8778 14.6221 41.6647 17.7567Z" fill="#3F3D56"/>
<path d="M93.3041 43.8655H3.99731V87.8593H93.3041V43.8655Z" fill="#73B9FF"/>
<path d="M19.418 54.18H18.5798V54.46H19.418V54.18Z" fill="white"/>
<path d="M83.6642 54.46H81.9736V54.18H83.6642V54.46ZM80.2829 54.46H78.5922V54.18H80.2829V54.46ZM76.9015 54.46H75.2108V54.18H76.9015V54.46ZM73.5201 54.46H71.8294V54.18H73.5201V54.46ZM70.1387 54.46H68.448V54.18H70.1387V54.46ZM66.7573 54.46H65.0666V54.18H66.7573L66.7573 54.46ZM63.3759 54.46H61.6852V54.18H63.3759L63.3759 54.46ZM59.9945 54.46H58.3039V54.18H59.9945L59.9945 54.46ZM56.6132 54.46H54.9225V54.18H56.6132L56.6132 54.46ZM53.2318 54.46H51.5411V54.18H53.2318V54.46ZM49.8504 54.46H48.1597V54.18H49.8504L49.8504 54.46ZM46.469 54.46H44.7783V54.18H46.469L46.469 54.46ZM43.0877 54.46H41.397V54.18H43.0877V54.46ZM39.7063 54.46H38.0156V54.18H39.7063V54.46ZM36.3248 54.46H34.6341V54.18H36.3248L36.3248 54.46ZM32.9435 54.46H31.2528V54.18H32.9435L32.9435 54.46ZM29.5621 54.46H27.8714V54.18H29.5621V54.46ZM26.1807 54.46H24.49V54.18H26.1807L26.1807 54.46ZM22.7993 54.46H21.1086V54.18H22.7993L22.7993 54.46Z" fill="white"/>
<path d="M86.1932 54.18H85.355V54.46H86.1932V54.18Z" fill="white"/>
<path d="M19.418 60.06H18.5798V60.34H19.418V60.06Z" fill="white"/>
<path d="M83.6642 60.34H81.9736V60.06H83.6642V60.34ZM80.2829 60.34H78.5922V60.06H80.2829V60.34ZM76.9015 60.34H75.2108V60.06H76.9015V60.34ZM73.5201 60.34H71.8294V60.06H73.5201V60.34ZM70.1387 60.34H68.448V60.06H70.1387V60.34ZM66.7573 60.34H65.0666V60.06H66.7573L66.7573 60.34ZM63.3759 60.34H61.6852V60.06H63.3759L63.3759 60.34ZM59.9945 60.34H58.3039V60.06H59.9945L59.9945 60.34ZM56.6132 60.34H54.9225V60.06H56.6132L56.6132 60.34ZM53.2318 60.34H51.5411V60.06H53.2318V60.34ZM49.8504 60.34H48.1597V60.06H49.8504L49.8504 60.34ZM46.469 60.34H44.7783V60.06H46.469L46.469 60.34ZM43.0877 60.34H41.397V60.06H43.0877V60.34ZM39.7063 60.34H38.0156V60.06H39.7063V60.34ZM36.3248 60.34H34.6341V60.06H36.3248L36.3248 60.34ZM32.9435 60.34H31.2528V60.06H32.9435L32.9435 60.34ZM29.5621 60.34H27.8714V60.06H29.5621V60.34ZM26.1807 60.34H24.49V60.06H26.1807L26.1807 60.34ZM22.7993 60.34H21.1086V60.06H22.7993L22.7993 60.34Z" fill="white"/>
<path d="M86.1932 60.06H85.355V60.34H86.1932V60.06Z" fill="white"/>
<path d="M19.418 65.94H18.5798V66.22H19.418V65.94Z" fill="white"/>
<path d="M83.6642 66.22H81.9736V65.94H83.6642V66.22ZM80.2829 66.22H78.5922V65.94H80.2829V66.22ZM76.9015 66.22H75.2108V65.94H76.9015V66.22ZM73.5201 66.22H71.8294V65.94H73.5201V66.22ZM70.1387 66.22H68.448V65.94H70.1387V66.22ZM66.7573 66.22H65.0666V65.94H66.7573L66.7573 66.22ZM63.3759 66.22H61.6852V65.94H63.3759L63.3759 66.22ZM59.9945 66.22H58.3039V65.94H59.9945L59.9945 66.22ZM56.6132 66.22H54.9225V65.94H56.6132L56.6132 66.22ZM53.2318 66.22H51.5411V65.94H53.2318V66.22ZM49.8504 66.22H48.1597V65.94H49.8504L49.8504 66.22ZM46.469 66.22H44.7783V65.94H46.469L46.469 66.22ZM43.0877 66.22H41.397V65.94H43.0877V66.22ZM39.7063 66.22H38.0156V65.94H39.7063V66.22ZM36.3248 66.22H34.6341V65.94H36.3248L36.3248 66.22ZM32.9435 66.22H31.2528V65.94H32.9435L32.9435 66.22ZM29.5621 66.22H27.8714V65.94H29.5621V66.22ZM26.1807 66.22H24.49V65.94H26.1807L26.1807 66.22ZM22.7993 66.22H21.1086V65.94H22.7993L22.7993 66.22Z" fill="white"/>
<path d="M86.1932 65.94H85.355V66.22H86.1932V65.94Z" fill="white"/>
<path d="M19.418 71.82H18.5798V72.1H19.418V71.82Z" fill="white"/>
<path d="M83.6642 72.1H81.9736V71.82H83.6642V72.1ZM80.2829 72.1H78.5922V71.82H80.2829V72.1ZM76.9015 72.1H75.2108V71.82H76.9015V72.1ZM73.5201 72.1H71.8294V71.82H73.5201V72.1ZM70.1387 72.1H68.448V71.82H70.1387V72.1ZM66.7573 72.1H65.0666V71.82H66.7573L66.7573 72.1ZM63.3759 72.1H61.6852V71.82H63.3759L63.3759 72.1ZM59.9945 72.1H58.3039V71.82H59.9945L59.9945 72.1ZM56.6132 72.1H54.9225V71.82H56.6132L56.6132 72.1ZM53.2318 72.1H51.5411V71.82H53.2318V72.1ZM49.8504 72.1H48.1597V71.82H49.8504L49.8504 72.1ZM46.469 72.1H44.7783V71.82H46.469L46.469 72.1ZM43.0877 72.1H41.397V71.82H43.0877V72.1ZM39.7063 72.1H38.0156V71.82H39.7063V72.1ZM36.3248 72.1H34.6341V71.82H36.3248L36.3248 72.1ZM32.9435 72.1H31.2528V71.82H32.9435L32.9435 72.1ZM29.5621 72.1H27.8714V71.82H29.5621V72.1ZM26.1807 72.1H24.49V71.82H26.1807L26.1807 72.1ZM22.7993 72.1H21.1086V71.82H22.7993L22.7993 72.1Z" fill="white"/>
<path d="M86.1932 71.82H85.355V72.1H86.1932V71.82Z" fill="white"/>
<path d="M19.418 77.7H18.5798V77.98H19.418V77.7Z" fill="white"/>
<path d="M83.6642 77.98H81.9736V77.7H83.6642V77.98ZM80.2829 77.98H78.5922V77.7H80.2829V77.98ZM76.9015 77.98H75.2108V77.7H76.9015V77.98ZM73.5201 77.98H71.8294V77.7H73.5201V77.98ZM70.1387 77.98H68.448V77.7H70.1387V77.98ZM66.7573 77.98H65.0666V77.7H66.7573L66.7573 77.98ZM63.3759 77.98H61.6852V77.7H63.3759L63.3759 77.98ZM59.9945 77.98H58.3039V77.7H59.9945L59.9945 77.98ZM56.6132 77.98H54.9225V77.7H56.6132L56.6132 77.98ZM53.2318 77.98H51.5411V77.7H53.2318V77.98ZM49.8504 77.98H48.1597V77.7H49.8504L49.8504 77.98ZM46.469 77.98H44.7783V77.7H46.469L46.469 77.98ZM43.0877 77.98H41.397V77.7H43.0877V77.98ZM39.7063 77.98H38.0156V77.7H39.7063V77.98ZM36.3248 77.98H34.6341V77.7H36.3248L36.3248 77.98ZM32.9435 77.98H31.2528V77.7H32.9435L32.9435 77.98ZM29.5621 77.98H27.8714V77.7H29.5621V77.98ZM26.1807 77.98H24.49V77.7H26.1807L26.1807 77.98ZM22.7993 77.98H21.1086V77.7H22.7993L22.7993 77.98Z" fill="white"/>
<path d="M86.1932 77.7H85.355V77.98H86.1932V77.7Z" fill="white"/>
<path d="M18.8591 79.8C19.9392 79.8 20.8148 78.9225 20.8148 77.84C20.8148 76.7575 19.9392 75.88 18.8591 75.88C17.7789 75.88 16.9033 76.7575 16.9033 77.84C16.9033 78.9225 17.7789 79.8 18.8591 79.8Z" fill="#3F3D56"/>
<path d="M31.9907 73.92C33.0708 73.92 33.9464 73.0425 33.9464 71.96C33.9464 70.8775 33.0708 70 31.9907 70C30.9105 70 30.0349 70.8775 30.0349 71.96C30.0349 73.0425 30.9105 73.92 31.9907 73.92Z" fill="#3F3D56"/>
<path d="M45.5412 68.04C46.6213 68.04 47.497 67.1625 47.497 66.08C47.497 64.9975 46.6213 64.12 45.5412 64.12C44.4611 64.12 43.5854 64.9975 43.5854 66.08C43.5854 67.1625 44.4611 68.04 45.5412 68.04Z" fill="#3F3D56"/>
<path d="M58.9521 62.16C60.0322 62.16 60.9079 61.2825 60.9079 60.2C60.9079 59.1175 60.0322 58.24 58.9521 58.24C57.872 58.24 56.9963 59.1175 56.9963 60.2C56.9963 61.2825 57.872 62.16 58.9521 62.16Z" fill="#3F3D56"/>
<path d="M69.1501 67.76C70.2302 67.76 71.1059 66.8825 71.1059 65.8C71.1059 64.7175 70.2302 63.84 69.1501 63.84C68.07 63.84 67.1943 64.7175 67.1943 65.8C67.1943 66.8825 68.07 67.76 69.1501 67.76Z" fill="#3F3D56"/>
<path d="M79.4875 56.28C80.5676 56.28 81.4433 55.4025 81.4433 54.32C81.4433 53.2375 80.5676 52.36 79.4875 52.36C78.4074 52.36 77.5317 53.2375 77.5317 54.32C77.5317 55.4025 78.4074 56.28 79.4875 56.28Z" fill="#3F3D56"/>
<path d="M12.1538 55.58C12.8481 55.58 13.411 55.0159 13.411 54.32C13.411 53.6241 12.8481 53.06 12.1538 53.06C11.4594 53.06 10.8965 53.6241 10.8965 54.32C10.8965 55.0159 11.4594 55.58 12.1538 55.58Z" fill="white"/>
<path d="M12.1538 61.46C12.8481 61.46 13.411 60.8959 13.411 60.2C13.411 59.5041 12.8481 58.94 12.1538 58.94C11.4594 58.94 10.8965 59.5041 10.8965 60.2C10.8965 60.8959 11.4594 61.46 12.1538 61.46Z" fill="white"/>
<path d="M12.1538 67.34C12.8481 67.34 13.411 66.7759 13.411 66.08C13.411 65.3841 12.8481 64.82 12.1538 64.82C11.4594 64.82 10.8965 65.3841 10.8965 66.08C10.8965 66.7759 11.4594 67.34 12.1538 67.34Z" fill="white"/>
<path d="M12.1538 73.22C12.8481 73.22 13.411 72.6559 13.411 71.96C13.411 71.2641 12.8481 70.7 12.1538 70.7C11.4594 70.7 10.8965 71.2641 10.8965 71.96C10.8965 72.6559 11.4594 73.22 12.1538 73.22Z" fill="white"/>
<path d="M12.1538 79.1C12.8481 79.1 13.411 78.5359 13.411 77.84C13.411 77.1441 12.8481 76.58 12.1538 76.58C11.4594 76.58 10.8965 77.1441 10.8965 77.84C10.8965 78.5359 11.4594 79.1 12.1538 79.1Z" fill="white"/>
<path d="M79.6273 51.1H79.3479V25.9H90.9428V26.18H79.6273V51.1Z" fill="#3F3D56"/>
<path d="M85.774 36.54C87.7799 36.54 89.4061 34.9103 89.4061 32.9C89.4061 30.8897 87.7799 29.26 85.774 29.26C83.768 29.26 82.1418 30.8897 82.1418 32.9C82.1418 34.9103 83.768 36.54 85.774 36.54Z" fill="white"/>
<path d="M86.193 36.82C85.2812 36.82 84.3899 36.5491 83.6318 36.0414C82.8737 35.5338 82.2828 34.8122 81.9339 33.968C81.585 33.1238 81.4937 32.1949 81.6716 31.2987C81.8495 30.4025 82.2885 29.5793 82.9332 28.9332C83.578 28.2871 84.3994 27.8471 85.2936 27.6688C86.1879 27.4905 87.1148 27.582 87.9572 27.9317C88.7995 28.2814 89.5195 28.8735 90.0261 29.6333C90.5326 30.393 90.803 31.2863 90.803 32.2C90.8016 33.4249 90.3155 34.5992 89.4512 35.4653C88.587 36.3314 87.4152 36.8186 86.193 36.82ZM86.193 27.86C85.3365 27.86 84.4992 28.1146 83.7871 28.5914C83.0749 29.0683 82.5198 29.7461 82.1921 30.5392C81.8643 31.3322 81.7785 32.2048 81.9456 33.0467C82.1127 33.8886 82.5252 34.6619 83.1308 35.2689C83.7365 35.8758 84.5081 36.2892 85.3482 36.4566C86.1882 36.6241 87.0589 36.5381 87.8503 36.2097C88.6416 35.8812 89.3179 35.3249 89.7938 34.6112C90.2696 33.8975 90.5236 33.0584 90.5236 32.2C90.5223 31.0494 90.0656 29.9462 89.2538 29.1326C88.4419 28.319 87.3412 27.8613 86.193 27.86Z" fill="#3F3D56"/>
<path d="M32.1302 68.04H31.8508V25.34H43.4457V25.62H32.1302V68.04Z" fill="#3F3D56"/>
<path d="M38.2769 35.98C40.2829 35.98 41.909 34.3503 41.909 32.34C41.909 30.3297 40.2829 28.7 38.2769 28.7C36.2709 28.7 34.6448 30.3297 34.6448 32.34C34.6448 34.3503 36.2709 35.98 38.2769 35.98Z" fill="#F2F2F2"/>
<path d="M38.6962 36.26C37.7844 36.26 36.8931 35.989 36.135 35.4814C35.3769 34.9737 34.786 34.2522 34.4371 33.408C34.0882 32.5638 33.9969 31.6349 34.1748 30.7387C34.3526 29.8425 34.7917 29.0193 35.4364 28.3732C36.0811 27.727 36.9026 27.287 37.7968 27.1088C38.6911 26.9305 39.618 27.022 40.4603 27.3717C41.3027 27.7213 42.0227 28.3135 42.5292 29.0733C43.0358 29.833 43.3062 30.7262 43.3062 31.64C43.3048 32.8649 42.8187 34.0392 41.9544 34.9053C41.0902 35.7714 39.9184 36.2586 38.6962 36.26ZM38.6962 27.3C37.8397 27.3 37.0024 27.5545 36.2902 28.0314C35.5781 28.5083 35.023 29.1861 34.6952 29.9791C34.3675 30.7722 34.2817 31.6448 34.4488 32.4867C34.6159 33.3286 35.0283 34.1019 35.634 34.7088C36.2396 35.3158 37.0113 35.7291 37.8513 35.8966C38.6914 36.0641 39.5621 35.9781 40.3534 35.6496C41.1447 35.3211 41.8211 34.7649 42.2969 34.0512C42.7728 33.3375 43.0268 32.4984 43.0268 31.64C43.0255 30.4893 42.5688 29.3862 41.7569 28.5726C40.9451 27.759 39.8443 27.3013 38.6962 27.3Z" fill="#3F3D56"/>
<path d="M20.0465 72.59H19.7671V30.17H8.45166V29.89H20.0465V72.59Z" fill="#3F3D56"/>
<path d="M13.6204 40.53C15.6264 40.53 17.2525 38.9003 17.2525 36.89C17.2525 34.8797 15.6264 33.25 13.6204 33.25C11.6144 33.25 9.98828 34.8797 9.98828 36.89C9.98828 38.9003 11.6144 40.53 13.6204 40.53Z" fill="#F2F2F2"/>
<path d="M13.2013 40.81C12.2895 40.81 11.3982 40.539 10.6401 40.0314C9.88202 39.5237 9.29115 38.8022 8.94223 37.958C8.59331 37.1138 8.50201 36.1849 8.67989 35.2887C8.85777 34.3925 9.29683 33.5693 9.94155 32.9231C10.5863 32.277 11.4077 31.837 12.3019 31.6588C13.1962 31.4805 14.1231 31.572 14.9655 31.9217C15.8079 32.2713 16.5278 32.8635 17.0344 33.6232C17.5409 34.383 17.8113 35.2762 17.8113 36.19C17.8099 37.4149 17.3238 38.5892 16.4596 39.4553C15.5953 40.3214 14.4235 40.8086 13.2013 40.81ZM13.2013 31.85C12.3448 31.85 11.5075 32.1045 10.7954 32.5814C10.0832 33.0583 9.52813 33.7361 9.20035 34.5291C8.87258 35.3222 8.78682 36.1948 8.95392 37.0367C9.12101 37.8785 9.53346 38.6519 10.1391 39.2588C10.7448 39.8658 11.5164 40.2791 12.3565 40.4466C13.1965 40.614 14.0672 40.5281 14.8586 40.1996C15.6499 39.8711 16.3262 39.3149 16.8021 38.6012C17.2779 37.8874 17.5319 37.0483 17.5319 36.19C17.5306 35.0393 17.0739 33.9362 16.2621 33.1226C15.4502 32.309 14.3495 31.8513 13.2013 31.85Z" fill="#3F3D56"/>
<path d="M160.232 87.78H0V88.06H160.232V87.78Z" fill="#3F3D56"/>
<path d="M40.8085 39.4525H35.0385C34.6447 37.1712 34.6447 34.8392 35.0385 32.5579H40.8085C40.1584 34.8099 40.1584 37.2004 40.8085 39.4525Z" fill="#FF6584"/>
<path d="M10.3206 43.2294H16.0905C16.4843 40.9481 16.4843 38.6161 16.0905 36.3348H10.3206C10.9706 38.5868 10.9706 40.9773 10.3206 43.2294Z" fill="#73B9FF"/>
<path d="M82.9631 39.0294H88.7331C89.1269 36.7481 89.1269 34.4161 88.7331 32.1348H82.9631C83.6132 34.3868 83.6132 36.7773 82.9631 39.0294Z" fill="#73B9FF"/>
<path d="M155.812 87.6568C155.788 87.6169 155.213 86.6553 155.014 84.6586C154.831 82.8267 154.948 79.7389 156.546 75.4317C159.574 67.2719 155.849 60.6882 155.811 60.6227L155.994 60.5158C156.004 60.5324 156.965 62.211 157.533 64.8839C158.283 68.4276 158.01 72.1122 156.746 75.5059C153.724 83.6517 155.97 87.5078 155.993 87.5459L155.812 87.6568Z" fill="#3F3D56"/>
<path d="M154.628 60.1435C155.391 60.1435 156.009 59.5241 156.009 58.76C156.009 57.9959 155.391 57.3765 154.628 57.3765C153.866 57.3765 153.248 57.9959 153.248 58.76C153.248 59.5241 153.866 60.1435 154.628 60.1435Z" fill="#3F3D56"/>
<path d="M158.982 65.2519C159.745 65.2519 160.363 64.6325 160.363 63.8684C160.363 63.1043 159.745 62.4849 158.982 62.4849C158.22 62.4849 157.602 63.1043 157.602 63.8684C157.602 64.6325 158.22 65.2519 158.982 65.2519Z" fill="#3F3D56"/>
<path d="M156.009 68.6576C156.771 68.6576 157.389 68.0381 157.389 67.274C157.389 66.5099 156.771 65.8905 156.009 65.8905C155.246 65.8905 154.628 66.5099 154.628 67.274C154.628 68.0381 155.246 68.6576 156.009 68.6576Z" fill="#73B9FF"/>
<path d="M159.619 71.531C160.382 71.531 161 70.9116 161 70.1475C161 69.3834 160.382 68.764 159.619 68.764C158.857 68.764 158.239 69.3834 158.239 70.1475C158.239 70.9116 158.857 71.531 159.619 71.531Z" fill="#73B9FF"/>
<path d="M154.947 76.0009C155.709 76.0009 156.327 75.3815 156.327 74.6174C156.327 73.8533 155.709 73.2339 154.947 73.2339C154.184 73.2339 153.566 73.8533 153.566 74.6174C153.566 75.3815 154.184 76.0009 154.947 76.0009Z" fill="#3F3D56"/>
<path d="M156.646 87.7077C156.646 87.7077 155.265 84.3021 159.407 81.7479L156.646 87.7077Z" fill="#3F3D56"/>
<path d="M154.948 87.646C154.948 87.646 154.32 84.0244 149.457 84.0554L154.948 87.646Z" fill="#3F3D56"/>
<path d="M126.354 30.5068L130.81 24.024C130.81 24.024 134.689 20.9063 133.577 20.2993C132.465 19.6922 129.554 22.5383 129.554 22.5383C129.554 22.5383 121.155 28.9913 122.54 29.8919C123.925 30.7926 126.354 30.5068 126.354 30.5068Z" fill="#A0616A"/>
<path d="M142.003 22.3223C140.269 19.3861 136.839 19.2493 136.839 19.2493C136.839 19.2493 133.496 18.8209 131.352 23.2927C129.353 27.4609 126.594 31.4853 130.907 32.4611L131.687 30.031L132.169 32.642C132.783 32.6863 133.399 32.6968 134.015 32.6736C138.634 32.5241 143.033 32.7173 142.891 31.0562C142.703 28.848 143.672 25.1475 142.003 22.3223Z" fill="#2F2E41"/>
<path d="M132.784 40.4215L130.562 45.5414L138.337 46.7657C138.337 46.7657 142.002 41.7572 142.335 41.4232L132.784 40.4215Z" fill="#A0616A"/>
<path d="M136.449 29.2914C138.718 29.2914 140.558 27.4476 140.558 25.1733C140.558 22.8989 138.718 21.0551 136.449 21.0551C134.179 21.0551 132.34 22.8989 132.34 25.1733C132.34 27.4476 134.179 29.2914 136.449 29.2914Z" fill="#A0616A"/>
<path d="M135.449 28.1784C135.449 28.1784 137.337 32.4079 137.115 32.8531C136.893 33.2983 141.113 30.5157 141.113 30.5157C141.113 30.5157 139.336 27.5106 139.447 27.0654L135.449 28.1784Z" fill="#A0616A"/>
<path d="M141.669 29.9592C141.669 29.9592 145 28.0671 146.888 33.2983C146.888 33.2983 153.108 40.6442 151.997 41.9798C150.887 43.3154 146.666 38.752 146.666 38.752L144.001 35.9695C144.001 35.9695 140.225 34.9678 140.558 32.8531C140.891 30.7383 141.669 29.9592 141.669 29.9592Z" fill="#A0616A"/>
<path d="M133.894 32.5191L126.12 30.2931C126.12 30.2931 122.011 28.6236 122.122 29.6253C122.233 30.627 129.674 36.3034 132.117 35.9695C134.561 35.6356 133.894 32.5191 133.894 32.5191Z" fill="#A0616A"/>
<path d="M138.337 31.74C138.337 31.74 135.782 31.4061 135.227 31.9626C134.672 32.5191 133.617 32.0183 133.617 32.0183L131.84 35.246C131.84 35.246 130.562 37.0825 131.562 38.8633C132.561 40.6441 131.118 42.9815 131.118 42.9815C131.118 42.9815 139.114 42.9815 140.78 43.8719C142.446 44.7623 144.454 36.4424 144.454 36.4424C144.454 36.4424 142.39 33.9104 142.946 32.3522C143.501 30.794 143.168 29.5697 143.168 29.5697L140.724 29.7923L138.337 31.74Z" fill="#D0CDE1"/>
<path d="M128.785 80.9352L129.674 89.5053L133.117 87.7245L132.006 80.2673L128.785 80.9352Z" fill="#A0616A"/>
<path d="M141.78 80.824L144.671 88.5716L147.447 86.5682L144.001 79.043L141.78 80.824Z" fill="#A0616A"/>
<path d="M133.117 84.8307C132.942 85.4579 132.681 86.0574 132.34 86.6116C131.784 87.502 130.452 87.0568 130.452 87.0568C130.452 87.0568 128.897 85.8325 128.564 86.389C128.23 86.9455 126.453 89.728 126.453 89.728C126.453 89.728 120.567 94.6253 125.565 95.4044C130.563 96.1835 131.562 92.5105 131.562 92.5105C131.562 92.5105 135.338 91.1749 135.449 89.8393C135.56 88.5037 133.117 84.8307 133.117 84.8307Z" fill="#2F2E41"/>
<path d="M144.778 86.4533C144.778 86.4533 143.001 85.8968 143.112 86.7872C143.223 87.6776 143.89 91.2393 143.89 91.2393C143.89 91.2393 142.668 96.2478 146.111 95.3574C149.554 94.467 149.665 89.6811 149.665 89.6811C149.665 89.6811 151.442 83.3369 150.109 83.2256C148.776 83.1143 145.556 82.7804 145.556 82.7804C145.556 82.7804 147.555 86.0081 144.778 86.4533Z" fill="#2F2E41"/>
<path d="M141.237 22.0392L137.847 20.2601L133.167 20.988L132.199 25.2741L134.609 25.1811L135.283 23.6065V25.1552L136.395 25.1124L137.04 22.6054L137.444 25.2741L141.398 25.1931L141.237 22.0392Z" fill="#2F2E41"/>
<path d="M139.558 46.4318L130.229 44.3171C130.229 44.3171 125.565 52.3308 124.898 59.0088C124.232 65.6869 121.233 81.7143 126.009 81.9369C130.785 82.1595 133.561 82.1595 133.783 81.7143C134.005 81.2691 131.451 63.6835 131.451 63.6835C131.451 63.6835 136.893 85.2759 139.892 83.829C142.89 82.3821 146.222 80.49 146.111 79.377C146 78.264 138.781 66.466 138.781 66.466L139.78 56.2263C139.78 56.2263 141.002 52.1082 138.892 48.3239L139.558 46.4318Z" fill="#2F2E41"/>
<path d="M132.835 43.6494H138.605C138.999 41.3681 138.999 39.0361 138.605 36.7548H132.835C133.485 39.0068 133.485 41.3973 132.835 43.6494Z" fill="#73B9FF"/>
<path d="M149.665 38.6407L139.892 38.4181C139.892 38.4181 135.56 35.0791 135.449 37.0825C135.338 39.0859 140.003 40.1989 140.003 40.1989C140.003 40.1989 150.03 43.8051 151.569 42.2246L149.665 38.6407Z" fill="#A0616A"/>
</svg>
