<svg width="160" height="109" viewBox="0 0 160 109" fill="none" xmlns="http://www.w3.org/2000/svg">
<path d="M157.763 3.57532e-09H2.23422C1.64182 0.000535169 1.07384 0.234272 0.654959 0.649891C0.236078 1.06551 0.000520362 1.62905 0 2.21681V106.783C0.000519685 107.371 0.236077 107.934 0.654959 108.35C1.07384 108.766 1.64182 108.999 2.23422 109H157.763C158.086 109 158.405 108.93 158.699 108.796C158.992 108.662 159.252 108.466 159.462 108.222C159.48 108.203 159.496 108.183 159.511 108.161C159.644 107.999 159.752 107.818 159.831 107.625C159.943 107.358 160.001 107.072 160 106.783V2.21683C159.999 1.62865 159.763 1.06478 159.344 0.649107C158.925 0.233438 158.356 -3.33601e-05 157.763 3.57532e-09ZM159.362 106.783C159.362 107.092 159.27 107.395 159.098 107.653C158.945 107.879 158.737 108.065 158.493 108.192C158.268 108.307 158.017 108.367 157.763 108.367H2.23422C1.81101 108.366 1.40529 108.199 1.10604 107.903C0.806786 107.606 0.638443 107.203 0.637929 106.783V2.21683C0.638439 1.79693 0.806786 1.39438 1.10604 1.09746C1.40529 0.80055 1.81101 0.633519 2.23422 0.633009H157.763C158.187 0.632955 158.593 0.799727 158.893 1.09669C159.193 1.39365 159.361 1.79652 159.362 2.21683V106.783Z" fill="#3F3D56"/>
<path d="M159.68 8.88486H0.318359V9.51858H159.68V8.88486Z" fill="#3F3D56"/>
<path d="M5.74747 6.65417C6.80574 6.65417 7.66363 5.80298 7.66363 4.75299C7.66363 3.70299 6.80574 2.85181 5.74747 2.85181C4.6892 2.85181 3.8313 3.70299 3.8313 4.75299C3.8313 5.80298 4.6892 6.65417 5.74747 6.65417Z" fill="#3F3D56"/>
<path d="M11.2565 6.65417C12.3148 6.65417 13.1727 5.80298 13.1727 4.75299C13.1727 3.70299 12.3148 2.85181 11.2565 2.85181C10.1982 2.85181 9.34033 3.70299 9.34033 4.75299C9.34033 5.80298 10.1982 6.65417 11.2565 6.65417Z" fill="#3F3D56"/>
<path d="M16.7655 6.65417C17.8238 6.65417 18.6817 5.80298 18.6817 4.75299C18.6817 3.70299 17.8238 2.85181 16.7655 2.85181C15.7073 2.85181 14.8494 3.70299 14.8494 4.75299C14.8494 5.80298 15.7073 6.65417 16.7655 6.65417Z" fill="#3F3D56"/>
<path d="M70.9686 62.7595C69.0522 61.5218 68.099 58.6453 68.5686 56.0146C69.0381 53.384 70.8065 51.1181 72.9264 50.141C73.9576 49.6798 75.0881 49.4801 76.2163 49.5597C77.3446 49.6392 78.4353 49.9956 79.3903 50.5969C81.3343 51.7763 84.0837 52.4223 85.0069 54.782C85.7163 56.5953 84.8165 60.2776 83.8617 62.0389C83.0364 63.5612 81.4682 64.2576 79.9949 64.5601C78.3649 64.8899 76.6825 64.8686 75.0616 64.4975C73.4406 64.1264 71.9189 63.4143 70.5994 62.4092L70.9686 62.7595Z" fill="#2F2E41"/>
<path d="M69.9692 76.7318L68.4369 79.3528L68.2345 79.6985L67.9399 80.207H63.4226L63.7275 79.6985L64.5167 78.3791L66.3564 75.298L68.4395 76.1242L69.9692 76.7318Z" fill="#FFB8B8"/>
<path d="M63.0843 80.2069L62.2592 79.6985L62.1567 79.6349L67.3351 70.2719C67.5578 69.8667 67.8592 69.5093 68.2221 69.2204C68.5849 68.9315 69.0019 68.7169 69.4489 68.589C70.0132 68.4222 70.611 68.4004 71.1861 68.5254C71.5217 68.5957 71.8448 68.7157 72.1444 68.8813C72.2677 68.9484 72.3867 69.0231 72.5005 69.1051C72.9385 69.4097 73.2983 69.8119 73.5511 70.2796C73.852 70.827 74.0006 71.444 73.9817 72.0672C73.9628 72.6905 73.777 73.2975 73.4435 73.8259L71.4475 76.991L69.741 79.6985L69.4207 80.2069H63.0843Z" fill="#2F2E41"/>
<path d="M76.3886 66.0827C79.8642 66.0827 82.6818 63.2872 82.6818 59.8388C82.6818 56.3904 79.8642 53.5948 76.3886 53.5948C72.913 53.5948 70.0955 56.3904 70.0955 59.8388C70.0955 63.2872 72.913 66.0827 76.3886 66.0827Z" fill="#FFB8B8"/>
<path d="M82.7061 80.2068H68.5599L68.624 80.0263C68.588 79.917 68.5547 79.8077 68.524 79.6984C68.4907 79.584 68.4624 79.467 68.4369 79.3526C68.207 78.2884 68.2079 77.1879 68.4394 76.124C69.221 72.3158 72.3392 69.2219 72.3392 69.2219C72.393 69.1812 72.4468 69.1431 72.5006 69.105C72.9645 68.768 73.4678 68.488 73.9996 68.2711C76.3158 67.3178 78.7449 67.7017 80.3769 68.1948C80.9453 68.3654 81.501 68.5752 82.0399 68.8228C82.2294 68.9118 82.332 68.9677 82.332 68.9677L82.4934 73.8513L82.6881 79.6984L82.7061 80.2068Z" fill="#73B9FF"/>
<path d="M89.2501 79.6984L88.1688 74.2428L87.0774 68.7414C87.0318 68.5142 86.9182 68.306 86.7513 68.144C86.5843 67.9821 86.372 67.874 86.142 67.8339L83.8565 67.4424L81.7299 67.0788C81.5248 67.0421 81.3134 67.0618 81.1188 67.1358C80.9241 67.2097 80.7536 67.3351 80.6255 67.4983C80.4657 67.6959 80.3781 67.9415 80.377 68.1949C80.377 68.3514 80.4093 68.5062 80.4718 68.6499C81.5813 71.2175 81.6018 75.2825 81.3199 79.6984C81.3071 79.8662 81.2969 80.0365 81.284 80.2068H89.3526L89.2501 79.6984Z" fill="#2F2E41"/>
<path d="M73.9994 68.2713C73.9523 68.0863 73.8596 67.9158 73.7297 67.7752C73.5997 67.6346 73.4365 67.5282 73.2548 67.4657C73.0732 67.4031 72.8786 67.3864 72.6888 67.417C72.499 67.4476 72.3198 67.5245 72.1674 67.6409L71.186 68.5256L67.1684 72.1558C67.0431 72.2673 66.945 72.4055 66.8814 72.56C66.4278 73.6354 65.5439 75.7582 64.5164 78.3792C64.3499 78.8063 64.1782 79.2461 64.0014 79.6986C63.9399 79.8664 63.8733 80.0367 63.8066 80.207H70.4276C70.4814 80.0367 70.5352 79.8664 70.589 79.6986C70.8836 78.7758 71.1706 77.8707 71.4474 76.9911C72.257 74.4362 72.9872 72.1152 73.551 70.2797C73.7073 69.7712 73.8499 69.3018 73.9789 68.8713C74.0391 68.6766 74.0461 68.4696 73.9994 68.2713Z" fill="#2F2E41"/>
<path d="M90.7361 80.207H91.164L91.1051 80.0646L90.9488 79.6985L88.5377 74.0218L88.1688 74.243L85.2068 76.02L86.7262 79.6985L86.9363 80.207H89.3525H90.7361Z" fill="#FFB8B8"/>
<path d="M88.2917 69.5194C87.9655 68.6722 87.3218 67.9829 86.4951 67.5958C85.6685 67.2087 84.723 67.1538 83.8564 67.4424C83.7457 67.4788 83.6371 67.5213 83.531 67.5695C82.924 67.8382 82.4068 68.273 82.0399 68.8229C81.8901 69.0424 81.7671 69.2788 81.6734 69.5271C81.5071 69.958 81.4286 70.4173 81.4422 70.8785C81.4558 71.3397 81.5614 71.7937 81.7529 72.2142L82.4934 73.8514L85.1427 79.6985L85.3733 80.2069H90.7361L91.1051 80.0645L92.0634 79.6985L92.1967 79.6476L88.2917 69.5194Z" fill="#2F2E41"/>
<path d="M81.3312 52.6674C81.5505 52.7327 81.7854 52.7243 81.9995 52.6437C82.2136 52.5631 82.395 52.4147 82.5155 52.2215C82.6296 52.0246 82.6967 51.8044 82.7118 51.5777C82.7268 51.351 82.6893 51.124 82.6021 50.914C82.4236 50.4947 82.1421 50.1263 81.7834 49.8425C81.3761 49.4768 80.8802 49.2221 80.3441 49.1031C80.0762 49.046 79.7991 49.0466 79.5316 49.105C79.264 49.1633 79.0122 49.2781 78.7932 49.4414C78.5782 49.6102 78.4188 49.8388 78.3355 50.098C78.2521 50.3571 78.2486 50.635 78.3254 50.8962C78.4883 51.3651 78.9297 51.6792 79.3705 51.9131C80.245 52.3764 81.2094 52.6484 82.1987 52.7109L81.3312 52.6674Z" fill="#2F2E41"/>
<path d="M82.5554 59.6522C81.5437 59.7906 81.6736 59.2797 81.2684 58.3495C80.8632 57.4194 80.3207 56.3151 79.3038 56.2209C78.4705 56.1437 77.7839 56.8047 77.1087 57.2956C75.9054 58.1705 74.2837 58.5987 72.8889 58.0738C71.494 57.549 70.5247 55.8996 71.054 54.5157C71.2187 54.1336 71.4608 53.7891 71.7652 53.5036C72.0696 53.2181 72.4298 52.9976 72.8236 52.8559C73.6135 52.5772 74.4526 52.4616 75.2892 52.516C77.1498 52.5751 78.9747 53.0386 80.635 53.8738C81.7809 54.4515 82.8964 55.2779 83.3311 56.4781C83.7658 57.6782 84.0519 59.3647 82.8089 59.6893L82.5554 59.6522Z" fill="#2F2E41"/>
<path d="M80.814 49.3666C80.3139 48.503 80.7267 47.3179 81.545 46.7408C82.3632 46.1637 83.4609 46.1071 84.4373 46.3386C85.403 46.5799 86.2877 47.0689 87.0027 47.7566C87.7178 48.4442 88.238 49.3064 88.5113 50.2564C88.9257 51.7668 88.6793 53.3891 89.0302 54.9152C89.2173 55.7287 89.5702 56.4957 90.0673 57.1688C90.5643 57.8419 91.195 58.4069 91.9204 58.829C92.6459 59.2512 93.4507 59.5215 94.2854 59.6234C95.1202 59.7253 95.9671 59.6565 96.774 59.4214C97.825 59.1152 98.8931 58.3706 98.9965 57.2887C99.1053 58.5312 98.8197 59.7763 98.1798 60.8498C97.5399 61.9233 96.5777 62.7714 95.4279 63.2753C94.0737 63.8358 92.5631 63.8723 91.0964 63.835C90.1405 63.8106 89.1628 63.7535 88.281 63.3866C87.6709 63.1105 87.1224 62.7164 86.6678 62.2273C86.2131 61.7382 85.8614 61.164 85.6333 60.5383C85.1843 59.2807 85.0631 57.9309 85.2809 56.6144C85.4252 55.5903 85.7122 54.5866 85.7926 53.5556C85.8729 52.5246 85.7206 51.4238 85.08 50.6082C84.4394 49.7925 83.2157 49.3759 82.3049 49.8786C81.9389 50.0806 81.6436 50.4106 81.2459 50.5409C80.8482 50.6713 80.2846 50.4422 80.3208 50.0282L80.814 49.3666Z" fill="#2F2E41"/>
<path d="M123.759 80.2068L123.807 79.6984L125.252 64.7807C125.726 64.4127 126.235 64.0917 126.772 63.8223C129.747 62.3351 132.616 63.0469 134.169 63.6621C134.58 63.8219 134.978 64.015 135.358 64.2392L136.204 79.6984L136.232 80.2068H123.759Z" fill="#73B9FF"/>
<path d="M130.526 60.8105C134.002 60.8105 136.819 58.015 136.819 54.5666C136.819 51.1181 134.002 48.3226 130.526 48.3226C127.05 48.3226 124.233 51.1181 124.233 54.5666C124.233 58.015 127.05 60.8105 130.526 60.8105Z" fill="#FFB8B8"/>
<path d="M135.632 58.3738C136.1 57.8847 136.41 57.2686 136.524 56.6038C136.638 55.939 136.55 55.2557 136.271 54.6407C135.993 54.0257 135.536 53.5069 134.959 53.1502C134.382 52.7935 133.712 52.615 133.033 52.6376C132.162 52.6664 131.342 53.0198 130.512 53.2791C129.253 53.7039 127.91 53.8239 126.595 53.629C125.273 53.4252 124.079 52.7259 123.26 51.6751C122.482 50.6134 122.239 49.1407 122.789 47.9464C123.424 46.5676 124.907 45.8079 126.303 45.1906C126.865 44.9111 127.466 44.7152 128.087 44.6091C128.397 44.5579 128.715 44.5709 129.021 44.6473C129.326 44.7237 129.612 44.8618 129.861 45.053C130.253 45.3876 130.483 45.8906 130.91 46.1806C131.39 46.507 132.014 46.4985 132.594 46.556C133.899 46.6856 135.133 47.2063 136.132 48.0488C137.132 48.8914 137.849 50.0158 138.188 51.2726C138.528 52.5294 138.474 53.859 138.033 55.0845C137.592 56.3101 136.786 57.3735 135.722 58.1333L135.632 58.3738Z" fill="#2F2E41"/>
<path d="M127.71 66.4053L126.772 63.8224L126.713 63.6614C126.686 63.5851 126.641 63.516 126.582 63.4594C126.523 63.4028 126.453 63.3602 126.375 63.3348C126.297 63.3095 126.215 63.3019 126.134 63.3128C126.053 63.3238 125.975 63.3528 125.907 63.3978L124.842 64.102C124.842 64.102 118.014 64.102 117.466 68.167C117.458 68.2306 117.448 68.3018 117.44 68.378C117.44 68.3815 117.439 68.3849 117.437 68.3882C117.368 68.6551 116.08 73.5972 114.973 79.6985C114.942 79.8663 114.911 80.0366 114.88 80.2069H129.718V80.2069C130.201 74.0779 129.931 68.3793 127.71 66.4053Z" fill="#2F2E41"/>
<path d="M145.41 79.6985C144.6 73.4395 143.442 68.378 143.442 68.378C143.432 68.3017 143.421 68.2305 143.414 68.167C142.868 64.102 136.039 64.102 136.039 64.102L134.975 63.3981C134.907 63.3531 134.83 63.324 134.749 63.3131C134.668 63.3022 134.585 63.3098 134.507 63.3352C134.43 63.3607 134.359 63.4033 134.3 63.46C134.241 63.5166 134.197 63.5858 134.169 63.6622L133.172 66.4052C130.951 68.3793 130.681 74.0778 131.163 80.2067L131.163 80.2069H145.474C145.453 80.0366 145.43 79.8663 145.41 79.6985Z" fill="#2F2E41"/>
<path d="M25.2191 65.4467L23.6972 79.6984L23.6434 80.2068H19.5259C19.5745 80.0416 19.6232 79.8713 19.6745 79.6984C20.8429 75.7224 22.4341 69.9185 22.2623 68.3805C21.9933 65.9806 23.8766 65.1798 23.8766 65.1798L23.9944 65.2027L25.2191 65.4467Z" fill="#73B9FF"/>
<path d="M31.8598 61.0479C35.3354 61.0479 38.153 58.2524 38.153 54.8039C38.153 51.3555 35.3354 48.56 31.8598 48.56C28.3842 48.56 25.5667 51.3555 25.5667 54.8039C25.5667 58.2524 28.3842 61.0479 31.8598 61.0479Z" fill="#A0616A"/>
<path d="M40.0061 77.1815C39.6887 77.762 39.4288 78.3716 39.2298 79.0018C39.1555 79.2255 39.0838 79.4594 39.0171 79.6983C38.9684 79.8636 38.9249 80.0339 38.8813 80.2068H22.283C22.3061 80.039 22.3265 79.8687 22.3496 79.6983C23.1978 73.0504 23.8844 66.3034 23.9946 65.2026C24.0048 65.0984 24.01 65.045 24.01 65.045C33.9566 59.8436 41.2155 66.6466 41.2155 66.6466C41.2155 66.6466 41.2257 66.6949 41.2411 66.789C41.4 67.7398 42.2096 73.2919 40.0061 77.1815Z" fill="#73B9FF"/>
<path d="M39.2297 79.0019L38.1228 76.6478L38.3918 67.3127L41.241 66.789L41.341 66.7712C42.8137 67.6207 43.9534 68.9396 44.5745 70.5134C45.128 71.8862 46.181 76.0147 47.0702 79.6984C47.1112 79.8688 47.1521 80.0391 47.1931 80.2069H39.7959L39.5576 79.6984L39.2297 79.0019Z" fill="#73B9FF"/>
<path d="M49.3535 38.2603H12.9644C12.1838 38.2612 11.4355 38.5692 10.8836 39.1168C10.3317 39.6644 10.0212 40.4068 10.0203 41.1813V77.2858C10.0212 78.0602 10.3317 78.8026 10.8836 79.3502C11.4355 79.8978 12.1838 80.2059 12.9644 80.2068H49.3535C50.1342 80.2063 50.8827 79.8984 51.4347 79.3507C51.9867 78.803 52.297 78.0603 52.2975 77.2858V41.1813C52.297 40.4067 51.9867 39.6641 51.4347 39.1164C50.8827 38.5687 50.1342 38.2608 49.3535 38.2603ZM51.785 77.2858C51.7845 77.9255 51.5281 78.5388 51.0723 78.9911C50.6164 79.4435 49.9982 79.6978 49.3535 79.6983H12.9644C12.3198 79.6974 11.7018 79.4429 11.246 78.9907C10.7902 78.5384 10.5337 77.9254 10.5327 77.2858V41.1813C10.5337 40.5417 10.7902 39.9286 11.246 39.4764C11.7018 39.0242 12.3198 38.7697 12.9644 38.7687H49.3535C49.9982 38.7692 50.6164 39.0236 51.0723 39.4759C51.5281 39.9283 51.7845 40.5416 51.785 41.1813V77.2858ZM23.6976 79.6983L23.6437 80.2068H38.8815C38.9251 80.0339 38.9686 79.8636 39.0173 79.6983H23.6976Z" fill="#3F3D56"/>
<path d="M98.1924 38.2603H61.8032C61.0227 38.2612 60.2744 38.5692 59.7225 39.1168C59.1706 39.6644 58.8601 40.4068 58.8591 41.1813V77.2858C58.8601 78.0602 59.1706 78.8026 59.7225 79.3502C60.2744 79.8978 61.0227 80.2059 61.8032 80.2068H98.1924C98.973 80.2063 99.7215 79.8984 100.274 79.3507C100.826 78.803 101.136 78.0603 101.136 77.2858V41.1813C101.136 40.4067 100.826 39.6641 100.274 39.1164C99.7215 38.5687 98.973 38.2608 98.1924 38.2603ZM100.624 77.2858C100.623 77.9255 100.367 78.5388 99.9111 78.9911C99.4552 79.4435 98.8371 79.6978 98.1924 79.6983H61.8032C61.1586 79.6974 60.5407 79.4429 60.0849 78.9907C59.6291 78.5384 59.3726 77.9254 59.3716 77.2858V41.1813C59.3726 40.5417 59.6291 39.9286 60.0849 39.4764C60.5407 39.0242 61.1586 38.7697 61.8032 38.7687H98.1924C98.8371 38.7692 99.4552 39.0236 99.9111 39.4759C100.367 39.9283 100.623 40.5416 100.624 41.1813V77.2858ZM68.524 79.6983C68.5548 79.8077 68.5881 79.917 68.624 80.0263L68.5599 80.2068H81.284C81.2969 80.0365 81.3071 79.8661 81.3199 79.6983H68.524Z" fill="#3F3D56"/>
<path d="M147.034 38.2603H110.645C109.864 38.2607 109.116 38.5686 108.564 39.1163C108.012 39.664 107.701 40.4067 107.701 41.1813V77.2858C107.701 78.0603 108.012 78.803 108.564 79.3507C109.116 79.8984 109.864 80.2063 110.645 80.2068H147.034C147.815 80.2058 148.563 79.8978 149.115 79.3502C149.667 78.8026 149.977 78.0602 149.978 77.2858V41.1813C149.977 40.4069 149.667 39.6644 149.115 39.1169C148.563 38.5693 147.815 38.2612 147.034 38.2603ZM149.466 77.2858C149.465 77.9253 149.208 78.5384 148.752 78.9907C148.297 79.4429 147.679 79.6974 147.034 79.6983H110.645C110 79.6978 109.382 79.4435 108.926 78.9912C108.47 78.5388 108.214 77.9255 108.213 77.2858V41.1813C108.214 40.5416 108.47 39.9282 108.926 39.4759C109.382 39.0236 110 38.7692 110.645 38.7687H147.034C147.679 38.7697 148.297 39.0242 148.752 39.4764C149.208 39.9286 149.465 40.5417 149.466 41.1813V77.2858ZM129.757 79.6983C129.744 79.8661 129.731 80.0365 129.718 80.2068H140.759C140.78 80.039 140.803 79.8687 140.823 79.6983H129.757Z" fill="#3F3D56"/>
<path d="M122.276 94.9517H37.7219C37.1783 94.9517 36.6569 94.7374 36.2725 94.356C35.8881 93.9746 35.6721 93.4573 35.6721 92.9179C35.6721 92.3785 35.8881 91.8612 36.2725 91.4798C36.6569 91.0984 37.1783 90.8842 37.7219 90.8842H122.276C122.82 90.8842 123.341 91.0984 123.726 91.4798C124.11 91.8612 124.326 92.3785 124.326 92.9179C124.326 93.4573 124.11 93.9746 123.726 94.356C123.341 94.7374 122.82 94.9517 122.276 94.9517Z" fill="#CCCCCC"/>
<path d="M98.5753 27.583H61.4226C60.879 27.583 60.3576 27.3687 59.9732 26.9873C59.5888 26.6059 59.3728 26.0886 59.3728 25.5492C59.3728 25.0098 59.5888 24.4925 59.9732 24.1111C60.3576 23.7297 60.879 23.5154 61.4226 23.5154H98.5753C99.119 23.5154 99.6403 23.7297 100.025 24.1111C100.409 24.4925 100.625 25.0098 100.625 25.5492C100.625 26.0886 100.409 26.6059 100.025 26.9873C99.6403 27.3687 99.119 27.583 98.5753 27.583Z" fill="#73B9FF"/>
<path d="M34.8701 60.2439C35.0832 60.4524 35.365 60.5777 35.6637 60.5967C35.9624 60.6157 36.2579 60.5271 36.4961 60.3473C37.9793 59.2564 39.2814 57.8986 40.0519 56.2424C40.9349 54.3447 41.0334 52.0159 39.9688 50.2122C39.0689 48.6875 37.4797 47.7035 35.8959 46.8956C35.281 46.5512 34.6185 46.2979 33.9297 46.1437C33.2335 45.9913 32.5049 46.108 31.8923 46.4699C31.5926 46.6563 31.3565 46.928 31.2148 47.2496C31.0731 47.5712 31.0323 47.9276 31.0978 48.2725C30.3371 47.4113 29.3627 46.7623 28.2712 46.3899C27.5839 46.1231 26.8313 46.069 26.1124 46.2346C25.1073 46.5175 24.3736 47.4035 23.9723 48.3605C23.6477 49.0884 23.5356 49.8922 23.6488 50.6802C23.7084 51.0723 23.8502 51.4477 24.0652 51.7821C24.2801 52.1164 24.5635 52.4022 24.8968 52.6211C25.7277 53.1312 26.7879 53.0944 27.7422 52.886C28.6965 52.6776 29.6203 52.3151 30.5931 52.2235C31.5658 52.1318 32.6491 52.3725 33.2411 53.1438C33.6581 53.687 33.7651 54.3967 33.8587 55.0731L34.3455 58.5913C34.3853 59.1003 34.5163 59.5981 34.7324 60.0614C34.7698 60.1281 34.8161 60.1895 34.8701 60.2439Z" fill="#2F2E41"/>
</svg>
