<svg width="161" height="97" viewBox="0 0 161 97" fill="none" xmlns="http://www.w3.org/2000/svg">
<g clip-path="url(#clip0)">
<path d="M137.073 64.9576C137.608 64.9829 138.142 64.8839 138.632 64.6684C139.122 64.4528 139.555 64.1267 139.897 63.7156C140.239 63.3045 140.481 62.8198 140.603 62.2996C140.725 61.7794 140.725 61.2379 140.602 60.7179C140.479 60.1978 140.236 59.7134 139.894 59.3029C139.551 58.8923 139.117 58.5668 138.627 58.352C138.137 58.1371 137.603 58.0389 137.068 58.065C136.534 58.091 136.012 58.2407 135.545 58.5022L136.156 60.1724L134.9 58.9684C134.226 59.5832 133.824 60.4397 133.783 61.3499C133.767 61.6692 133.796 61.9891 133.87 62.3001C134.042 63.0304 134.448 63.6849 135.026 64.1644C135.604 64.644 136.323 64.9224 137.073 64.9576Z" fill="#57B894"/>
<path d="M147.176 83.3929C146.444 82.0387 147.275 80.3787 148.231 79.1708C149.187 77.963 150.352 76.7062 150.327 75.1672C150.292 72.9555 147.939 71.6495 146.06 70.4769C144.665 69.6067 143.379 68.5746 142.228 67.4022C141.767 66.9321 141.321 66.4293 141.051 65.8289C140.662 64.9642 140.673 63.9804 140.697 63.033C140.779 59.8768 140.935 56.7238 141.166 53.5738" stroke="#3F3D56" stroke-miterlimit="10"/>
<path d="M137.073 64.4788C137.608 64.5041 138.142 64.4051 138.632 64.1896C139.122 63.9741 139.555 63.6479 139.897 63.2368C140.239 62.8258 140.481 62.341 140.603 61.8208C140.725 61.3006 140.725 60.7591 140.602 60.2391C140.479 59.7191 140.236 59.2347 139.894 58.8241C139.551 58.4135 139.117 58.088 138.627 57.8732C138.137 57.6584 137.603 57.5601 137.068 57.5862C136.534 57.6123 136.012 57.762 135.545 58.0234L136.156 59.6937L134.9 58.4897C134.226 59.1044 133.824 59.961 133.783 60.8711C133.767 61.1904 133.796 61.5103 133.87 61.8213C134.042 62.5516 134.448 63.2061 135.026 63.6857C135.604 64.1652 136.323 64.4437 137.073 64.4788V64.4788Z" stroke="#3F3D56" stroke-miterlimit="10"/>
<path d="M137.593 54.0398C137.62 53.462 137.792 52.9002 138.094 52.4063C138.396 51.9124 138.817 51.5021 139.319 51.2134L140.093 52.7413L140.07 50.8917C140.772 50.6851 141.523 50.7067 142.213 50.9535C142.903 51.2003 143.496 51.6595 143.907 52.2648C144.319 52.8701 144.527 53.5902 144.501 54.3211C144.475 55.0521 144.218 55.756 143.765 56.3312C143.313 56.9065 142.689 57.3234 141.984 57.5217C141.278 57.72 140.528 57.6894 139.841 57.4344C139.154 57.1794 138.566 56.7132 138.162 56.103C137.758 55.4928 137.559 54.7703 137.593 54.0398Z" fill="#57B894"/>
<path d="M137.593 53.4014C137.62 52.8236 137.792 52.2619 138.094 51.7679C138.396 51.274 138.817 50.8638 139.319 50.575L140.093 52.1029L140.07 50.2534C140.772 50.0467 141.523 50.0683 142.213 50.3151C142.903 50.5619 143.496 51.0211 143.907 51.6265C144.319 52.2318 144.527 52.9519 144.501 53.6828C144.475 54.4137 144.218 55.1176 143.765 55.6929C143.313 56.2682 142.689 56.685 141.984 56.8833C141.278 57.0816 140.528 57.051 139.841 56.796C139.154 56.541 138.566 56.0748 138.162 55.4646C137.758 54.8545 137.559 54.1319 137.593 53.4014V53.4014Z" stroke="#3F3D56" stroke-miterlimit="10"/>
<path d="M145.49 70.6894C146.338 70.7289 147.171 70.4556 147.83 69.9217C148.49 69.3877 148.929 68.6303 149.064 67.794C149.2 66.9577 149.022 66.1008 148.565 65.3867C148.108 64.6726 147.404 64.1513 146.587 63.922L146.605 65.3433L145.822 63.7973C145.819 63.7969 145.816 63.7967 145.813 63.7967C145.36 63.7756 144.906 63.8438 144.479 63.9975C144.052 64.1511 143.66 64.3872 143.324 64.6923C142.988 64.9974 142.716 65.3654 142.523 65.7755C142.33 66.1855 142.22 66.6295 142.199 67.0821C142.177 67.5346 142.246 67.987 142.4 68.4132C142.554 68.8394 142.79 69.2312 143.096 69.5661C143.402 69.9011 143.77 70.1727 144.181 70.3654C144.592 70.5582 145.037 70.6682 145.49 70.6894Z" fill="#57B894"/>
<path d="M145.464 70.051C146.312 70.0905 147.145 69.8172 147.804 69.2832C148.463 68.7493 148.902 67.9919 149.038 67.1556C149.173 66.3193 148.995 65.4624 148.539 64.7483C148.082 64.0342 147.378 63.5129 146.56 63.2836L146.578 64.7049L145.796 63.1589C145.793 63.1585 145.79 63.1583 145.786 63.1583C145.333 63.1372 144.88 63.2054 144.453 63.3591C144.026 63.5127 143.633 63.7488 143.297 64.0539C142.962 64.359 142.69 64.727 142.497 65.1371C142.303 65.5471 142.193 65.9911 142.172 66.4437C142.151 66.8962 142.219 67.3486 142.373 67.7748C142.527 68.201 142.764 68.5928 143.069 68.9277C143.375 69.2627 143.744 69.5343 144.155 69.727C144.566 69.9198 145.01 70.0298 145.464 70.051V70.051Z" stroke="#3F3D56" stroke-miterlimit="10"/>
<path d="M143.758 77.227C144.12 77.9305 144.714 78.4881 145.44 78.8063C146.166 79.1245 146.979 79.184 147.744 78.9747C148.508 78.7655 149.177 78.3003 149.639 77.6571C150.101 77.0139 150.327 76.2319 150.279 75.4422C150.231 74.6525 149.913 73.9031 149.378 73.3197C148.842 72.7363 148.122 72.3545 147.338 72.2381C146.554 72.1218 145.754 72.278 145.071 72.6807C144.389 73.0833 143.866 73.7079 143.59 74.4497L145.749 76.2029L143.374 75.6536C143.374 76.2011 143.505 76.7408 143.758 77.227Z" fill="#57B894"/>
<path d="M143.758 76.7482C144.12 77.4517 144.714 78.0093 145.44 78.3275C146.166 78.6457 146.979 78.7052 147.744 78.4959C148.508 78.2867 149.177 77.8215 149.639 77.1783C150.101 76.5351 150.327 75.7531 150.279 74.9634C150.231 74.1737 149.913 73.4243 149.378 72.8409C148.842 72.2575 148.122 71.8757 147.338 71.7593C146.554 71.643 145.754 71.7992 145.071 72.2019C144.389 72.6045 143.866 73.2291 143.59 73.9709L145.749 75.7241L143.374 75.1748C143.374 75.7223 143.505 76.262 143.758 76.7482V76.7482Z" stroke="#3F3D56" stroke-miterlimit="10"/>
<path d="M117.388 24.3724C117.804 26.0098 117.487 27.7708 116.782 29.3066C116.077 30.8425 115.005 32.1811 113.871 33.4356C113.301 34.0668 112.684 34.7378 112.563 35.5792C112.401 36.701 113.159 37.7163 113.668 38.7294C114.113 39.6166 114.384 40.581 114.464 41.5701C114.532 42.4194 114.426 43.3554 113.83 43.9654C113.255 44.5535 112.372 44.6958 111.553 44.7718C109.295 44.9809 107.021 44.9261 104.777 44.6084C105.406 43.7736 105.17 43.2556 105.11 42.2128C104.995 40.167 103.503 38.3148 103.213 36.2863C102.983 34.6735 104.052 33.1929 105.064 31.9141L109.7 26.0499C110.468 25.0782 111.233 24.0774 111.785 22.9633C112.179 22.1672 112.253 20.6726 113.245 20.4071C115.113 19.907 117.024 22.9441 117.388 24.3724Z" fill="#47465A"/>
<path d="M94.6361 29.2058C94.6361 29.2058 91.4379 38.6219 89.8387 39.2603C88.2396 39.8986 99.4335 51.3895 99.4335 51.3895L107.589 47.3996L107.909 39.7391L104.711 39.5795C104.711 39.5795 104.231 36.3876 105.83 34.7916C107.429 33.1957 94.6361 29.2058 94.6361 29.2058Z" fill="#FBBEBE"/>
<path opacity="0.1" d="M94.6361 29.2058C94.6361 29.2058 91.4379 38.6219 89.8387 39.2603C88.2396 39.8986 99.4335 51.3895 99.4335 51.3895L107.589 47.3996L107.909 39.7391L104.711 39.5795C104.711 39.5795 104.231 36.3876 105.83 34.7916C107.429 33.1957 94.6361 29.2058 94.6361 29.2058Z" fill="black"/>
<path d="M98.3143 45.1653C98.3143 45.1653 91.438 40.537 91.1182 36.7068C91.1182 36.7068 86.001 40.0582 84.4019 39.8986C82.8028 39.7391 78.4851 40.6966 78.4851 41.335C78.4851 41.9734 82.4829 60.0076 82.4829 60.0076C82.4829 60.0076 79.6045 67.6681 81.0437 70.062C82.4829 72.4559 83.2825 83.6276 83.2825 83.6276H116.544C116.544 83.6276 112.067 75.8074 114.465 70.2216C116.864 64.6358 117.824 41.1754 117.824 41.1754C117.824 41.1754 116.065 39.8986 114.306 40.2178C112.547 40.537 110.468 39.2603 109.188 39.1007C107.909 38.9411 105.01 39.5944 105.01 39.5944L98.3143 45.1653Z" fill="#73B9FF"/>
<path d="M161 83.4565V90.4787C161 91.7144 160.512 92.9004 159.642 93.7796C158.772 94.6588 157.589 95.1604 156.351 95.1756L8.30132 96.9998C7.94354 97.0042 7.58845 96.9377 7.25663 96.8041C6.9248 96.6705 6.62286 96.4725 6.3683 96.2215C6.11373 95.9706 5.91162 95.6717 5.77367 95.3422C5.63573 95.0128 5.5647 94.6592 5.5647 94.3021V86.5397C5.5647 85.8447 5.83577 85.1771 6.3205 84.6781C6.80523 84.1792 7.46554 83.8882 8.16155 83.8668L156.696 79.2915C157.255 79.2743 157.811 79.3693 158.333 79.5709C158.854 79.7724 159.33 80.0764 159.731 80.4649C160.133 80.8533 160.452 81.3183 160.67 81.8322C160.888 82.3461 161 82.8984 161 83.4565Z" fill="#47465A"/>
<path opacity="0.1" d="M161 88.575V90.4787C161 91.7144 160.512 92.9004 159.642 93.7796C158.772 94.6588 157.589 95.1604 156.351 95.1756L8.30132 96.9998C7.94354 97.0042 7.58845 96.9377 7.25663 96.8041C6.9248 96.6705 6.62286 96.4725 6.3683 96.2215C6.11373 95.9706 5.91162 95.6717 5.77367 95.3422C5.63573 95.0128 5.5647 94.6592 5.5647 94.3021V94.0523L161 88.575Z" fill="black"/>
<path d="M131.896 83.6276L113.164 81.2019L79.8545 82.4146L91.9178 86.1811L131.896 83.6276Z" fill="#F2F2F2"/>
<path d="M82.163 82.5104V84.4255L63.9329 88.575L62.1515 88.1648L61.8541 88.0962L48.7412 81.074L82.163 82.5104Z" fill="#9493B6"/>
<path opacity="0.1" d="M82.1629 82.5104V84.4255L63.9329 88.575L62.1514 88.1648L61.854 86.1811L82.1629 82.5104Z" fill="black"/>
<path d="M61.2144 85.5427C61.5342 85.3831 68.2506 84.1064 68.2506 84.1064L56.0972 82.9892L61.2144 85.5427Z" fill="#47465A"/>
<path d="M103.272 37.3452C109.012 37.3452 113.666 32.7007 113.666 26.9715C113.666 21.2423 109.012 16.5979 103.272 16.5979C97.5309 16.5979 92.8772 21.2423 92.8772 26.9715C92.8772 32.7007 97.5309 37.3452 103.272 37.3452Z" fill="#FBBEBE"/>
<path d="M73.0479 73.8923C73.0479 73.8923 63.7729 77.8821 61.5342 76.765C59.2954 75.6478 52.579 72.7751 50.5002 78.6801C48.8237 83.4421 58.6104 83.7411 62.4618 83.6784C62.9275 83.6709 63.386 83.5625 63.8056 83.3608C64.2253 83.1592 64.596 82.869 64.8923 82.5104L78.245 77.9619C78.245 77.9619 75.2867 72.9347 73.0479 73.8923Z" fill="#FBBEBE"/>
<path d="M99.2737 66.5509L100.393 67.5085L89.9987 82.1911C89.9987 82.1911 88.3996 82.3507 88.8793 81.5528L99.2737 66.5509Z" fill="#47465A"/>
<path d="M99.9133 67.5085L101.033 66.0721L100.553 65.753L99.4336 67.0297L99.9133 67.5085Z" fill="#47465A"/>
<path d="M80.9636 40.2977C80.9636 40.2977 75.5266 41.2552 75.6865 45.4047C75.8464 49.5541 74.4871 54.2622 73.2078 56.4965C71.9285 58.7308 72.888 60.4864 73.2078 63.5187C73.5276 66.551 71.6087 69.7429 72.5682 71.3388C73.5276 72.9347 62.1738 74.0519 62.1738 75.6479C62.1738 77.2438 69.3699 80.2761 68.0906 82.3508C67.1702 83.8435 73.6577 81.3298 77.3704 79.8018C78.3373 79.4127 79.1957 78.7966 79.873 78.0057C80.5503 77.2148 81.0264 76.2725 81.2609 75.2588C81.3734 74.7501 81.4033 74.2913 81.2834 73.9721C80.8037 72.6954 86.4806 71.0196 86.6405 67.8277C86.8004 64.6358 85.8409 61.4439 85.0414 58.2521C84.2418 55.0602 80.9636 40.2977 80.9636 40.2977Z" fill="#73B9FF"/>
<path d="M1.72341 57.0009L48.6161 57.4438C48.9403 57.4469 49.2569 57.5421 49.5287 57.7184C49.8006 57.8946 50.0165 58.1445 50.1511 58.4389L62.7886 86.0727C62.9093 86.3365 62.9604 86.6266 62.9371 86.9156C62.9138 87.2046 62.8169 87.4829 62.6556 87.724C62.4943 87.9652 62.274 88.1612 62.0155 88.2935C61.757 88.4258 61.4689 88.4899 61.1786 88.4799L14.1212 86.8554C13.8079 86.8446 13.5036 86.7477 13.2418 86.5755C12.98 86.4033 12.7709 86.1624 12.6374 85.8793L0.164489 59.4271C0.0416171 59.1665 -0.0129779 58.8791 0.00581859 58.5917C0.0246151 58.3043 0.116188 58.0264 0.27196 57.784C0.427732 57.5415 0.642608 57.3425 0.896463 57.2056C1.15032 57.0686 1.43485 56.9982 1.72341 57.0009Z" fill="#7A799C"/>
<path d="M112.386 73.8923C112.386 73.8923 103.112 77.8822 100.873 76.765C98.634 75.6479 91.9177 72.7752 89.8388 78.6802C88.1623 83.4422 97.949 83.7412 101.8 83.6785C102.266 83.6709 102.725 83.5625 103.144 83.3609C103.564 83.1592 103.935 82.869 104.231 82.5104L117.824 81.0741C117.824 81.0741 114.625 72.9347 112.386 73.8923Z" fill="#FBBEBE"/>
<path opacity="0.1" d="M117.903 43.6491C117.903 43.6491 120.222 40.537 121.342 43.4097C122.461 46.2824 122.301 57.4541 122.301 57.4541C122.301 57.4541 124.22 63.0399 123.58 66.7105C122.941 70.3812 124.22 70.86 124.22 70.86C124.22 70.86 124.54 72.4559 123.58 73.2539C122.621 74.0519 121.981 77.563 122.301 78.0418C122.621 78.5205 121.821 81.5528 121.182 81.5528C120.542 81.5528 119.183 81.3134 119.183 81.3134C119.183 81.3134 115.905 75.3286 109.028 74.8499C109.028 74.8499 110.148 73.2539 109.508 70.062C108.868 66.8701 117.903 43.6491 117.903 43.6491Z" fill="black"/>
<path d="M117.504 41.335C117.504 41.335 120.142 40.2977 121.262 43.1704C122.381 46.0431 123.42 57.4541 123.42 57.4541C123.42 57.4541 125.339 63.0399 124.7 66.7106C124.06 70.3812 125.339 70.86 125.339 70.86C125.339 70.86 125.659 72.456 124.7 73.2539C123.74 74.0519 123.101 77.563 123.42 78.0418C123.74 78.5206 122.941 81.5529 122.301 81.5529C121.661 81.5529 115.745 82.5104 115.745 82.5104C115.745 82.5104 117.024 75.3287 110.148 74.8499C110.148 74.8499 111.267 73.2539 110.627 70.062C109.988 66.8702 117.504 41.335 117.504 41.335Z" fill="#73B9FF"/>
<path d="M106.753 12.3322C105.159 11.3368 103.354 10.7247 101.482 10.5441C99.61 10.3636 97.7214 10.6196 95.9654 11.292C94.0828 12.031 92.4199 13.2342 90.8646 14.5254C89.617 15.5611 88.4004 16.6911 87.6339 18.1187C86.4717 20.2832 86.4751 22.8597 86.5066 25.3152C86.534 27.453 86.5619 29.5973 86.8538 31.7153C87.2542 34.6204 88.1512 37.4965 87.9452 40.4217C87.7392 43.3468 86.0167 46.4677 83.1372 47.0512C85.8159 47.2534 88.5084 47.1761 91.1709 46.8202C92.849 46.5958 94.6107 46.2123 95.8376 45.0478C96.7336 44.1974 97.2401 43.025 97.6807 41.8719C98.1235 40.713 98.529 39.5087 98.5134 38.2685C98.4811 35.6879 96.6856 33.5233 95.5138 31.2227C95.1849 30.577 94.8962 29.8827 94.9076 29.1584C94.919 28.4341 95.2979 27.6738 95.9724 27.4063C96.8048 27.0763 97.7685 27.5686 98.6337 27.3379C100.024 26.9673 100.385 25.0405 101.661 24.3774C102.606 23.8868 103.811 24.2547 104.605 24.9625C104.96 25.279 105.264 25.6616 105.676 25.9001C106.235 26.2233 106.913 26.239 107.559 26.2461C108.764 26.2594 112.877 24.3741 113.746 23.5402C114.593 27.8896 120.893 24.1043 117.278 17.6874C116.019 15.4531 114.349 13.378 112.127 12.0911C109.906 10.8043 107.072 10.4052 104.74 11.4796" fill="#47465A"/>
<path d="M95.9954 31.9987C96.7902 31.9987 97.4346 30.8555 97.4346 29.4452C97.4346 28.035 96.7902 26.8917 95.9954 26.8917C95.2005 26.8917 94.5562 28.035 94.5562 29.4452C94.5562 30.8555 95.2005 31.9987 95.9954 31.9987Z" fill="#FBBEBE"/>
<path d="M110.148 39.343C110.148 39.343 119.023 40.6168 119.503 41.2552C119.982 41.8936 119.023 45.7238 119.023 45.7238L112.626 46.841L107.704 45.7817L110.148 39.343Z" fill="#73B9FF"/>
<path opacity="0.1" d="M82.9435 45.5924C81.6069 45.3625 80.3033 46.5698 79.6112 48.1616C78.919 49.7534 78.7311 51.6608 78.663 53.5138C78.5954 55.3556 78.6354 57.2364 79.0556 58.9873C79.9185 62.5828 82.2351 65.1248 83.5759 68.4309C84.6056 71.0541 85.022 73.8772 84.7934 76.6852" fill="black"/>
<path d="M83.903 45.5924C82.5664 45.3625 81.2627 46.5698 80.5706 48.1616C79.8785 49.7534 79.6906 51.6608 79.6225 53.5138C79.5549 55.3556 79.5949 57.2364 80.0151 58.9873C80.878 62.5828 83.1946 65.1248 84.5353 68.4309C85.5651 71.0541 85.9815 73.8772 85.7529 76.6852" fill="#73B9FF"/>
<path d="M135.302 81.2526L150.772 87.4281L160.441 85.6912L159.597 78.7843L159.474 77.7789L143.231 72.7612L142.07 73.9191L135.302 81.2526Z" fill="#73B9FF"/>
<path opacity="0.1" d="M144.197 73.9906V80.6736L160.44 85.6913L159.597 78.7844L144.197 73.9906Z" fill="black"/>
<path d="M129.244 82.6958L130.339 83.1004L143.395 87.9261L144.41 88.301C144.442 88.313 144.476 88.3171 144.51 88.3132C144.544 88.3092 144.577 88.2972 144.605 88.2781L145.801 87.478L158.238 79.1502L159.413 78.3638C159.447 78.3411 159.474 78.3093 159.49 78.272C159.507 78.2347 159.512 78.1935 159.506 78.1532C159.5 78.1129 159.483 78.0751 159.457 78.0442C159.43 78.0133 159.395 77.9906 159.356 77.9787L157.482 77.406L144.312 73.3793L143.162 73.0272C143.131 73.0177 143.098 73.0152 143.066 73.02C143.035 73.0247 143.004 73.0366 142.977 73.0547L142.072 73.6639L130.337 81.5505L129.2 82.3152C129.167 82.3372 129.141 82.3679 129.124 82.4039C129.107 82.4399 129.101 82.4797 129.106 82.5191C129.11 82.5584 129.126 82.5957 129.15 82.6269C129.175 82.6581 129.207 82.6819 129.244 82.6958Z" fill="#7A799C"/>
<path d="M156.183 79.0821L144.529 86.9924C144.473 87.0306 144.408 87.0549 144.341 87.0633C144.273 87.0717 144.205 87.0639 144.141 87.0406L131.768 82.5327C131.693 82.5051 131.627 82.4571 131.577 82.3941C131.528 82.3312 131.497 82.2557 131.488 82.1762C131.479 82.0967 131.492 82.0162 131.526 81.9438C131.56 81.8713 131.614 81.8097 131.681 81.7659L142.961 74.4194C143.014 74.3849 143.074 74.3626 143.136 74.3538C143.199 74.3451 143.262 74.3503 143.322 74.3689L156.069 78.3131C156.147 78.3373 156.216 78.3829 156.269 78.4446C156.321 78.5062 156.356 78.5815 156.368 78.6618C156.38 78.7421 156.369 78.8241 156.336 78.8984C156.303 78.9727 156.25 79.0364 156.183 79.0821Z" fill="#F2F2F2"/>
<path d="M157.482 77.4061V79.1503H158.238L159.413 78.3639C159.447 78.3412 159.474 78.3093 159.491 78.272C159.507 78.2348 159.513 78.1936 159.507 78.1532C159.501 78.1129 159.483 78.0751 159.457 78.0442C159.43 78.0133 159.395 77.9906 159.356 77.9787L157.482 77.4061Z" fill="#73B9FF"/>
<path d="M143.396 87.3798V87.9261L144.41 88.301C144.442 88.313 144.476 88.3172 144.51 88.3132C144.544 88.3092 144.577 88.2972 144.605 88.2782L145.801 87.4781V87.3798H143.396Z" fill="#73B9FF"/>
<path d="M129.244 82.6958L130.339 83.1004V81.5505H130.337L129.2 82.3152C129.167 82.3372 129.141 82.3679 129.124 82.4039C129.107 82.4399 129.101 82.4797 129.106 82.5191C129.11 82.5584 129.126 82.5957 129.15 82.6269C129.175 82.6581 129.207 82.6819 129.244 82.6958Z" fill="#73B9FF"/>
<path d="M142.072 73.6639H144.312V73.3793L143.162 73.0272C143.131 73.0177 143.098 73.0152 143.067 73.02C143.035 73.0247 143.004 73.0366 142.977 73.0547L142.072 73.6639Z" fill="#73B9FF"/>
<path d="M137.173 77.563C137.261 77.563 137.333 77.4915 137.333 77.4034C137.333 77.3153 137.261 77.2438 137.173 77.2438C137.085 77.2438 137.013 77.3153 137.013 77.4034C137.013 77.4915 137.085 77.563 137.173 77.563Z" fill="#F2F2F2"/>
<path d="M69.1893 4.14948H5.54395V36.3876H69.1893V4.14948Z" fill="#F2F2F2"/>
<path d="M16.7153 33.4351L31.1302 9.41608L46.082 33.4351" fill="#73B9FF"/>
<path d="M38.566 21.1463L41.4445 13.6453L57.7556 33.4351H38.4861L38.566 21.1463Z" fill="#73B9FF"/>
<path d="M35.5356 18.166C35.9838 17.8924 36.3735 17.5333 36.6825 17.1093C36.9915 16.6853 37.2138 16.2046 37.3366 15.6948C37.4594 15.1851 37.4803 14.6561 37.3981 14.1383C37.3159 13.6204 37.1323 13.1238 36.8577 12.6768C36.5831 12.2298 36.2229 11.8412 35.7977 11.5332C35.3726 11.2253 34.8907 11.0039 34.3798 10.8819C33.8689 10.7599 33.3388 10.7395 32.82 10.8221C32.3012 10.9046 31.8038 11.0884 31.3562 11.3629" fill="#73B9FF"/>
<path d="M72.9473 0.0798035H9.302V32.3179H72.9473V0.0798035Z" stroke="#3F3D56" stroke-miterlimit="10"/>
<path d="M17.5146 32.3179L31.9295 8.29892L46.8814 32.3179" stroke="#3F3D56" stroke-miterlimit="10"/>
<path d="M39.0457 19.7099L41.9241 12.209L58.2352 32.3179" stroke="#3F3D56" stroke-miterlimit="10"/>
<path d="M36.655 15.9317C37.1032 15.6581 37.4929 15.299 37.8019 14.875C38.1109 14.451 38.3332 13.9703 38.456 13.4605C38.5787 12.9507 38.5996 12.4218 38.5175 11.9039C38.4353 11.3861 38.2517 10.8895 37.9771 10.4425C37.7025 9.99549 37.3423 9.6069 36.9171 9.29893C36.4919 8.99095 36.0101 8.76962 35.4992 8.64759C34.9883 8.52557 34.4582 8.50523 33.9394 8.58776C33.4206 8.67029 32.9232 8.85405 32.4756 9.12855" stroke="#3F3D56" stroke-miterlimit="10"/>
</g>
<defs>
<clipPath id="clip0">
<rect width="161" height="97" fill="white"/>
</clipPath>
</defs>
</svg>
