<svg width="132" height="124" viewBox="0 0 132 124" fill="none" xmlns="http://www.w3.org/2000/svg">
<path d="M94.9076 0.576127C85.1507 10.6468 83.5309 20.1178 89.2625 39.9011C89.4617 40.5884 89.3115 41.3118 88.792 41.8038C81.1288 49.0625 34.0978 90.2274 27.7156 95.811C27.2556 96.2135 27.0334 96.8076 26.7878 97.3672C25.1936 101 14.8318 108.958 1.66058 116.121C-0.126234 117.093 0.454691 119.855 2.48784 119.912C11.7243 120.174 16.8933 119.631 24.7245 119.564C24.8378 119.563 24.951 119.572 25.0629 119.59C44.47 122.78 72.3362 122.962 81.1884 116.758C89.9623 110.609 109.151 94.5141 107.104 49.788C107.062 48.8661 107.654 48.013 108.536 47.7404C121.648 43.6863 127.721 37.8843 131.365 19.9387C131.718 18.201 129.724 16.9831 128.264 17.9898C102.368 35.8495 94.9711 27.8415 98.1371 2.24809C98.3653 0.403589 96.2009 -0.758703 94.9076 0.576127Z" fill="#003366"/>
<path d="M41.1576 11.3593C28.6027 11.3593 8.57325 23.1071 8.57324 46.9736C8.57324 70.3577 34.9751 83.5087 25.3397 117.941C25.0199 119.083 25.727 120.294 26.8942 120.507C44.7434 123.76 56.0167 124.39 75.4685 120.221C75.8332 120.143 76.2178 120.168 76.5709 120.289C81.7717 122.06 88.399 122.673 103.868 122.844C105.706 122.865 106.541 120.607 105.108 119.455C98.4712 114.115 93.171 110.592 85.6944 102.765C85.2353 102.284 85.0533 101.603 85.2021 100.955C91.3858 74.0411 90.5 43.5469 77.9854 27.6037C65.3101 11.4556 53.7125 11.3593 41.1576 11.3593Z" fill="#73B9FF"/>
<path d="M44.9295 43.0165C44.9295 49.9827 39.2822 55.6299 32.316 55.6299C25.3499 55.6299 19.7026 49.9827 19.7026 43.0165C19.7026 36.0503 25.3499 30.4031 32.316 30.4031C39.2822 30.4031 44.9295 36.0503 44.9295 43.0165Z" fill="white"/>
<path d="M39.2411 43.0165C39.2411 46.8411 36.1407 49.9415 32.3161 49.9415C28.4915 49.9415 25.3911 46.8411 25.3911 43.0165C25.3911 39.1919 28.4915 36.0915 32.3161 36.0915C36.1407 36.0915 39.2411 39.1919 39.2411 43.0165Z" fill="#003366"/>
<path d="M71.6404 43.0165C71.6404 49.9827 65.9932 55.6299 59.027 55.6299C52.0608 55.6299 46.4136 49.9827 46.4136 43.0165C46.4136 36.0503 52.0608 30.4031 59.027 30.4031C65.9932 30.4031 71.6404 36.0503 71.6404 43.0165Z" fill="white"/>
<path d="M65.9521 43.0165C65.9521 46.8411 62.8516 49.9415 59.0271 49.9415C55.2025 49.9415 52.1021 46.8411 52.1021 43.0165C52.1021 39.1919 55.2025 36.0915 59.0271 36.0915C62.8516 36.0915 65.9521 39.1919 65.9521 43.0165Z" fill="#003366"/>
<path d="M31.8148 38.5459C32.538 37.8228 33.6373 37.5898 34.5153 38.114C34.9306 38.3619 35.3503 38.6532 35.655 38.9611C35.9453 39.2544 36.2204 39.653 36.4566 40.0497C36.9801 40.9292 36.7448 42.0295 36.0211 42.7532C35.3488 43.4255 34.3464 43.6827 33.4972 43.255C33.0345 43.0218 32.5544 42.73 32.2182 42.3979C31.8677 42.0517 31.5606 41.55 31.3171 41.0692C30.8876 40.221 31.1426 39.2182 31.8148 38.5459Z" fill="white"/>
<path d="M57.7834 38.0513C58.5065 37.3282 59.6058 37.0951 60.4838 37.6194C60.8991 37.8673 61.3188 38.1586 61.6235 38.4665C61.9138 38.7598 62.1889 39.1583 62.4251 39.5551C62.9487 40.4346 62.7134 41.5348 61.9896 42.2586C61.3173 42.9309 60.3149 43.1881 59.4657 42.7603C59.003 42.5272 58.5229 42.2354 58.1867 41.9033C57.8362 41.557 57.5291 41.0553 57.2857 40.5746C56.8561 39.7264 57.1111 38.7236 57.7834 38.0513Z" fill="white"/>
<path fill-rule="evenodd" clip-rule="evenodd" d="M47.2524 58.2329C46.5596 57.5432 45.3131 57.4912 44.6261 58.1029C43.5391 59.0706 42.0536 60.2163 40.3525 61.0417C38.6541 61.8658 36.6853 62.397 34.6638 62.0495C34.2599 61.9801 33.9888 61.5965 34.0582 61.1926C34.1276 60.7888 34.5113 60.5176 34.9151 60.5871C36.5238 60.8635 38.1683 60.4521 39.7047 59.7066C41.2386 58.9624 42.6096 57.9113 43.6393 56.9946C44.9552 55.8229 47.0918 55.979 48.2994 57.1813C50.1798 59.0534 53.5095 61.3667 58.0354 60.5871C58.4392 60.5175 58.823 60.7885 58.8926 61.1923C58.9621 61.5962 58.6911 61.9799 58.2873 62.0495C53.0778 62.9468 49.2881 60.2597 47.2524 58.2329Z" fill="#003366"/>
<path fill-rule="evenodd" clip-rule="evenodd" d="M31.8123 63.9572C32.0202 64.1344 32.0451 64.4466 31.8678 64.6545L27.7446 69.4914C27.5674 69.6993 27.2552 69.7242 27.0473 69.547C26.8394 69.3697 26.8146 69.0575 26.9918 68.8496L31.115 64.0127C31.2922 63.8048 31.6044 63.78 31.8123 63.9572Z" fill="#003366"/>
<path fill-rule="evenodd" clip-rule="evenodd" d="M30.4394 61.91C30.576 62.1466 30.495 62.4491 30.2584 62.5857L24.7541 65.7636C24.5175 65.9002 24.215 65.8191 24.0784 65.5825C23.9418 65.3459 24.0229 65.0434 24.2595 64.9068L29.7638 61.7289C30.0003 61.5923 30.3029 61.6734 30.4394 61.91Z" fill="#003366"/>
<path fill-rule="evenodd" clip-rule="evenodd" d="M29.0994 59.813C29.1789 60.0743 29.0315 60.3506 28.7702 60.4302L22.6896 62.2802C22.4283 62.3598 22.1519 62.2124 22.0724 61.951C21.9929 61.6897 22.1403 61.4133 22.4016 61.3338L28.4822 59.4837C28.7436 59.4042 29.0199 59.5516 29.0994 59.813Z" fill="#003366"/>
<path fill-rule="evenodd" clip-rule="evenodd" d="M60.8767 63.9572C60.6688 64.1344 60.6439 64.4466 60.8211 64.6545L64.9443 69.4914C65.1215 69.6993 65.4337 69.7242 65.6416 69.547C65.8495 69.3697 65.8744 69.0575 65.6972 68.8496L61.574 64.0127C61.3968 63.8048 61.0846 63.78 60.8767 63.9572Z" fill="#003366"/>
<path fill-rule="evenodd" clip-rule="evenodd" d="M62.2498 61.91C62.1132 62.1466 62.1942 62.4491 62.4308 62.5857L67.9351 65.7636C68.1717 65.9002 68.4742 65.8191 68.6108 65.5825C68.7474 65.3459 68.6663 65.0434 68.4297 64.9068L62.9255 61.7289C62.6889 61.5923 62.3864 61.6734 62.2498 61.91Z" fill="#003366"/>
<path fill-rule="evenodd" clip-rule="evenodd" d="M63.5895 59.813C63.51 60.0743 63.6574 60.3506 63.9188 60.4302L69.9993 62.2802C70.2607 62.3598 70.537 62.2124 70.6166 61.951C70.6961 61.6897 70.5487 61.4133 70.2873 61.3338L64.2067 59.4837C63.9454 59.4042 63.6691 59.5516 63.5895 59.813Z" fill="#003366"/>
</svg>
