<svg width="161" height="100" viewBox="0 0 161 100" fill="none" xmlns="http://www.w3.org/2000/svg">
<g clip-path="url(#clip0)">
<path d="M22.1734 57.8804C22.0142 57.6464 21.8577 57.4062 21.7083 57.1664L21.9497 57.018C22.0971 57.2548 22.2515 57.4919 22.4086 57.7228L22.1734 57.8804Z" fill="#3F3D56"/>
<path d="M20.8526 55.6562C20.5893 55.1433 20.3446 54.6135 20.1254 54.0813L20.388 53.9746C20.6044 54.4995 20.8458 55.0223 21.1055 55.5283L20.8526 55.6562ZM19.5322 52.452C19.3581 51.9035 19.205 51.3408 19.0771 50.7796L19.354 50.7174C19.4801 51.2711 19.6311 51.8262 19.8029 52.3673L19.5322 52.452ZM18.7633 49.0756C18.6828 48.5069 18.6252 47.9271 18.5918 47.3519L18.8752 47.3357C18.908 47.9032 18.965 48.4753 19.0443 49.0363L18.7633 49.0756ZM18.846 45.6265L18.5623 45.6199C18.5759 45.044 18.6136 44.4626 18.6742 43.8919L18.9566 43.9215C18.8967 44.4846 18.8595 45.0583 18.846 45.6265ZM19.2075 42.2311L18.9286 42.1786C19.0367 41.6135 19.17 41.046 19.3247 40.4919L19.5983 40.5672C19.4456 41.1139 19.3141 41.6737 19.2075 42.2311ZM20.1268 38.941L19.8605 38.8435C20.0612 38.3037 20.2873 37.7655 20.5326 37.2438L20.7898 37.3629C20.5478 37.8776 20.3247 38.4086 20.1268 38.941ZM58.9991 38.0701C58.7772 37.5477 58.5303 37.0277 58.2652 36.5244L58.5167 36.3938C58.7854 36.904 59.0357 37.4311 59.2606 37.9605L58.9991 38.0701ZM21.5819 35.8448L21.3355 35.705C21.6229 35.2059 21.9351 34.7121 22.2634 34.2375L22.4973 34.3969C22.1735 34.8653 21.8655 35.3524 21.5819 35.8448ZM57.4052 35.0441C57.0995 34.5648 56.7699 34.092 56.4254 33.639L56.652 33.4693C57.0011 33.9284 57.3352 34.4076 57.645 34.8933L57.4052 35.0441ZM23.5295 33.0287L23.3094 32.8507C23.6756 32.4047 24.0647 31.9684 24.4663 31.5538L24.6709 31.749C24.2747 32.1581 23.8907 32.5886 23.5295 33.0287ZM55.3329 32.3183C54.9522 31.8947 54.5491 31.4817 54.135 31.0907L54.3306 30.8865C54.7503 31.2828 55.1588 31.7014 55.5447 32.1307L55.3329 32.3183ZM25.9139 30.5665L25.7261 30.3553C26.1603 29.9747 26.616 29.6073 27.0803 29.2633L27.25 29.489C26.7919 29.8285 26.3424 30.191 25.9139 30.5665ZM52.8399 29.9644C52.3946 29.6082 51.929 29.266 51.4561 28.9473L51.6155 28.7141C52.0949 29.0372 52.5667 29.384 53.018 29.745L52.8399 29.9644ZM28.6703 28.5242L28.5198 28.2854C29.0113 27.9802 29.5212 27.6919 30.0354 27.4284L30.1655 27.6788C29.6582 27.9387 29.1552 28.2232 28.6703 28.5242ZM49.9928 28.0465C49.4942 27.7671 48.9783 27.5054 48.4596 27.2685L48.5783 27.0125C49.104 27.2526 49.6269 27.518 50.1323 27.801L49.9928 28.0465ZM31.7257 26.9589L31.6168 26.6987C32.1516 26.4782 32.7022 26.2772 33.2532 26.1015L33.34 26.3698C32.7965 26.5431 32.2533 26.7413 31.7257 26.9589ZM46.8669 26.619C46.3297 26.4254 45.7774 26.2518 45.2254 26.103L45.2998 25.8311C45.8593 25.9819 46.4191 26.1579 46.9637 26.3541L46.8669 26.619ZM34.9991 25.9153L34.935 25.6408C35.4987 25.5111 36.0755 25.4031 36.6493 25.3199L36.6904 25.5987C36.1242 25.6809 35.5552 25.7873 34.9991 25.9153V25.9153ZM43.5464 25.7239C42.9854 25.6213 42.412 25.5405 41.8421 25.484L41.8704 25.2036C42.4479 25.2609 43.0292 25.3427 43.5979 25.4468L43.5464 25.7239ZM38.4022 25.4216L38.3843 25.1403C38.9616 25.1042 39.5502 25.0913 40.1287 25.1017L40.1235 25.3835C39.5523 25.3731 38.972 25.3859 38.4022 25.4216Z" fill="#3F3D56"/>
<path d="M59.854 40.4946C59.778 40.2265 59.6954 39.9562 59.6084 39.6912L59.8782 39.6039C59.9664 39.8724 60.0501 40.1465 60.1271 40.4183L59.854 40.4946Z" fill="#3F3D56"/>
<path d="M58.1232 24.715H57.8394C57.8394 24.433 57.8443 24.1469 57.8543 23.8647L58.138 23.8745C58.1282 24.1535 58.1232 24.4363 58.1232 24.715Z" fill="#3F3D56"/>
<path d="M58.2581 22.1801L57.9758 22.1502C58.0367 21.5828 58.1189 21.0107 58.2204 20.4499L58.4998 20.4997C58.3995 21.0539 58.3182 21.6193 58.2581 22.1801ZM58.8624 18.8409L58.5874 18.7713C58.7295 18.2183 58.8937 17.6638 59.0754 17.1232L59.3447 17.2124C59.1651 17.7466 59.0029 18.2945 58.8624 18.8409ZM104.129 15.8681C103.917 15.3452 103.683 14.8235 103.434 14.3176L103.689 14.1937C103.941 14.7057 104.178 15.2336 104.393 15.7628L104.129 15.8681ZM59.9446 15.6211L59.6825 15.5128C59.9032 14.9863 60.1463 14.4606 60.405 13.9505L60.6585 14.0772C60.4029 14.5814 60.1627 15.1008 59.9446 15.6211ZM102.627 12.8205C102.342 12.3336 102.035 11.8504 101.715 11.3846L101.95 11.2258C102.274 11.6972 102.584 12.1861 102.873 12.6788L102.627 12.8205ZM61.4824 12.5884L61.2387 12.444C61.5328 11.9547 61.8492 11.4692 62.1787 11.0009L62.4114 11.1623C62.0857 11.6251 61.7731 12.1049 61.4824 12.5884H61.4824ZM100.702 10.017C100.349 9.57469 99.9756 9.13985 99.5927 8.72448L99.802 8.5342C100.189 8.95452 100.567 9.39446 100.924 9.84195L100.702 10.017ZM63.4407 9.80591L63.2202 9.62842C63.5823 9.18512 63.9649 8.74938 64.3574 8.33332L64.5646 8.52594C64.1766 8.93719 63.7985 9.36783 63.4407 9.80591ZM98.3937 7.51366C97.9811 7.1258 97.5496 6.74799 97.1108 6.39061L97.2907 6.17281C97.7347 6.53432 98.1714 6.91667 98.5889 7.30907L98.3937 7.51366ZM65.7774 7.32888L65.5845 7.12209C66.0059 6.73471 66.4468 6.35739 66.8951 6.00069L67.0727 6.22056C66.6297 6.57312 66.1938 6.94597 65.7774 7.32888V7.32888ZM95.7505 5.3612C95.2868 5.03553 94.8054 4.72252 94.3197 4.43084L94.4666 4.18979C94.958 4.48491 95.4452 4.80164 95.9143 5.13115L95.7505 5.3612ZM68.444 5.20683L68.2827 4.97499C68.7552 4.65111 69.2456 4.3401 69.7404 4.05049L69.8845 4.29319C69.3956 4.57943 68.9109 4.8868 68.444 5.20682V5.20683ZM92.8253 3.6047C92.3193 3.34811 91.7978 3.10678 91.275 2.88726L91.3856 2.62778C91.9146 2.84984 92.4424 3.09412 92.9545 3.35375L92.8253 3.6047ZM71.3871 3.48453L71.2608 3.2322C71.775 2.97876 72.305 2.74067 72.8361 2.52459L72.9438 2.78532C72.4189 2.99884 71.8952 3.23412 71.3871 3.48452V3.48453ZM89.6766 2.28265C89.1397 2.10117 88.5885 1.93676 88.0385 1.79401L88.1103 1.52145C88.667 1.66585 89.2248 1.83226 89.7681 2.01587L89.6766 2.28265ZM74.5467 2.19927L74.4583 1.93153C75.0038 1.75404 75.5632 1.59396 76.1209 1.45575L76.1897 1.72913C75.6385 1.86569 75.0857 2.02384 74.5467 2.19926L74.5467 2.19927ZM86.3694 1.42424C85.8113 1.3214 85.2422 1.2374 84.678 1.17453L84.7096 0.894539C85.2806 0.958173 85.8565 1.04313 86.4212 1.14715L86.3694 1.42424ZM77.8625 1.37788L77.8138 1.10023C78.3793 1.00248 78.9559 0.923839 79.5279 0.866403L79.5564 1.1468C78.9913 1.20349 78.4213 1.28122 77.8625 1.37788L77.8625 1.37788ZM82.9729 1.04533C82.4045 1.02242 81.8267 1.0194 81.2627 1.03612L81.2541 0.75448C81.8249 0.737558 82.4094 0.740515 82.9845 0.763836L82.9729 1.04533Z" fill="#3F3D56"/>
<path d="M104.96 18.286C104.884 18.0178 104.802 17.7471 104.716 17.4812L104.986 17.3954C105.073 17.6644 105.156 17.9383 105.233 18.2096L104.96 18.286Z" fill="#3F3D56"/>
<path d="M22.0075 61.3777C24.6185 61.3777 26.7351 61.2201 26.7351 61.0257C26.7351 60.8313 24.6185 60.6737 22.0075 60.6737C19.3964 60.6737 17.2798 60.8313 17.2798 61.0257C17.2798 61.2201 19.3964 61.3777 22.0075 61.3777Z" fill="#73B9FF"/>
<path d="M59.7108 44.3644C62.3219 44.3644 64.4385 44.2068 64.4385 44.0124C64.4385 43.818 62.3219 43.6604 59.7108 43.6604C57.0998 43.6604 54.9832 43.818 54.9832 44.0124C54.9832 44.2068 57.0998 44.3644 59.7108 44.3644Z" fill="#73B9FF"/>
<path d="M106.278 26.6471C108.889 26.6471 111.006 26.4895 111.006 26.2951C111.006 26.1007 108.889 25.9431 106.278 25.9431C103.667 25.9431 101.551 26.1007 101.551 26.2951C101.551 26.4895 103.667 26.6471 106.278 26.6471Z" fill="#73B9FF"/>
<path d="M104.405 25.1395L90.189 39.2523L90.3896 39.4515L104.606 25.3387L104.405 25.1395Z" fill="#3F3D56"/>
<path d="M86.0674 41.0555H62.1926V41.3373H86.0674V41.0555Z" fill="#3F3D56"/>
<path d="M57.8353 42.9764L44.4819 56.2327L44.6826 56.432L58.0359 43.1757L57.8353 42.9764Z" fill="#3F3D56"/>
<path d="M40.4455 58.0688H24.4895V58.3506H40.4455V58.0688Z" fill="#3F3D56"/>
<path d="M20.152 59.8523L4.29639 75.5927L4.49707 75.7919L20.3527 60.0516L20.152 59.8523Z" fill="#3F3D56"/>
<path d="M22.0074 60.8146C21.4884 60.8146 20.9811 60.6618 20.5495 60.3756C20.118 60.0894 19.7817 59.6826 19.5831 59.2066C19.3844 58.7306 19.3325 58.2068 19.4337 57.7015C19.535 57.1962 19.7849 56.7321 20.1518 56.3678C20.5188 56.0034 20.9863 55.7553 21.4953 55.6548C22.0043 55.5543 22.5319 55.6059 23.0114 55.803C23.4909 56.0002 23.9007 56.3341 24.189 56.7625C24.4774 57.1908 24.6313 57.6945 24.6313 58.2097C24.6305 58.9003 24.3538 59.5624 23.8619 60.0507C23.37 60.5391 22.703 60.8138 22.0074 60.8146ZM22.0074 55.8865C21.5445 55.8865 21.0921 56.0228 20.7072 56.278C20.3224 56.5333 20.0224 56.8961 19.8453 57.3206C19.6682 57.7451 19.6218 58.2122 19.7121 58.6629C19.8024 59.1135 20.0253 59.5275 20.3525 59.8524C20.6798 60.1773 21.0968 60.3985 21.5507 60.4882C22.0047 60.5778 22.4752 60.5318 22.9028 60.356C23.3304 60.1802 23.6959 59.8824 23.953 59.5004C24.2102 59.1183 24.3474 58.6692 24.3474 58.2097C24.3467 57.5938 24.1 57.0033 23.6613 56.5678C23.2226 56.1323 22.6278 55.8873 22.0074 55.8865Z" fill="#3F3D56"/>
<path d="M42.9274 60.8146C42.4085 60.8146 41.9012 60.6618 41.4696 60.3756C41.0381 60.0894 40.7018 59.6825 40.5032 59.2065C40.3046 58.7306 40.2526 58.2068 40.3539 57.7015C40.4551 57.1962 40.705 56.732 41.072 56.3677C41.439 56.0034 41.9065 55.7553 42.4155 55.6548C42.9245 55.5543 43.4521 55.6059 43.9316 55.8031C44.4111 56.0002 44.8209 56.3341 45.1092 56.7625C45.3975 57.1908 45.5514 57.6945 45.5514 58.2097C45.5507 58.9003 45.274 59.5624 44.782 60.0508C44.2901 60.5391 43.6231 60.8138 42.9274 60.8146ZM42.9274 55.8865C42.4646 55.8865 42.0122 56.0228 41.6273 56.2781C41.2425 56.5333 40.9426 56.8962 40.7654 57.3207C40.5883 57.7452 40.542 58.2123 40.6323 58.6629C40.7226 59.1135 40.9454 59.5275 41.2727 59.8524C41.6 60.1773 42.017 60.3985 42.4709 60.4882C42.9249 60.5778 43.3954 60.5318 43.823 60.356C44.2506 60.1802 44.6161 59.8824 44.8732 59.5003C45.1303 59.1183 45.2676 58.6692 45.2676 58.2097C45.2669 57.5938 45.0201 57.0033 44.5814 56.5677C44.1427 56.1322 43.5479 55.8872 42.9274 55.8865Z" fill="#3F3D56"/>
<path d="M59.7108 43.8013C59.1919 43.8013 58.6846 43.6485 58.2531 43.3623C57.8216 43.076 57.4852 42.6692 57.2866 42.1932C57.0881 41.7172 57.0361 41.1935 57.1373 40.6882C57.2386 40.1829 57.4885 39.7188 57.8555 39.3545C58.2224 38.9902 58.69 38.7421 59.199 38.6416C59.7079 38.5411 60.2355 38.5926 60.715 38.7898C61.1945 38.987 61.6043 39.3208 61.8926 39.7492C62.1809 40.1776 62.3348 40.6812 62.3348 41.1964C62.334 41.887 62.0573 42.5491 61.5654 43.0375C61.0735 43.5258 60.4065 43.8005 59.7108 43.8013ZM59.7108 38.8733C59.248 38.8733 58.7956 39.0096 58.4107 39.2648C58.0259 39.5201 57.726 39.8829 57.5489 40.3074C57.3718 40.7319 57.3254 41.199 57.4157 41.6497C57.506 42.1003 57.7289 42.5142 58.0562 42.8391C58.3835 43.164 58.8004 43.3852 59.2544 43.4749C59.7083 43.5645 60.1788 43.5185 60.6064 43.3427C61.034 43.1668 61.3995 42.8691 61.6566 42.487C61.9138 42.105 62.051 41.6558 62.051 41.1964C62.0503 40.5805 61.8035 39.99 61.3648 39.5545C60.9261 39.1189 60.3313 38.874 59.7108 38.8733V38.8733Z" fill="#3F3D56"/>
<path d="M88.5495 43.8013C88.0305 43.8013 87.5232 43.6485 87.0917 43.3623C86.6602 43.076 86.3239 42.6692 86.1253 42.1932C85.9267 41.7172 85.8747 41.1935 85.976 40.6882C86.0772 40.1829 86.3271 39.7188 86.6941 39.3545C87.061 38.9902 87.5286 38.7421 88.0376 38.6416C88.5466 38.5411 89.0742 38.5926 89.5536 38.7898C90.0331 38.987 90.4429 39.3208 90.7312 39.7492C91.0195 40.1776 91.1734 40.6812 91.1734 41.1964C91.1727 41.887 90.896 42.5491 90.404 43.0375C89.9121 43.5258 89.2451 43.8005 88.5495 43.8013ZM88.5495 38.8733C88.0866 38.8733 87.6342 39.0096 87.2494 39.2648C86.8645 39.5201 86.5646 39.8829 86.3875 40.3074C86.2104 40.7319 86.164 41.199 86.2543 41.6497C86.3447 42.1003 86.5675 42.5142 86.8948 42.8391C87.2221 43.164 87.6391 43.3852 88.093 43.4749C88.5469 43.5645 89.0175 43.5185 89.445 43.3427C89.8726 43.1668 90.2381 42.8691 90.4952 42.487C90.7524 42.105 90.8896 41.6558 90.8896 41.1964C90.8889 40.5805 90.6421 39.99 90.2034 39.5544C89.7647 39.1189 89.1699 38.874 88.5495 38.8733V38.8733Z" fill="#3F3D56"/>
<path d="M106.278 26.084C105.759 26.084 105.252 25.9312 104.821 25.645C104.389 25.3588 104.053 24.9519 103.854 24.4759C103.656 24 103.604 23.4762 103.705 22.9709C103.806 22.4656 104.056 22.0015 104.423 21.6372C104.79 21.2729 105.258 21.0248 105.767 20.9243C106.276 20.8238 106.803 20.8754 107.283 21.0725C107.762 21.2697 108.172 21.6035 108.46 22.0319C108.749 22.4603 108.902 22.9639 108.902 23.4791C108.902 24.1697 108.625 24.8318 108.133 25.3202C107.641 25.8085 106.974 26.0832 106.278 26.084ZM106.278 21.156C105.816 21.156 105.363 21.2923 104.978 21.5475C104.594 21.8028 104.294 22.1656 104.116 22.5901C103.939 23.0146 103.893 23.4817 103.983 23.9324C104.074 24.383 104.297 24.7969 104.624 25.1218C104.951 25.4467 105.368 25.668 105.822 25.7576C106.276 25.8472 106.746 25.8012 107.174 25.6254C107.602 25.4495 107.967 25.1518 108.224 24.7697C108.481 24.3877 108.619 23.9386 108.619 23.4791C108.618 22.8632 108.371 22.2727 107.932 21.8372C107.494 21.4017 106.899 21.1567 106.278 21.156V21.156Z" fill="#3F3D56"/>
<path d="M2.62405 80.0573C2.10508 80.0573 1.59775 79.9045 1.16623 79.6183C0.734707 79.3321 0.398374 78.9252 0.19976 78.4492C0.00114627 77.9733 -0.0508274 77.4495 0.0504119 76.9442C0.151651 76.4389 0.401556 75.9747 0.768524 75.6104C1.13549 75.2461 1.60304 74.998 2.11205 74.8975C2.62105 74.797 3.14865 74.8485 3.62813 75.0457C4.1076 75.2429 4.51741 75.5767 4.80574 76.0051C5.09407 76.4335 5.24797 76.9371 5.24797 77.4523C5.24718 78.143 4.97049 78.8051 4.47858 79.2934C3.98667 79.7818 3.31973 80.0565 2.62405 80.0573ZM2.62405 75.1292C2.16121 75.1292 1.70876 75.2654 1.32392 75.5207C0.939077 75.7759 0.639124 76.1388 0.461993 76.5633C0.284862 76.9878 0.23851 77.4549 0.328797 77.9055C0.419084 78.3562 0.641956 78.7701 0.969228 79.095C1.2965 79.4199 1.71347 79.6412 2.16742 79.7308C2.62137 79.8205 3.09189 79.7745 3.5195 79.5986C3.94711 79.4228 4.3126 79.1251 4.56974 78.743C4.82688 78.361 4.96413 77.9118 4.96413 77.4523C4.96342 76.8364 4.71665 76.246 4.27796 75.8104C3.83927 75.3749 3.24447 75.1299 2.62405 75.1292Z" fill="#3F3D56"/>
<path d="M22.0075 42.8391C21.3866 42.8391 20.7718 42.9604 20.1983 43.1963C19.6247 43.4322 19.1035 43.7779 18.6645 44.2137C18.2255 44.6495 17.8772 45.1669 17.6397 45.7363C17.4021 46.3057 17.2798 46.916 17.2798 47.5324C17.2798 50.1244 22.0075 58.679 22.0075 58.679C22.0075 58.679 26.7351 50.1244 26.7351 47.5324C26.7351 46.916 26.6129 46.3057 26.3753 45.7363C26.1377 45.1669 25.7894 44.6495 25.3504 44.2137C24.9114 43.7779 24.3903 43.4322 23.8167 43.1963C23.2431 42.9604 22.6283 42.8391 22.0075 42.8391ZM22.0075 49.9964C21.5166 49.9964 21.0367 49.8519 20.6285 49.5811C20.2204 49.3104 19.9022 48.9255 19.7144 48.4753C19.5265 48.0251 19.4774 47.5296 19.5731 47.0517C19.6689 46.5737 19.9053 46.1347 20.2524 45.7901C20.5995 45.4455 21.0418 45.2108 21.5232 45.1157C22.0047 45.0207 22.5038 45.0695 22.9573 45.2559C23.4108 45.4424 23.7985 45.7583 24.0712 46.1635C24.3439 46.5687 24.4895 47.045 24.4895 47.5324C24.4895 48.1859 24.228 48.8126 23.7625 49.2747C23.2971 49.7368 22.6657 49.9964 22.0075 49.9964Z" fill="#73B9FF"/>
<path d="M59.7108 25.2391C58.457 25.2391 57.2545 25.7336 56.3679 26.6137C55.4812 27.4939 54.9832 28.6877 54.9832 29.9324C54.9832 32.5245 59.7108 41.0791 59.7108 41.0791C59.7108 41.0791 64.4385 32.5245 64.4385 29.9324C64.4385 29.3161 64.3162 28.7058 64.0786 28.1364C63.8411 27.5669 63.4928 27.0496 63.0538 26.6137C62.6148 26.1779 62.0936 25.8322 61.52 25.5964C60.9464 25.3605 60.3317 25.2391 59.7108 25.2391ZM59.7108 32.3964C59.2199 32.3964 58.7401 32.2519 58.3319 31.9812C57.9237 31.7104 57.6056 31.3256 57.4177 30.8754C57.2299 30.4251 57.1807 29.9297 57.2765 29.4517C57.3723 28.9738 57.6087 28.5347 57.9558 28.1901C58.3029 27.8455 58.7451 27.6109 59.2266 27.5158C59.7081 27.4207 60.2071 27.4695 60.6607 27.656C61.1142 27.8425 61.5018 28.1583 61.7746 28.5635C62.0473 28.9687 62.1929 29.4451 62.1929 29.9324C62.1929 30.5859 61.9314 31.2126 61.4659 31.6747C61.0004 32.1368 60.3691 32.3964 59.7108 32.3964Z" fill="#73B9FF"/>
<path d="M152.522 99.6558H88.157V100H152.522V99.6558Z" fill="#2F2E41"/>
<path d="M141.271 10.2047C140.271 13.1459 138.736 15.8257 135.609 15.8257C132.482 15.8257 130.123 13.3042 129.947 10.2047C129.722 6.24429 132.41 4.5674 135.609 4.5838C139.389 4.60318 142.459 6.71434 141.271 10.2047Z" fill="#2F2E41"/>
<path d="M141.122 9.76099H129.947V23.8134H141.122V9.76099Z" fill="#2F2E41"/>
<path d="M141.45 20.2301H142.401C142.401 20.2301 144.724 23.1658 143.668 27.1499C142.612 31.1341 143.457 31.868 143.457 31.868C143.457 31.868 144.832 36.1825 143.353 42.6829C141.875 49.1834 144.724 50.9499 144.724 50.9499L142.084 45.7076L140.605 31.868L141.45 20.2301Z" fill="#575A89"/>
<path opacity="0.1" d="M141.45 20.575H142.401C142.401 20.575 144.724 23.5107 143.668 27.4948C142.612 31.4789 143.457 32.2129 143.457 32.2129C143.457 32.2129 144.832 36.5273 143.353 43.0278C141.875 49.5282 144.724 51.2948 144.724 51.2948L142.084 46.0525L140.605 32.2129L141.45 20.575Z" fill="black"/>
<path d="M138.123 15.145C138.123 15.145 137.279 18.5001 137.701 18.5001C138.123 18.5001 139.602 20.2825 139.602 20.2825L140.553 23.7424L139.813 26.2587L137.279 25.7345L134.11 22.2746L133.16 21.3309L132.315 18.2904C132.315 18.2904 133.371 17.0323 132.632 15.9838C131.892 14.9354 138.123 15.145 138.123 15.145Z" fill="#FBBEBE"/>
<path opacity="0.1" d="M138.123 15.145C138.123 15.145 137.279 18.5001 137.701 18.5001C138.123 18.5001 139.602 20.2825 139.602 20.2825L140.553 23.7424L139.813 26.2587L137.279 25.7345L134.11 22.2746L133.16 21.3309L132.315 18.2904C132.315 18.2904 133.371 17.0323 132.632 15.9838C131.892 14.9354 138.123 15.145 138.123 15.145Z" fill="black"/>
<path d="M112.565 24.4763L110.242 20.7019C110.242 20.7019 107.734 15.1928 105.938 17.1849C104.143 19.177 108.657 23.2182 108.657 23.2182L110.981 26.2587L112.565 24.4763Z" fill="#FBBEBE"/>
<path d="M143.404 57.2931L141.714 69.56C141.714 69.56 141.926 70.5037 139.813 73.9636C137.701 77.4235 131.998 84.9724 131.998 84.9724L130.308 81.827C130.308 81.827 132.315 71.8666 135.8 69.7697L135.378 54.6719L143.404 57.2931Z" fill="#FBBEBE"/>
<path opacity="0.1" d="M143.404 57.2931L141.714 69.56C141.714 69.56 141.926 70.5037 139.813 73.9636C137.701 77.4235 131.998 84.9724 131.998 84.9724L130.308 81.827C130.308 81.827 132.315 71.8666 135.8 69.7697L135.378 54.6719L143.404 57.2931Z" fill="black"/>
<path d="M130.308 80.5688L132.632 84.9724C132.632 84.9724 130.731 90.3195 131.47 90.8438C132.209 91.368 133.16 96.0861 131.153 95.5618C129.146 95.0376 127.562 92.9407 127.562 92.6261C127.562 92.3116 128.724 87.9081 128.09 86.8596C127.457 85.8111 127.034 85.4966 127.034 85.4966L125.45 88.1178L124.922 87.8032L127.562 83.3997C127.562 83.3997 127.879 82.5609 129.146 82.0367L130.308 80.5688Z" fill="#2F2E41"/>
<path opacity="0.1" d="M130.308 80.5688L132.632 84.9724C132.632 84.9724 130.731 90.3195 131.47 90.8438C132.209 91.368 133.16 96.0861 131.153 95.5618C129.146 95.0376 127.562 92.9407 127.562 92.6261C127.562 92.3116 128.724 87.9081 128.09 86.8596C127.457 85.8111 127.034 85.4966 127.034 85.4966L125.45 88.1178L124.922 87.8032L127.562 83.3997C127.562 83.3997 127.879 82.5609 129.146 82.0367L130.308 80.5688Z" fill="black"/>
<path d="M135.402 55.5527C135.402 55.5527 136.223 67.1486 134.427 70.1891V85.2869L131.998 85.6015C131.998 85.6015 127.093 77.6083 128.888 69.7449C130.683 61.8815 127.034 54.672 127.034 54.672L135.402 55.5527Z" fill="#FBBEBE"/>
<path d="M134.797 17.7138C137.247 17.7138 139.233 15.7423 139.233 13.3103C139.233 10.8783 137.247 8.90674 134.797 8.90674C132.347 8.90674 130.361 10.8783 130.361 13.3103C130.361 15.7423 132.347 17.7138 134.797 17.7138Z" fill="#FBBEBE"/>
<path d="M139.285 24.8957L134.85 19.3389L132.315 17.6614L131.259 19.0244L128.302 19.8631C128.302 19.8631 126.4 20.2825 124.394 22.5891C122.387 24.8957 118.796 26.2587 118.796 26.2587L115.839 25.7345C115.839 25.7345 112.354 24.1618 112.354 23.7424C112.354 23.323 109.291 26.5733 110.03 27.8314C110.77 29.0896 112.354 30.6623 113.199 31.501C114.044 32.3398 114.361 34.7512 119.536 34.0173C124.711 33.2834 126.612 30.7671 126.612 30.7671C126.612 30.7671 127.562 35.59 130.308 36.5336C133.054 37.4772 142.031 38.1063 142.031 38.1063L143.932 31.8156C143.932 31.8156 146.045 29.0896 143.193 25.1054C143.193 25.1054 143.138 22.8772 142.832 21.3945C142.712 20.8178 142.555 20.3538 142.348 20.1777C141.609 19.5486 137.701 18.5001 137.701 18.5001C137.701 18.5001 138.335 20.5971 138.652 20.7019C138.968 20.8068 139.708 24.3715 139.285 24.8957Z" fill="#575A89"/>
<path d="M125.08 56.1922C130.399 55.8252 133.496 56.6902 134.877 57.3497C135.134 57.4651 135.376 57.6108 135.597 57.7838C135.699 57.8687 135.747 57.9347 135.747 57.9746C135.747 58.2891 143.035 58.9182 145.675 58.2891C148.315 57.66 143.879 44.1349 142.718 42.9816C141.556 41.8283 142.182 37.6072 142.182 37.6072C142.182 37.6072 139.866 37.1103 139.232 37.32C138.599 37.5297 135.325 37.0054 134.163 36.3764C133.001 35.7473 131.523 36.1667 130.572 35.957C130.148 35.8637 129.933 36.0209 129.826 36.2243C129.66 36.5294 129.41 36.7809 129.104 36.9488C126.862 38.2311 125.062 47.0968 123.707 51.9984C122.229 57.3455 125.08 56.1922 125.08 56.1922Z" fill="#2F2E41"/>
<path d="M134.85 84.3433L135.272 86.6499C135.272 86.6499 137.49 89.7953 136.856 92.4164C136.856 92.4164 137.384 95.8764 139.285 96.82C141.186 97.7636 139.602 99.9653 137.807 99.8605C136.011 99.7556 134.321 99.9653 134.11 99.4411C133.899 98.9169 132.632 93.7794 132.632 93.7794L132.285 99.7913L131.229 99.8961L131.575 92.9407C131.575 92.9407 130.731 91.368 131.892 88.7468L131.599 84.7234C131.599 84.7234 134.533 85.3918 134.85 84.3433Z" fill="#2F2E41"/>
<path opacity="0.1" d="M134.877 57.3497C135.134 57.4651 135.376 57.6108 135.597 57.7838C135.653 56.793 135.976 50.801 135.589 50.8975L134.877 57.3497Z" fill="black"/>
<path d="M132.96 7.24636C132.96 7.24636 132.911 6.97488 130.99 7.69012C129.069 8.40535 127.917 13.6835 128.878 16.7828C129.265 18.0318 128.95 18.9324 128.436 19.5625C126.507 21.927 127.266 25.4784 130.076 26.6943C130.155 26.7287 130.236 26.7626 130.319 26.7961L131.519 27.5114C131.519 27.5114 129.989 25.5119 130.755 22.9541C131.42 20.7748 131.502 18.4612 130.993 16.2408C130.905 15.8662 130.805 15.4801 130.692 15.0861C129.731 11.7483 130.199 12.1338 133.561 8.79603C133.561 8.79603 135.482 10.2265 137.163 10.9417C138.844 11.657 140.285 12.3722 139.084 14.7563C137.884 17.1404 135.002 19.2862 136.923 22.3855C138.844 25.4848 139.084 24.2928 138.844 25.4849L138.604 26.6769L140.045 25.2464L139.084 27.1537C139.084 27.1537 142.207 27.1537 143.167 24.7696L143.647 25.2464C143.647 25.2464 145.569 21.9087 141.966 18.8093C141.966 18.8093 140.766 18.0941 142.447 15.71C144.128 13.3259 142.837 8.2 140.675 7.24635C138.514 6.2927 132.96 7.24636 132.96 7.24636Z" fill="#2F2E41"/>
<path d="M135.609 5.76718C136.843 5.76718 137.844 4.77379 137.844 3.54839C137.844 2.32298 136.843 1.32959 135.609 1.32959C134.375 1.32959 133.374 2.32298 133.374 3.54839C133.374 4.77379 134.375 5.76718 135.609 5.76718Z" fill="#2F2E41"/>
<path d="M132.927 2.36504C132.927 1.81501 133.133 1.2846 133.505 0.876696C133.876 0.468791 134.387 0.212468 134.939 0.157445C134.865 0.150195 134.79 0.14624 134.715 0.14624C134.122 0.14624 133.554 0.380005 133.135 0.79611C132.715 1.21221 132.48 1.77658 132.48 2.36504C132.48 2.9535 132.715 3.51786 133.135 3.93396C133.554 4.35007 134.122 4.58383 134.715 4.58383C134.79 4.58383 134.865 4.57988 134.939 4.57263C134.387 4.5176 133.876 4.26128 133.505 3.85337C133.133 3.44547 132.927 2.91506 132.927 2.36504Z" fill="#2F2E41"/>
<path d="M106.278 8.34314C105.658 8.34314 105.043 8.46454 104.469 8.7004C103.896 8.93626 103.374 9.28197 102.935 9.71778C102.496 10.1536 102.148 10.671 101.911 11.2404C101.673 11.8098 101.551 12.4201 101.551 13.0365C101.551 15.6285 106.278 24.1831 106.278 24.1831C106.278 24.1831 111.006 15.6285 111.006 13.0365C111.006 12.4201 110.884 11.8098 110.646 11.2404C110.409 10.671 110.06 10.1536 109.621 9.71778C109.182 9.28197 108.661 8.93626 108.088 8.7004C107.514 8.46454 106.899 8.34314 106.278 8.34314ZM106.278 15.5005C105.788 15.5005 105.308 15.3559 104.9 15.0852C104.491 14.8145 104.173 14.4296 103.985 13.9794C103.798 13.5292 103.748 13.0337 103.844 12.5558C103.94 12.0778 104.176 11.6388 104.523 11.2942C104.871 10.9496 105.313 10.7149 105.794 10.6198C106.276 10.5247 106.775 10.5735 107.228 10.76C107.682 10.9465 108.069 11.2623 108.342 11.6675C108.615 12.0727 108.76 12.5491 108.76 13.0365C108.76 13.69 108.499 14.3167 108.034 14.7788C107.568 15.2409 106.937 15.5005 106.278 15.5005Z" fill="#73B9FF"/>
<path d="M68.1668 95.6698C69.5796 95.6698 70.7249 94.5328 70.7249 93.1302C70.7249 91.7277 69.5796 90.5907 68.1668 90.5907C66.754 90.5907 65.6086 91.7277 65.6086 93.1302C65.6086 94.5328 66.754 95.6698 68.1668 95.6698Z" fill="#F1F1F1"/>
<path d="M84.0826 84.9277C85.4954 84.9277 86.6407 83.7907 86.6407 82.3882C86.6407 80.9856 85.4954 79.8486 84.0826 79.8486C82.6697 79.8486 81.5244 80.9856 81.5244 82.3882C81.5244 83.7907 82.6697 84.9277 84.0826 84.9277Z" fill="#F1F1F1"/>
<path d="M64.3999 74.9256C65.8128 74.9256 66.9581 73.7886 66.9581 72.386C66.9581 70.9835 65.8128 69.8465 64.3999 69.8465C62.9871 69.8465 61.8418 70.9835 61.8418 72.386C61.8418 73.7886 62.9871 74.9256 64.3999 74.9256Z" fill="#F1F1F1"/>
</g>
<defs>
<clipPath id="clip0">
<rect width="161" height="100" fill="white"/>
</clipPath>
</defs>
</svg>
