<svg width="293" height="257" viewBox="0 0 293 257" fill="none" xmlns="http://www.w3.org/2000/svg">
<path fill-rule="evenodd" clip-rule="evenodd" d="M157.408 22.3588C194.782 19.4867 233.502 -13.8236 264.515 7.21809C296.281 28.77 292.413 75.8954 292.866 114.264C293.327 153.278 294.078 195.69 267.076 223.869C239.71 252.427 196.961 254.66 157.408 255.623C116.492 256.62 69.0429 260.275 42.2618 229.344C16.1013 199.129 30.5373 153.969 35.0164 114.264C38.7734 80.961 38.7863 42.6358 65.5956 22.5044C91.0312 3.40455 125.687 24.7965 157.408 22.3588Z" fill="#E6E7F2"/>
<g clip-path="url(#clip0)">
<path d="M235.922 44.1155C244.927 57.2302 242.934 74.2194 242.934 74.2194C242.934 74.2194 226.342 69.9455 217.337 56.8307C208.332 43.716 210.325 26.7268 210.325 26.7268C210.325 26.7268 226.917 31.0008 235.922 44.1155Z" fill="#2F2E41"/>
<path d="M229.443 46.6197C230.496 62.4843 242.592 74.6012 242.592 74.6012C242.592 74.6012 252.979 60.9964 251.925 45.1318C250.871 29.2671 238.776 17.1503 238.776 17.1503C238.776 17.1503 228.389 30.755 229.443 46.6197Z" fill="#73B9FF"/>
<path d="M126.056 0.617696L248.314 61.9741C249.331 62.4842 250.174 63.2824 250.738 64.2687C251.302 65.255 251.562 66.3856 251.485 67.5187L244.382 172.545C244.35 173.016 244.202 173.472 243.951 173.872C243.699 174.272 243.353 174.604 242.942 174.837C242.531 175.071 242.068 175.199 241.595 175.211C241.123 175.223 240.654 175.117 240.232 174.904L115.186 111.202L121.606 3.17798C121.636 2.67055 121.792 2.17854 122.06 1.74614C122.328 1.31374 122.699 0.954499 123.14 0.70067C123.581 0.446841 124.079 0.306378 124.588 0.291895C125.097 0.277413 125.601 0.389365 126.056 0.617696Z" fill="#D0CDE1"/>
<path d="M127.464 2.75792L246.718 62.6072C247.71 63.1048 248.532 63.8834 249.083 64.8455C249.633 65.8076 249.887 66.9104 249.812 68.0157L242.883 170.462C242.852 170.922 242.708 171.367 242.462 171.757C242.217 172.147 241.879 172.47 241.478 172.698C241.077 172.926 240.626 173.051 240.165 173.063C239.704 173.074 239.247 172.971 238.835 172.764L116.861 110.626L123.123 5.25531C123.152 4.76035 123.304 4.28042 123.565 3.85864C123.826 3.43687 124.189 3.08645 124.619 2.83885C125.049 2.59126 125.534 2.45425 126.031 2.44012C126.528 2.42599 127.02 2.53519 127.464 2.75792Z" fill="#3F3D56"/>
<path d="M132.69 10.7073L240.791 64.9589C241.689 65.41 242.435 66.1158 242.934 66.9879C243.433 67.86 243.662 68.8596 243.595 69.8616L237.314 162.727C237.286 163.143 237.155 163.546 236.933 163.9C236.71 164.253 236.404 164.547 236.04 164.753C235.677 164.96 235.268 165.073 234.85 165.084C234.432 165.094 234.018 165.001 233.645 164.813L123.078 108.486L128.755 12.9711C128.781 12.5225 128.919 12.0874 129.156 11.7051C129.393 11.3228 129.721 11.0051 130.111 10.7807C130.501 10.5563 130.941 10.4321 131.391 10.4193C131.841 10.4064 132.287 10.5054 132.69 10.7073Z" fill="white"/>
<path d="M21.1458 162.881L143.56 224.42C144.699 224.992 145.957 225.289 147.232 225.287C148.507 225.286 149.764 224.985 150.902 224.411L241.46 178.523C242.522 177.463 242.374 175.892 242.034 174.713C241.869 174.142 241.645 173.59 241.365 173.065L229.024 166.586L125.269 114.912L119.07 111.627C117.429 110.759 115.602 110.302 113.745 110.295C111.888 110.287 110.057 110.73 108.409 111.584L21.1075 156.851C20.5521 157.138 20.0869 157.572 19.7635 158.107C19.4401 158.641 19.271 159.254 19.275 159.878C19.2789 160.502 19.4558 161.113 19.786 161.643C20.1162 162.173 20.5868 162.602 21.1458 162.881Z" fill="#D0CDE1"/>
<path opacity="0.1" d="M21.1458 162.881L143.56 224.42C144.699 224.992 145.957 225.289 147.232 225.287C148.507 225.286 149.764 224.985 150.902 224.411L241.46 178.523C242.522 177.463 242.374 175.892 242.034 174.713L151.746 221.558C150.645 222.129 149.423 222.433 148.182 222.444C146.94 222.454 145.713 222.172 144.602 221.619L19.3186 159.315C19.2008 160.026 19.3148 160.756 19.6436 161.398C19.9725 162.04 20.499 162.56 21.1458 162.881Z" fill="black"/>
<path opacity="0.1" d="M137.336 181.32L97.6922 161.322C96.894 160.92 96.0105 160.715 95.1164 160.725C94.2222 160.735 93.3436 160.96 92.5548 161.381L69.5572 173.645C69.2914 173.787 69.0698 173.998 68.9164 174.257C68.7631 174.516 68.6838 174.812 68.6874 175.113C68.6909 175.413 68.7771 175.707 68.9366 175.963C69.0961 176.218 69.3226 176.424 69.5916 176.56L110.013 196.906C110.684 197.244 111.428 197.412 112.18 197.395C112.931 197.377 113.667 197.176 114.322 196.807L137.411 183.823C137.636 183.696 137.822 183.51 137.949 183.286C138.076 183.061 138.139 182.806 138.132 182.549C138.124 182.291 138.046 182.04 137.905 181.823C137.765 181.607 137.568 181.433 137.336 181.32Z" fill="black"/>
<path opacity="0.1" d="M230.704 177.975L188.043 200.598C187.552 200.858 187.006 200.997 186.45 201.003C185.894 201.008 185.345 200.88 184.849 200.63L64.3152 139.785C63.9756 139.613 63.6905 139.351 63.4918 139.027C63.2932 138.703 63.1888 138.33 63.1904 137.95C63.1921 137.57 63.2996 137.198 63.5011 136.876C63.7025 136.554 63.9899 136.294 64.331 136.125L105.99 115.543C106.618 115.233 107.309 115.073 108.01 115.075C108.71 115.078 109.401 115.243 110.026 115.557L230.685 176.242C230.845 176.322 230.98 176.445 231.075 176.597C231.17 176.749 231.221 176.924 231.223 177.103C231.225 177.282 231.177 177.458 231.086 177.612C230.994 177.765 230.862 177.891 230.704 177.975Z" fill="black"/>
<path d="M162.646 65.1529L162.432 65.58L201.654 85.1556L201.867 84.7285L162.646 65.1529Z" fill="#73B9FF"/>
<path d="M162.643 70.894L162.425 71.3187L201.657 91.351L201.875 90.9262L162.643 70.894Z" fill="#73B9FF"/>
<path d="M169.824 81.8617L169.606 82.287L192.084 93.7517L192.302 93.3264L169.824 81.8617Z" fill="#73B9FF"/>
<path d="M47.0216 105.765C47.0216 105.765 37.4572 101.605 32.9648 106C28.4724 110.394 44.9928 108.948 47.0216 105.765Z" fill="#3F3D56"/>
<path d="M30.5064 86.0358C33.7206 80.6146 40.0796 80.3619 40.0796 80.3619C40.0796 80.3619 46.276 79.571 50.251 87.8276C53.9561 95.5234 59.0695 102.954 51.0743 104.755L49.6301 100.269L48.7357 105.089C47.5974 105.171 46.4554 105.191 45.3149 105.148C36.7527 104.872 28.5984 105.229 28.861 102.162C29.21 98.0845 27.4137 91.2521 30.5064 86.0358Z" fill="#2F2E41"/>
<path d="M26.0089 184.313C26.0089 184.313 30.0666 191.836 32.675 191.836C35.2835 191.836 34.9937 196.754 34.414 197.911C33.8344 199.068 32.3852 201.672 34.7038 205.433C35.5137 206.747 35.3689 208.237 34.8374 209.62C33.3483 213.496 27.5557 212.322 27.7405 208.175C27.7425 208.129 27.745 208.083 27.7479 208.037C28.0377 203.408 25.7191 196.175 23.4004 194.439C21.0818 192.704 19.053 188.075 19.053 188.075L26.0089 184.313Z" fill="#FFB8B8"/>
<path d="M53.8326 182.578C53.8326 182.578 49.775 190.1 47.1665 190.1C44.558 190.1 44.8478 195.018 45.4275 196.175C46.0072 197.333 47.4563 199.936 45.1377 203.697C44.3278 205.011 44.4727 206.501 45.0041 207.884C46.4932 211.76 52.2858 210.586 52.101 206.439C52.099 206.393 52.0965 206.347 52.0936 206.301C51.8038 201.672 54.1224 194.439 56.4411 192.704C58.7597 190.968 60.7885 186.339 60.7885 186.339L53.8326 182.578Z" fill="#FFB8B8"/>
<path d="M50.6445 145.546L52.3835 149.307C52.3835 149.307 77.8887 157.697 75.57 167.533C73.2514 177.37 61.9479 192.703 60.209 192.125C58.47 191.546 49.1954 189.81 48.9055 184.892C48.6157 179.974 55.5717 171.294 55.5717 171.294L46.0072 162.615L32.0894 162.326L20.2123 171.294C20.2123 171.294 32.675 182.288 27.1682 186.628C21.6614 190.968 13.5461 193.861 12.3868 192.125C11.2275 190.389 -1.81492 164.64 0.213897 162.326C2.24271 160.011 22.8207 151.332 22.8207 151.332L28.3275 143.521L49.775 142.363L50.6445 145.546Z" fill="#2F2E41"/>
<path d="M45.4276 97.8095C45.4276 97.8095 43.9784 107.357 46.8767 108.514C49.775 109.671 41.0801 114.59 41.0801 114.59H36.153L32.9648 107.935C32.9648 107.935 35.8632 102.728 34.1242 97.8094C32.3852 92.8911 45.4276 97.8095 45.4276 97.8095Z" fill="#FFB8B8"/>
<path opacity="0.1" d="M45.4276 97.8095C45.4276 97.8095 43.9784 107.357 46.8767 108.514C49.775 109.671 41.0801 114.59 41.0801 114.59H36.153L32.9648 107.935C32.9648 107.935 35.8632 102.728 34.1242 97.8094C32.3852 92.8911 45.4276 97.8095 45.4276 97.8095Z" fill="black"/>
<path d="M47.4564 105.91C47.4564 105.91 44.2683 109.382 43.6886 109.961C43.109 110.539 40.5005 113.722 34.9937 109.093C29.4869 104.464 28.9072 109.961 28.9072 109.961V144.678C28.9072 144.678 33.5445 142.653 37.3123 144.678C41.0801 146.703 48.9056 144.099 48.9056 144.099L50.3547 108.225L47.4564 105.91Z" fill="#D0CDE1"/>
<path d="M45.3275 105.91C45.3275 105.91 48.0361 104.753 50.3547 105.91C52.6734 107.067 60.7886 112.854 60.209 115.457C59.6293 118.061 52.0937 136.288 57.3107 144.967C62.5276 153.646 63.3971 155.961 63.3971 155.961L50.6446 149.307C50.6446 149.307 40.7903 143.231 41.6598 139.47C42.5293 135.709 45.3275 105.91 45.3275 105.91Z" fill="#3F3D56"/>
<path d="M33.8308 105.91C33.8308 105.91 27.7478 106.489 27.4579 107.067C27.1681 107.646 18.3282 110.105 18.9079 112.709C19.4876 115.313 27.4579 138.602 23.9799 142.942C20.502 147.282 14.7054 153.357 16.7342 153.936C18.763 154.514 22.241 153.068 25.7189 153.936C29.1969 154.804 37.3122 147.571 36.4427 139.76C35.5732 131.948 36.4358 107.935 33.8308 105.91Z" fill="#3F3D56"/>
<path d="M48.3258 161.169V164.062C48.3258 164.062 49.775 170.716 45.1377 170.427C40.5004 170.137 43.3987 162.326 43.3987 162.326L43.6885 159.722L48.3258 161.169Z" fill="#FFB8B8"/>
<path d="M35.2834 161.458C35.2834 161.458 38.4716 168.112 35.2834 168.691C32.0953 169.269 29.7766 164.93 29.7766 163.772C29.7766 162.615 35.2834 161.458 35.2834 161.458Z" fill="#FFB8B8"/>
<path d="M31.0809 95.0609C31.401 95.0609 31.6605 94.5428 31.6605 93.9037C31.6605 93.2646 31.401 92.7465 31.0809 92.7465C30.7607 92.7465 30.5012 93.2646 30.5012 93.9037C30.5012 94.5428 30.7607 95.0609 31.0809 95.0609Z" fill="#FFB8B8"/>
<path d="M48.181 95.0609C48.5011 95.0609 48.7607 94.5428 48.7607 93.9037C48.7607 93.2646 48.5011 92.7465 48.181 92.7465C47.8608 92.7465 47.6013 93.2646 47.6013 93.9037C47.6013 94.5428 47.8608 95.0609 48.181 95.0609Z" fill="#FFB8B8"/>
<path d="M26.0088 109.671C26.0088 109.671 18.7631 109.671 19.0529 112.564C19.3427 115.457 28.9072 165.219 28.9072 165.219C28.9072 165.219 32.9648 161.458 36.4428 162.326L26.0088 109.671Z" fill="#3F3D56"/>
<path d="M54.1225 110.539C54.1225 110.539 61.3683 111.986 61.3683 116.325C61.3683 120.665 50.9344 162.326 49.4852 162.326C48.0361 162.326 42.5293 161.458 42.5293 160.011C42.5293 158.565 54.1225 110.539 54.1225 110.539Z" fill="#3F3D56"/>
<path opacity="0.2" d="M52.5285 119.074L46.0073 144.531C46.0073 144.531 49.0506 122.256 52.5285 119.074Z" fill="black"/>
<path opacity="0.2" d="M27.1633 115.497L33.7587 148.78C33.7587 148.78 31.6508 117.417 27.1633 115.497Z" fill="black"/>
<path d="M39.6309 102.438C44.2729 102.438 48.036 98.6821 48.036 94.0484C48.036 89.4147 44.2729 85.6584 39.6309 85.6584C34.9889 85.6584 31.2258 89.4147 31.2258 94.0484C31.2258 98.6821 34.9889 102.438 39.6309 102.438Z" fill="#FFB8B8"/>
<path d="M31.9274 85.5131L38.2099 82.2285L46.8855 83.572L48.6804 91.4856L44.2124 91.3143L42.9641 88.4068V91.2662L40.9023 91.1872L39.7056 86.5583L38.9578 91.4856L31.6282 91.3365L31.9274 85.5131Z" fill="#2F2E41"/>
<path d="M126.135 36.8043L122.671 45.029L151.912 60.3505L161.764 31.5729" fill="#F2F2F2"/>
<path d="M151.238 55.3044L164.156 24.9632L134.466 10.3795L121.997 39.9829L151.238 55.3044Z" fill="#73B9FF"/>
<path d="M133.764 21.982L133.547 22.4073L156.024 33.872L156.242 33.4467L133.764 21.982Z" fill="white"/>
<path d="M132.079 26.0188L131.862 26.4441L154.339 37.9088L154.557 37.4835L132.079 26.0188Z" fill="white"/>
</g>
<defs>
<clipPath id="clip0">
<rect width="252" height="225" fill="white" transform="translate(0 0.287354)"/>
</clipPath>
</defs>
</svg>

