<svg width="343" height="236" viewBox="0 0 343 236" fill="none" xmlns="http://www.w3.org/2000/svg">
<rect x="1" y="1" width="341" height="233.287" rx="15" fill="white" stroke="#003366" stroke-width="2"/>
<circle cx="20.2219" cy="13.75" r="8" fill="#73B9FF"/>
<circle cx="44.2219" cy="13.75" r="8" fill="#CED0D9"/>
<circle cx="68.2219" cy="13.75" r="8" fill="#B6B7BF"/>
<rect x="13.7505" y="29.7929" width="315.499" height="187.16" fill="#CED0D9"/>
<path d="M171.5 90.2855C153.228 90.2855 138.412 105.101 138.412 123.373C138.412 141.645 153.228 156.46 171.5 156.46C189.771 156.46 204.587 141.645 204.587 123.373C204.587 105.101 189.771 90.2855 171.5 90.2855ZM182.142 123.882L166.012 135.618C165.924 135.682 165.819 135.719 165.711 135.728C165.602 135.736 165.494 135.714 165.397 135.664C165.3 135.615 165.218 135.539 165.161 135.446C165.105 135.354 165.074 135.247 165.074 135.138V111.681C165.074 111.572 165.104 111.465 165.16 111.372C165.217 111.279 165.299 111.203 165.396 111.154C165.493 111.104 165.602 111.082 165.711 111.09C165.82 111.099 165.924 111.137 166.012 111.201L182.142 122.93C182.218 122.983 182.281 123.055 182.323 123.138C182.366 123.221 182.389 123.313 182.389 123.406C182.389 123.499 182.366 123.591 182.323 123.674C182.281 123.757 182.218 123.828 182.142 123.882Z" fill="white" fill-opacity="0.8"/>
</svg>

