<svg width="184" height="32" viewBox="0 0 184 32" fill="none" xmlns="http://www.w3.org/2000/svg">
<path d="M10.2821 6.85472C12.567 6.85472 14.3994 7.52209 15.7794 8.85684C17.1594 10.1916 17.8494 12.1711 17.8494 14.7953V25.1792H13.6076V15.3383C13.6076 13.7547 13.2344 12.567 12.4878 11.7752C11.7413 10.9608 10.678 10.5536 9.29798 10.5536C7.73701 10.5536 6.50406 11.0286 5.59915 11.9788C4.69424 12.9063 4.24178 14.2524 4.24178 16.017V25.1792H0V0H4.24178V9.16225C4.94309 8.4157 5.80276 7.85013 6.82078 7.46554C7.86143 7.05833 9.0152 6.85472 10.2821 6.85472Z" fill="#1A8CFF"/>
<path d="M40.8121 7.05833V22.4305C40.8121 28.8102 37.6788 32 31.4123 32C29.7608 32 28.1772 31.7738 26.6615 31.3213C25.1684 30.8915 23.9355 30.258 22.9627 29.421L24.863 26.2312C25.6322 26.8872 26.571 27.4076 27.6795 27.7922C28.7881 28.1767 29.9531 28.369 31.1748 28.369C33.0298 28.369 34.3872 27.9166 35.2469 27.0117C36.1292 26.1294 36.5703 24.7607 36.5703 22.9056V22.0573C35.8916 22.8038 35.0659 23.3807 34.0931 23.7879C33.1203 24.1725 32.0684 24.3648 30.9372 24.3648C28.5166 24.3648 26.6049 23.6974 25.2023 22.3627C23.8223 21.0279 23.1323 19.0258 23.1323 16.3563V7.05833H27.3741V15.8134C27.3741 17.4196 27.7361 18.6299 28.46 19.4443C29.2066 20.2361 30.2585 20.632 31.6159 20.632C33.1316 20.632 34.3307 20.1683 35.2129 19.2407C36.1179 18.3132 36.5703 16.9671 36.5703 15.2025V7.05833H40.8121Z" fill="#1A8CFF"/>
<path d="M56.4481 6.85472C58.2127 6.85472 59.785 7.23931 61.165 8.00848C62.5676 8.77766 63.6648 9.86356 64.4566 11.2662C65.2484 12.6688 65.6443 14.2863 65.6443 16.1188C65.6443 17.9512 65.2484 19.5801 64.4566 21.0053C63.6648 22.4079 62.5676 23.4938 61.165 24.263C59.785 25.0322 58.2127 25.4168 56.4481 25.4168C54.0049 25.4168 52.0706 24.6023 50.6454 22.9735V31.7625H46.4036V7.05833H50.4418V9.43372C51.1431 8.57405 52.0028 7.9293 53.0208 7.49947C54.0614 7.06964 55.2039 6.85472 56.4481 6.85472ZM55.9731 21.7858C57.534 21.7858 58.8122 21.2655 59.8076 20.2248C60.8257 19.1842 61.3347 17.8155 61.3347 16.1188C61.3347 14.4221 60.8257 13.0534 59.8076 12.0127C58.8122 10.9721 57.534 10.4518 55.9731 10.4518C54.955 10.4518 54.0388 10.6893 53.2244 11.1644C52.41 11.6168 51.7652 12.2729 51.2901 13.1326C50.8151 13.9922 50.5775 14.9876 50.5775 16.1188C50.5775 17.2499 50.8151 18.2453 51.2901 19.105C51.7652 19.9647 52.41 20.632 53.2244 21.1071C54.0388 21.5596 54.955 21.7858 55.9731 21.7858Z" fill="#1A8CFF"/>
<path d="M78.3241 21.8197C80.2923 21.8197 81.9325 21.1637 83.2446 19.8515L85.4843 22.4645C84.6925 23.4373 83.6744 24.1725 82.4302 24.6702C81.1859 25.1679 79.7833 25.4168 78.2223 25.4168C76.2315 25.4168 74.4782 25.0209 72.9625 24.2291C71.4468 23.4373 70.2704 22.3401 69.4334 20.9374C68.6189 19.5122 68.2117 17.906 68.2117 16.1188C68.2117 14.3542 68.6076 12.7706 69.3994 11.368C70.2138 9.94274 71.3224 8.83422 72.725 8.04242C74.1502 7.25062 75.7564 6.85472 77.5436 6.85472C79.2403 6.85472 80.7787 7.228 82.1587 7.97455C83.5613 8.69848 84.6698 9.75044 85.4843 11.1304C86.2987 12.4878 86.7059 14.0827 86.7059 15.9152L72.8268 18.6299C73.2566 19.6706 73.9466 20.4624 74.8968 21.0053C75.8469 21.5483 76.9894 21.8197 78.3241 21.8197ZM77.5436 10.2481C75.9827 10.2481 74.7158 10.7572 73.743 11.7752C72.7928 12.7932 72.3178 14.1619 72.3178 15.8812V15.9152L82.5659 13.947C82.2718 12.8385 81.6723 11.9449 80.7674 11.2662C79.8851 10.5875 78.8105 10.2481 77.5436 10.2481Z" fill="#1A8CFF"/>
<path d="M94.8571 9.7052C96.0787 7.80488 98.2279 6.85472 101.305 6.85472V10.8929C100.943 10.825 100.615 10.7911 100.32 10.7911C98.669 10.7911 97.3795 11.2775 96.452 12.2503C95.5244 13.2004 95.0607 14.5804 95.0607 16.3902V25.1792H90.8189V7.05833H94.8571V9.7052Z" fill="#1A8CFF"/>
<path d="M115.893 4.95459C113.857 4.95459 112.319 5.40705 111.278 6.31196C110.237 7.21688 109.717 8.55162 109.717 10.3162V12.3523H120.067V16.085H109.717V25.1794H105.305V10.3162C105.305 7.44311 106.222 5.19213 108.054 3.56329C109.909 1.91182 112.454 1.08609 115.689 1.08609C117.047 1.08609 118.314 1.23314 119.49 1.52724C120.666 1.82133 121.696 2.25117 122.578 2.81674L121.187 6.41377C119.784 5.44099 118.019 4.95459 115.893 4.95459Z" fill="#003366"/>
<path d="M132.968 25.4169C131.136 25.4169 129.484 25.021 128.014 24.2292C126.543 23.4374 125.39 22.3402 124.553 20.9376C123.738 19.5124 123.331 17.9062 123.331 16.119C123.331 14.3318 123.738 12.7368 124.553 11.3342C125.39 9.93162 126.543 8.83441 128.014 8.04261C129.484 7.25081 131.136 6.85491 132.968 6.85491C134.823 6.85491 136.486 7.25081 137.957 8.04261C139.427 8.83441 140.57 9.93162 141.384 11.3342C142.221 12.7368 142.64 14.3318 142.64 16.119C142.64 17.9062 142.221 19.5124 141.384 20.9376C140.57 22.3402 139.427 23.4374 137.957 24.2292C136.486 25.021 134.823 25.4169 132.968 25.4169ZM132.968 21.786C134.529 21.786 135.819 21.2657 136.837 20.225C137.855 19.1844 138.364 17.8157 138.364 16.119C138.364 14.4222 137.855 13.0536 136.837 12.0129C135.819 10.9723 134.529 10.4519 132.968 10.4519C131.407 10.4519 130.118 10.9723 129.1 12.0129C128.104 13.0536 127.607 14.4222 127.607 16.119C127.607 17.8157 128.104 19.1844 129.1 20.225C130.118 21.2657 131.407 21.786 132.968 21.786Z" fill="#003366"/>
<path d="M155.047 25.4169C153.17 25.4169 151.484 25.021 149.991 24.2292C148.498 23.4374 147.333 22.3402 146.496 20.9376C145.659 19.5124 145.24 17.9062 145.24 16.119C145.24 14.3318 145.659 12.7368 146.496 11.3342C147.333 9.93162 148.487 8.83441 149.957 8.04261C151.45 7.25081 153.147 6.85491 155.047 6.85491C156.835 6.85491 158.396 7.21688 159.73 7.94081C161.088 8.66474 162.106 9.70539 162.784 11.0628L159.527 12.9631C159.006 12.126 158.35 11.5039 157.558 11.0967C156.789 10.6669 155.941 10.4519 155.013 10.4519C153.43 10.4519 152.118 10.9723 151.077 12.0129C150.036 13.0309 149.516 14.3996 149.516 16.119C149.516 17.8383 150.025 19.2183 151.043 20.2589C152.084 21.277 153.407 21.786 155.013 21.786C155.941 21.786 156.789 21.5824 157.558 21.1752C158.35 20.7453 159.006 20.1119 159.527 19.2748L162.784 21.1752C162.083 22.5325 161.054 23.5845 159.696 24.331C158.362 25.055 156.812 25.4169 155.047 25.4169Z" fill="#003366"/>
<path d="M183.937 7.05852V25.1794H179.899V22.8379C179.198 23.6976 178.327 24.3424 177.286 24.7722C176.268 25.202 175.137 25.4169 173.893 25.4169C172.128 25.4169 170.545 25.0324 169.142 24.2632C167.762 23.494 166.676 22.4081 165.884 21.0055C165.115 19.6029 164.731 17.974 164.731 16.119C164.731 14.2639 165.115 12.6464 165.884 11.2664C166.676 9.86375 167.762 8.77785 169.142 8.00868C170.545 7.2395 172.128 6.85491 173.893 6.85491C175.069 6.85491 176.144 7.05852 177.117 7.46573C178.112 7.87294 178.972 8.47244 179.696 9.26424V7.05852H183.937ZM174.368 21.786C175.929 21.786 177.218 21.2657 178.236 20.225C179.254 19.1844 179.763 17.8157 179.763 16.119C179.763 14.4222 179.254 13.0536 178.236 12.0129C177.218 10.9723 175.929 10.4519 174.368 10.4519C172.807 10.4519 171.517 10.9723 170.499 12.0129C169.504 13.0536 169.006 14.4222 169.006 16.119C169.006 17.8157 169.504 19.1844 170.499 20.225C171.517 21.2657 172.807 21.786 174.368 21.786Z" fill="#003366"/>
<circle cx="132.842" cy="15.7895" r="2.31579" fill="#003366"/>
<circle cx="174.526" cy="15.7895" r="2.31579" fill="#003366"/>
</svg>
