<svg width="272" height="301" viewBox="0 0 272 301" fill="none" xmlns="http://www.w3.org/2000/svg">
<path fill-rule="evenodd" clip-rule="evenodd" d="M156.758 0.187028C192.954 3.32229 210.606 44.3253 230.549 74.7109C245.284 97.1616 249.253 122.131 254.128 148.543C260.904 185.254 284.071 224.367 263.98 255.825C242.272 289.814 197.072 300.859 156.758 300.999C116.304 301.14 77.7506 284.832 48.7867 256.574C19.4421 227.944 -3.71073 189.335 0.494956 148.543C4.45369 110.146 40.9938 87.2858 68.9796 60.7161C95.7769 35.2747 119.954 -3.00083 156.758 0.187028Z" fill="#E6E7F2"/>
<path d="M184.338 46.9733C167.854 63.9871 165.118 79.9878 174.801 113.411C175.137 114.572 174.883 115.794 174.006 116.625C161.059 128.888 81.6032 198.434 70.8208 207.867C70.0437 208.547 69.6683 209.551 69.2533 210.496C66.5599 216.633 53.8543 189.361 31.6024 201.462C28.5837 203.104 29.5651 207.77 33 207.867C48.6044 208.309 52.5372 248.11 65.7675 247.997C65.959 247.995 66.1502 248.01 66.3391 248.041C99.1264 253.429 146.205 253.737 161.16 243.256C175.983 232.868 208.4 205.676 204.943 130.114C204.872 128.556 205.872 127.115 207.362 126.655C229.514 119.805 239.775 110.003 245.931 79.6853C246.527 76.7495 243.158 74.6919 240.691 76.3927C196.942 106.566 184.445 93.0365 189.794 49.798C190.179 46.6818 186.523 44.7182 184.338 46.9733Z" fill="#003366"/>
<path d="M93.5306 65.1909C72.3198 65.1909 38.4812 85.038 38.4812 125.359C38.4812 164.865 83.0856 187.083 66.8071 245.254C66.2669 247.184 67.4614 249.229 69.4334 249.589C99.5885 255.086 118.634 256.149 151.497 249.106C152.113 248.974 152.763 249.017 153.359 249.221C162.146 252.213 173.342 253.248 199.476 253.538C202.582 253.572 203.992 249.759 201.571 247.811C190.359 238.791 181.404 232.838 168.773 219.616C167.997 218.804 167.69 217.652 167.941 216.557C178.388 171.088 176.892 119.57 155.749 92.6347C134.335 65.3535 114.741 65.1909 93.5306 65.1909Z" fill="#73B9FF"/>
<path d="M99.9032 118.674C99.9032 130.443 90.3625 139.983 78.5935 139.983C66.8246 139.983 57.2839 130.443 57.2839 118.674C57.2839 106.905 66.8246 97.3642 78.5935 97.3642C90.3625 97.3642 99.9032 106.905 99.9032 118.674Z" fill="white"/>
<path d="M90.2928 118.674C90.2928 125.135 85.0548 130.373 78.5934 130.373C72.132 130.373 66.894 125.135 66.894 118.674C66.894 112.212 72.132 106.974 78.5934 106.974C85.0548 106.974 90.2928 112.212 90.2928 118.674Z" fill="#003366"/>
<path d="M145.029 118.674C145.029 130.443 135.489 139.983 123.72 139.983C111.951 139.983 102.41 130.443 102.41 118.674C102.41 106.905 111.951 97.3642 123.72 97.3642C135.489 97.3642 145.029 106.905 145.029 118.674Z" fill="white"/>
<path d="M135.419 118.674C135.419 125.135 130.181 130.373 123.72 130.373C117.258 130.373 112.02 125.135 112.02 118.674C112.02 112.212 117.258 106.974 123.72 106.974C130.181 106.974 135.419 112.212 135.419 118.674Z" fill="#003366"/>
<path d="M77.746 111.121C78.9677 109.899 80.8249 109.506 82.3083 110.391C83.0099 110.81 83.7189 111.302 84.2337 111.823C84.7241 112.318 85.189 112.991 85.588 113.662C86.4725 115.148 86.0749 117.006 84.8522 118.229C83.7163 119.365 82.0229 119.799 80.5883 119.077C79.8065 118.683 78.9954 118.19 78.4275 117.629C77.8353 117.044 77.3165 116.196 76.9052 115.384C76.1795 113.951 76.6102 112.257 77.746 111.121Z" fill="white"/>
<path d="M121.619 110.285C122.84 109.064 124.698 108.67 126.181 109.556C126.883 109.975 127.592 110.467 128.107 110.987C128.597 111.482 129.062 112.156 129.461 112.826C130.345 114.312 129.948 116.171 128.725 117.393C127.589 118.529 125.896 118.964 124.461 118.241C123.679 117.847 122.868 117.354 122.3 116.793C121.708 116.208 121.189 115.361 120.778 114.548C120.052 113.115 120.483 111.421 121.619 110.285Z" fill="white"/>
<path fill-rule="evenodd" clip-rule="evenodd" d="M103.827 144.381C102.657 143.216 100.551 143.128 99.3902 144.161C97.5538 145.796 95.0441 147.732 92.1703 149.126C89.3008 150.519 85.9746 151.416 82.5595 150.829C81.8772 150.712 81.4191 150.064 81.5364 149.381C81.6536 148.699 82.3018 148.241 82.9841 148.358C85.7019 148.825 88.4802 148.13 91.0759 146.871C93.6673 145.613 95.9835 143.838 97.7231 142.289C99.9463 140.31 103.556 140.573 105.596 142.604C108.773 145.767 114.398 149.675 122.044 148.358C122.727 148.241 123.375 148.699 123.493 149.381C123.61 150.063 123.152 150.711 122.47 150.829C113.669 152.345 107.266 147.805 103.827 144.381Z" fill="#003366"/>
<path fill-rule="evenodd" clip-rule="evenodd" d="M77.7427 154.052C78.0939 154.351 78.1359 154.879 77.8365 155.23L70.8707 163.402C70.5712 163.753 70.0438 163.795 69.6926 163.495C69.3413 163.196 69.2993 162.669 69.5987 162.317L76.5646 154.146C76.864 153.795 77.3915 153.753 77.7427 154.052Z" fill="#003366"/>
<path fill-rule="evenodd" clip-rule="evenodd" d="M75.423 150.593C75.6537 150.993 75.5168 151.504 75.1171 151.735L65.818 157.104C65.4183 157.334 64.9072 157.198 64.6764 156.798C64.4456 156.398 64.5826 155.887 64.9823 155.656L74.2814 150.287C74.6811 150.057 75.1922 150.194 75.423 150.593Z" fill="#003366"/>
<path fill-rule="evenodd" clip-rule="evenodd" d="M73.1591 147.05C73.2934 147.492 73.0444 147.959 72.6029 148.093L62.3301 151.219C61.8886 151.353 61.4217 151.104 61.2874 150.663C61.153 150.221 61.402 149.754 61.8436 149.62L72.1164 146.494C72.5579 146.36 73.0247 146.609 73.1591 147.05Z" fill="#003366"/>
<path fill-rule="evenodd" clip-rule="evenodd" d="M126.844 154.052C126.493 154.351 126.451 154.879 126.75 155.23L133.716 163.402C134.016 163.753 134.543 163.795 134.894 163.495C135.246 163.196 135.288 162.669 134.988 162.317L128.022 154.146C127.723 153.795 127.195 153.753 126.844 154.052Z" fill="#003366"/>
<path fill-rule="evenodd" clip-rule="evenodd" d="M129.164 150.593C128.933 150.993 129.07 151.504 129.47 151.735L138.769 157.104C139.169 157.334 139.68 157.198 139.911 156.798C140.141 156.398 140.004 155.887 139.605 155.656L130.305 150.287C129.906 150.057 129.395 150.194 129.164 150.593Z" fill="#003366"/>
<path fill-rule="evenodd" clip-rule="evenodd" d="M131.428 147.05C131.293 147.492 131.543 147.959 131.984 148.093L142.257 151.219C142.698 151.353 143.165 151.104 143.3 150.663C143.434 150.221 143.185 149.754 142.743 149.62L132.471 146.494C132.029 146.36 131.562 146.609 131.428 147.05Z" fill="#003366"/>
</svg>
