<svg width="273" height="296" viewBox="0 0 273 296" fill="none" xmlns="http://www.w3.org/2000/svg">
<path fill-rule="evenodd" clip-rule="evenodd" d="M121.061 0.869224C157.645 4.06855 184.487 31.6172 210.937 57.1515C238.152 83.4244 276.929 109.606 272.678 147.239C268.493 184.297 219.462 193.137 192.657 219.003C166.887 243.869 156.182 286.74 121.061 293.54C82.5434 300.998 39.7637 284.013 15.1824 253.367C-7.94162 224.538 3.91492 184.229 3.71064 147.239C3.50434 109.883 -9.34229 69.0481 14.0037 39.9291C38.7341 9.08328 81.7318 -2.57027 121.061 0.869224Z" fill="#E6E7F2"/>
<g clip-path="url(#clip0)">
<path d="M104.783 233.124C104.783 237.631 83.6867 241.287 57.6622 241.287C31.6378 241.287 10.5413 237.631 10.5413 233.124C10.5413 231.996 11.858 230.924 14.2405 229.949C21.1765 227.104 37.147 225.083 55.9183 224.966C56.4974 224.962 57.0787 224.96 57.6622 224.96C83.6867 224.96 104.783 228.616 104.783 233.124Z" fill="#3F3D56"/>
<path opacity="0.1" d="M55.9183 224.967C53.8069 228.416 50.9435 231.341 47.543 233.524C44.1424 235.706 40.2929 237.089 36.2831 237.568C32.2733 238.048 28.2072 237.611 24.3897 236.292C20.5722 234.972 17.1024 232.803 14.2405 229.949C21.1765 227.105 37.147 225.083 55.9183 224.967Z" fill="black"/>
<path d="M33.6614 233.344C47.2816 233.344 58.3229 221.49 58.3229 206.867C58.3229 192.245 47.2816 180.39 33.6614 180.39C20.0413 180.39 9 192.245 9 206.867C9 221.49 20.0413 233.344 33.6614 233.344Z" fill="#3F3D56"/>
<path d="M63.9216 86.6748C67.4182 100.173 78.6984 108.897 89.1419 106.181L63.9216 86.6748Z" fill="#3F3D56"/>
<path d="M89.142 106.181C85.6061 92.5312 92.1755 79.033 103.83 76.0017L89.142 106.181Z" fill="#73B9FF"/>
<path d="M71.0845 86.1178C74.4059 98.9396 82.4824 107.913 89.142 106.181L71.0845 86.1178Z" fill="#73B9FF"/>
<path d="M89.1418 106.181C84.6237 88.7396 91.868 71.791 105.339 68.2873L89.1418 106.181Z" fill="#3F3D56"/>
<path d="M85.2117 107.387C85.2117 107.387 87.8698 106.607 88.528 105.821C89.1863 105.035 92.3223 103.485 92.762 104.357C93.2017 105.229 97.9794 107.905 94.9606 108.717C91.9418 109.528 87.8092 110.073 86.8758 109.791C85.9423 109.508 85.2117 107.387 85.2117 107.387Z" fill="#A8A8A8"/>
<path opacity="0.2" d="M94.9313 108.381C91.9124 109.192 87.7798 109.737 86.8464 109.455C86.1356 109.24 85.5427 107.959 85.3002 107.36C85.2442 107.377 85.2117 107.387 85.2117 107.387C85.2117 107.387 85.9423 109.508 86.8758 109.791C87.8092 110.073 91.9418 109.528 94.9606 108.717C95.832 108.483 96.053 108.093 95.917 107.636C95.8679 107.946 95.5799 108.207 94.9313 108.381Z" fill="black"/>
<path d="M262 96.1055H84.5256V199.145H262V96.1055Z" fill="#F2F2F2"/>
<path opacity="0.3" d="M186.034 127.381H88.7092V178.46H186.034V127.381Z" fill="#73B9FF"/>
<path d="M232.556 125.155H193.521V127.319H232.556V125.155Z" fill="#3F3D56"/>
<path d="M250.33 129.149H193.521V131.313H250.33V129.149Z" fill="#3F3D56"/>
<path d="M232.556 138.803H193.521V140.967H232.556V138.803Z" fill="#3F3D56"/>
<path d="M232.556 154.782H193.521V156.946H232.556V154.782Z" fill="#3F3D56"/>
<path d="M250.33 142.798H193.521V144.962H250.33V142.798Z" fill="#3F3D56"/>
<path d="M250.33 146.793H193.521V148.957H250.33V146.793Z" fill="#3F3D56"/>
<path d="M250.33 150.788H193.521V152.952H250.33V150.788Z" fill="#3F3D56"/>
<path d="M213.952 164.436H193.521V170.096H213.952V164.436Z" fill="#73B9FF"/>
<path d="M78.2476 158.29C78.2476 158.29 81.9153 147.877 84.5642 151.144C87.2131 154.41 80.4889 159.923 80.4889 159.923L78.2476 158.29Z" fill="#A0616A"/>
<path d="M60.9277 148.081L63.1341 148.9C63.1341 148.9 64.1879 153.594 63.7803 154.41C63.3728 155.227 63.1691 154.615 63.7803 156.248C64.3916 157.881 66.2255 162.169 66.4292 162.782C66.633 163.394 78.2474 158.902 78.2474 156.656C78.2474 156.656 80.6925 159.515 81.9151 160.127C81.9151 160.127 68.4669 169.928 66.633 171.153C64.7992 172.378 63.7803 171.765 62.1503 170.336C60.5202 168.907 53.5923 157.065 53.5923 157.065L60.9277 148.081Z" fill="#575A89"/>
<path d="M66.8367 220.564C66.8367 220.564 66.633 222.81 66.2255 223.014C65.8179 223.218 62.7615 228.323 66.2255 229.343C69.6894 230.364 71.727 229.956 72.5421 230.364C73.3571 230.773 87.6204 231.589 87.8242 229.343C88.0279 227.098 80.8963 226.689 80.8963 226.689C80.8963 226.689 74.3759 222.401 73.3571 220.155C72.3383 217.91 66.8367 220.564 66.8367 220.564Z" fill="#2F2E41"/>
<path d="M25.4733 224.647C25.4733 224.647 20.583 233.019 21.8056 234.04C23.0282 235.06 34.9345 238.781 36.6802 238.94C38.9215 239.144 40.5516 237.306 38.7178 236.285C36.8839 235.265 33.0125 230.977 33.0125 229.548V225.872L25.4733 224.647Z" fill="#2F2E41"/>
<path d="M20.7867 169.928C20.7867 169.928 16.5077 175.236 23.2318 183.812L34.4387 198.104C34.4387 198.104 27.5108 209.13 27.3071 214.847C27.1033 220.564 25.677 219.339 25.2695 221.789C24.8619 224.239 23.0281 223.014 24.4544 224.852C25.8807 226.689 31.1785 228.323 32.8086 226.893C34.4387 225.464 34.4387 223.626 34.4387 222.81C34.4387 221.993 37.2914 217.297 37.4951 215.868C37.6989 214.438 45.2381 202.8 45.2381 202.8C45.2381 202.8 47.6832 195.858 44.8306 191.979C41.9779 188.1 40.0929 182.598 40.0929 182.598C40.0929 182.598 48.4983 192.796 54.4073 195.246C54.4073 195.246 56.6487 195.654 56.2412 196.675C55.8337 197.696 56.2412 198.308 56.8525 199.329C57.4638 200.35 61.7428 212.193 63.1691 215.255C64.5954 218.318 63.9841 220.155 65.6142 221.176C67.2443 222.197 74.5797 221.381 74.5797 220.36C74.5797 219.339 73.5609 216.684 72.9496 215.255C72.3384 213.826 67.4481 197.288 67.8556 194.429C68.2631 191.571 67.6518 187.691 64.5954 186.058C61.539 184.424 46.0531 171.153 45.2381 171.153C44.423 171.153 20.7867 169.928 20.7867 169.928Z" fill="#2F2E41"/>
<path d="M61.7428 137.872C66.4692 137.872 70.3008 134.033 70.3008 129.297C70.3008 124.56 66.4692 120.721 61.7428 120.721C57.0163 120.721 53.1848 124.56 53.1848 129.297C53.1848 134.033 57.0163 137.872 61.7428 137.872Z" fill="#A0616A"/>
<path d="M54.815 130.113C54.815 130.113 52.1661 134.809 48.906 135.422C45.6458 136.034 57.4639 145.427 57.4639 145.427C57.4639 145.427 60.3166 136.443 62.7617 136.034C65.2069 135.626 54.815 130.113 54.815 130.113Z" fill="#A0616A"/>
<path d="M63.1691 149.306C63.1691 151.96 55.2224 159.515 55.2224 159.515L47.6833 165.844C47.6833 165.844 47.4795 168.09 46.6645 168.294C45.8494 168.499 44.8306 168.499 45.6457 169.724C46.4607 170.949 48.4983 173.603 46.6645 174.011C46.1116 174.096 45.5545 174.149 44.9957 174.171C44.5066 174.199 43.932 174.226 43.2861 174.25C41.7783 174.303 39.8914 174.338 37.8477 174.324C37.267 174.322 36.6761 174.315 36.075 174.303C28.3708 174.15 19.446 173.262 20.1755 170.336C21.3981 165.436 20.583 163.803 23.2319 161.148C25.8808 158.494 30.1598 149.306 30.1598 149.306C30.1598 149.306 38.7178 134.809 45.8494 134.809L47.3308 134.419C48.0191 134.238 48.747 134.278 49.4114 134.533C50.0759 134.789 50.6432 135.248 51.0331 135.845C52.4635 138.027 54.7192 141.306 56.0375 142.364C58.0751 143.997 58.393 142.825 58.393 142.825C58.393 142.825 63.1691 146.652 63.1691 149.306Z" fill="#575A89"/>
<path d="M45.0343 180.341C45.0343 180.341 50.9433 189.529 47.2756 191.162C43.6079 192.796 41.5703 181.566 41.5703 181.566L45.0343 180.341Z" fill="#A0616A"/>
<path d="M56.148 128.328C56.4765 128.286 56.5803 127.871 56.6356 127.544C56.9317 125.793 58.2343 124.132 59.9845 123.849C60.6534 123.76 61.3337 123.815 61.9798 124.01C62.9053 124.265 63.7741 124.693 64.5399 125.273C64.9441 125.579 65.3331 125.935 65.8193 126.078C66.1405 126.172 67.504 126.78 67.8225 126.883C68.523 127.108 69.1026 127.843 69.824 127.698C70.5142 127.558 70.7763 126.723 70.8872 126.027C71.1399 124.44 70.2334 122.072 69.3321 120.742C68.6481 119.734 67.4906 119.153 66.3334 118.775C64.9776 118.363 63.5846 118.086 62.1745 117.947C60.271 117.722 58.2994 117.603 56.4752 118.192C54.651 118.782 52.9899 120.224 52.6493 122.114C52.5784 122.508 52.5651 122.911 52.4782 123.302C52.2661 124.254 51.6371 125.055 51.2702 125.959C51.0054 126.623 50.8825 127.335 50.9094 128.05C50.9362 128.764 51.1122 129.465 51.4259 130.108C51.934 131.131 52.8176 132.115 52.6269 133.243L54.1993 132C54.4266 131.871 54.6026 131.667 54.6981 131.424C54.7937 131.18 54.8028 130.911 54.7242 130.661L54.4956 128.688C54.4537 128.327 54.4173 127.937 54.5976 127.621C55.2965 126.398 55.6004 128.397 56.148 128.328Z" fill="#2F2E41"/>
<path opacity="0.1" d="M41.3667 166.253L43.2861 174.25C41.3504 174.32 38.7891 174.356 36.075 174.303C35.3904 172.245 34.7363 170.099 34.235 168.09C32.4012 160.74 35.4576 149.51 37.0877 144.202C38.7178 138.893 42.793 137.464 42.793 137.464C42.793 137.464 44.8307 138.076 47.4795 139.914C50.1284 141.751 41.3667 166.253 41.3667 166.253Z" fill="black"/>
<path opacity="0.1" d="M42.9968 165.844L44.9958 174.171C44.5067 174.199 43.9321 174.226 43.2862 174.25C41.7784 174.303 39.8915 174.338 37.8478 174.324C37.1122 172.137 36.4011 169.83 35.8652 167.682C34.0313 160.332 37.0877 149.102 38.7178 143.793C40.3479 138.485 43.9138 144.304 43.9138 144.304C43.9138 144.304 42.4874 140.833 45.1363 142.67C47.7852 144.508 42.9968 165.844 42.9968 165.844Z" fill="black"/>
<path d="M43.608 137.055C43.608 137.055 39.5327 138.485 37.9026 143.793C36.2726 149.102 33.2161 160.332 35.05 167.682C36.8838 175.032 40.7553 184.22 40.7553 184.22C40.7553 184.22 44.6268 181.362 46.0531 181.974L42.1816 165.844C42.1816 165.844 50.9434 141.343 48.2945 139.505C45.6456 137.668 43.608 137.055 43.608 137.055Z" fill="#575A89"/>
<path d="M181.85 122.086H84.5256V173.164H181.85V122.086Z" fill="#3F3D56"/>
<path d="M134.999 159.681C141.081 159.681 146.012 154.731 146.012 148.625C146.012 142.519 141.081 137.569 134.999 137.569C128.916 137.569 123.985 142.519 123.985 148.625C123.985 154.731 128.916 159.681 134.999 159.681Z" fill="white"/>
<path d="M134.999 135.685C132.395 135.685 129.85 136.458 127.686 137.908C125.521 139.357 123.834 141.417 122.838 143.827C121.842 146.237 121.581 148.889 122.089 151.447C122.597 154.006 123.851 156.356 125.691 158.2C127.532 160.045 129.877 161.301 132.431 161.81C134.984 162.319 137.63 162.058 140.036 161.059C142.441 160.061 144.496 158.371 145.943 156.202C147.389 154.033 148.161 151.483 148.161 148.874C148.151 145.379 146.761 142.031 144.294 139.559C141.828 137.088 138.486 135.695 134.999 135.685ZM132.296 155.906L125.551 149.147L127.443 147.251L132.303 152.121L142.561 141.842L144.453 143.738L132.296 155.906Z" fill="#73B9FF"/>
</g>
<defs>
<clipPath id="clip0">
<rect width="253" height="173" fill="white" transform="translate(9 68.2873)"/>
</clipPath>
</defs>
</svg>

